<?xml version="1.0" standalone="no"?>
<!DOCTYPE svg PUBLIC "-//W3C//DTD SVG 1.1//EN" "http://www.w3.org/Graphics/SVG/1.1/DTD/svg11.dtd" >
<svg>
<metadata>
Created by FontForge 20090622 at Tue Jan 21 07:38:37 2020
 By deploy user
Copyright (c) 2008 by Process Type Foundry. All rights reserved.
</metadata>
<defs>
<font id="Knowledge-Regular" horiz-adv-x="254" >
  <font-face 
    font-family="Knowledge Regular"
    font-weight="400"
    font-stretch="normal"
    units-per-em="1000"
    panose-1="2 11 5 6 0 0 0 2 0 4"
    ascent="775"
    descent="-225"
    x-height="478"
    cap-height="666"
    bbox="-161 -250 1156 950"
    underline-thickness="44"
    underline-position="-56"
    unicode-range="U+0020-U+FB02"
  />
<missing-glyph horiz-adv-x="636" 
d="M85 0h466v666h-466v-666zM114 25v616h408v-616h-408zM239 239l79 81l81 -81l14 14l-80 80l80 80l-14 14l-81 -81l-79 81l-14 -14l80 -80l-80 -80z" />
    <glyph glyph-name="fi" unicode="fi" horiz-adv-x="526" 
d="M296 664q-33 12 -71 12q-70 0 -102 -35.5t-32 -110.5v-52h-64v-69h64v-409h86v409h98v69h-98v51q0 43 15.5 61t50.5 18q12 0 25 -2t23 -5zM352 607q0 -23 15.5 -40.5t42.5 -17.5q26 0 41.5 17.5t15.5 40.5t-15.5 40.5t-41.5 17.5q-27 0 -42.5 -17.5t-15.5 -40.5zM453 0
v478h-86v-478h86z" />
    <glyph glyph-name="fl" unicode="fl" horiz-adv-x="565" 
d="M297 664q-35 12 -72 12q-70 0 -102 -35.5t-32 -110.5v-52h-64v-69h64v-409h86v409h98v69h-98v51q0 43 15.5 61t50.5 18q12 0 25 -2t24 -5zM540 2l-3 65q-9 -2 -18 -3.5t-20 -1.5q-27 0 -37.5 14.5t-10.5 40.5v549h-86v-549q0 -57 23.5 -90.5t83.5 -33.5q20 0 38 2.5
t30 6.5z" />
    <glyph glyph-name=".notdef" horiz-adv-x="636" 
d="M85 0h466v666h-466v-666zM114 25v616h408v-616h-408zM239 239l79 81l81 -81l14 14l-80 80l80 80l-14 14l-81 -81l-79 81l-14 -14l80 -80l-80 -80z" />
    <glyph glyph-name=".null" horiz-adv-x="0" 
 />
    <glyph glyph-name="nonmarkingreturn" horiz-adv-x="220" 
 />
    <glyph glyph-name="space" unicode=" " horiz-adv-x="220" 
 />
    <glyph glyph-name="numbersign" unicode="#" horiz-adv-x="646" 
d="M102 0h68l44 201h174l-44 -201h66l44 201h99l14 59h-100l36 162h98l12 59h-98l41 185h-66l-41 -185h-174l41 185h-68l-40 -185h-105l-13 -59h105l-36 -162h-103l-13 -59h103zM227 260l36 162h173l-35 -162h-174z" />
    <glyph glyph-name="dollar" unicode="$" horiz-adv-x="519" 
d="M50 46q36 -18 81.5 -30t88.5 -16v-119h84v120q78 11 125 57t47 121q0 43 -17 74t-45 54t-63.5 39.5t-72.5 29.5q-38 13 -66 25t-46 25.5t-26.5 30.5t-8.5 41q0 51 35 76t101 25q49 0 94 -11.5t84 -27.5l16 67q-30 14 -68.5 24.5t-84.5 14.5v119h-84v-119
q-39 -4 -71.5 -16.5t-55.5 -33.5t-36 -51.5t-13 -71.5q0 -72 51 -115.5t146 -74.5q37 -12 64.5 -24t46 -27t28 -34.5t9.5 -46.5q0 -53 -36 -78.5t-97 -25.5q-51 0 -100 13t-91 33z" />
    <glyph glyph-name="percent" unicode="%" horiz-adv-x="817" 
d="M199 320q40 0 69.5 14t49 38.5t29 57t9.5 68.5t-9.5 68.5t-29 57t-49 38.5t-69.5 14q-39 0 -68.5 -14t-49 -38.5t-29 -57t-9.5 -68.5t9.5 -68.5t29 -57t49 -38.5t68.5 -14zM210 0h75l326 666h-76zM199 375q-45 0 -66.5 33t-21.5 90t21.5 90t66.5 33t67 -33t22 -90
t-22 -90t-67 -33zM465 168q0 -36 9.5 -68.5t29 -57t49 -38.5t69.5 -14t69.5 14t49 38.5t29 57t9.5 68.5t-9.5 68.5t-29 57t-49 38.5t-69.5 14t-69.5 -14t-49 -38.5t-29 -57t-9.5 -68.5zM534 168q0 57 21.5 90t66.5 33t67 -33t22 -90t-22 -90t-67 -33t-66.5 33t-21.5 90z" />
    <glyph glyph-name="ampersand" unicode="&#x26;" horiz-adv-x="635" 
d="M46 163q0 -41 15.5 -73t42.5 -54t63.5 -34t79.5 -12q60 0 108 21t87 56l60 -67h98l-107 123q35 48 59 105t37 117l-70 16q-11 -48 -29 -95.5t-44 -89.5l-158 180l55 45.5t43 44.5t28 48t10 55q0 59 -42 93t-111 34q-81 0 -127.5 -39t-46.5 -108q0 -26 8 -49.5t20.5 -44.5
t28 -40.5t30.5 -35.5l-52 -39t-44 -41.5t-30.5 -50.5t-11.5 -65zM256 54q-55 0 -92 25.5t-37 84.5q0 25 7.5 45t21 37t32 32.5t39.5 31.5l171 -193q-29 -29 -64.5 -46t-77.5 -17zM176 532q0 45 25.5 64t67.5 19q37 0 59.5 -19.5t22.5 -52.5q0 -21 -8.5 -39t-23 -34.5
t-33.5 -32.5t-41 -32q-25 26 -47 56t-22 71z" />
    <glyph glyph-name="quotesingle" unicode="'" horiz-adv-x="204" 
d="M69 404h66l9 154v108h-84v-108z" />
    <glyph glyph-name="parenleft" unicode="(" horiz-adv-x="295" 
d="M205 -160l62 39q-31 55 -54 105.5t-38.5 100.5t-23 101t-7.5 108t7.5 108t23 101t38.5 100.5t54 105.5l-62 39q-38 -59 -65.5 -113.5t-45.5 -109t-27 -111t-9 -120.5t9 -120.5t27 -111t45.5 -109t65.5 -113.5z" />
    <glyph glyph-name="parenright" unicode=")" horiz-adv-x="295" 
d="M28 -121l62 -39q37 59 64.5 113.5t46 109t27.5 111t9 120.5t-9 120.5t-27.5 111t-46 109t-64.5 113.5l-62 -39q30 -55 53 -105.5t38.5 -100.5t23.5 -101t8 -108t-8 -108t-23.5 -101t-38.5 -100.5t-53 -105.5z" />
    <glyph glyph-name="asterisk" unicode="*" horiz-adv-x="411" 
d="M171 322h69l-22 150l117 -96l36 60l-141 58l141 58l-36 60l-117 -96l22 150h-69l22 -150l-118 96l-35 -60l141 -58l-141 -58l35 -60l118 96z" />
    <glyph glyph-name="plus" unicode="+" horiz-adv-x="549" 
d="M235 90h79v197h182v72h-182v197h-79v-197h-182v-72h182v-197z" />
    <glyph glyph-name="comma" unicode="," horiz-adv-x="250" 
d="M88 112l-59 -252h66l97 252h-104z" />
    <glyph glyph-name="hyphen" unicode="-" horiz-adv-x="366" 
d="M60 251h245v73h-245v-73z" />
    <glyph glyph-name="period" unicode="." 
d="M68 52q0 -26 16 -42.5t43 -16.5t43 16.5t16 42.5t-16 42t-43 16t-43 -16t-16 -42z" />
    <glyph glyph-name="slash" unicode="/" horiz-adv-x="446" 
d="M48 -100h83l272 776h-83z" />
    <glyph glyph-name="zero" unicode="0" horiz-adv-x="599" 
d="M299 -10q66 0 113.5 25t78.5 70.5t45.5 108.5t14.5 139t-14.5 139t-45.5 108.5t-78.5 70.5t-113.5 25t-113 -25t-78 -70.5t-45.5 -108.5t-14.5 -139t14.5 -139t45.5 -108.5t78 -70.5t113 -25zM299 59q-46 0 -77.5 20t-51 56t-28 86.5t-8.5 111.5t8.5 111t28 86t51 56
t77.5 20t78 -20t51.5 -56t28 -86t8.5 -111t-8.5 -111.5t-28 -86.5t-51.5 -56t-78 -20z" />
    <glyph glyph-name="one" unicode="1" horiz-adv-x="342" 
d="M174 0h86v666h-75l-169 -34l11 -72l147 27v-587z" />
    <glyph glyph-name="two" unicode="2" horiz-adv-x="532" 
d="M45 0h434v70h-346v7q0 36 12.5 63t34.5 49t52.5 42l66.5 43l67.5 43.5t62 50.5t45 61.5t17.5 75.5q0 43 -16 75t-45 53.5t-70 32t-90 10.5q-59 0 -104 -11t-86 -33l21 -67q35 17 75 29t87 12q64 0 103.5 -24t39.5 -81q0 -28 -11 -49.5t-31 -41.5t-50 -39.5l-67 -42.5
l-83.5 -54.5t-63.5 -56.5t-40.5 -71.5t-14.5 -98.5v-47z" />
    <glyph glyph-name="three" unicode="3" horiz-adv-x="508" 
d="M37 34q45 -20 95.5 -32t98.5 -12q50 0 92 13.5t72.5 38t47.5 59.5t17 79q0 64 -37 104t-100 57q61 20 94 66.5t33 104.5q0 78 -56.5 121t-150.5 43q-54 0 -100.5 -12t-86.5 -34l22 -64q34 17 72 28.5t80 11.5q63 0 98.5 -28.5t35.5 -78.5q0 -57 -40.5 -91t-115.5 -34h-98
v-70h101q75 0 119 -32.5t44 -89.5q0 -122 -149 -122q-44 0 -87.5 11t-81.5 28z" />
    <glyph glyph-name="four" unicode="4" horiz-adv-x="557" 
d="M33 172h330v-172h82v172h89v68h-89v426h-89l-323 -424v-70zM117 240l246 330v-330h-246z" />
    <glyph glyph-name="five" unicode="5" horiz-adv-x="552" 
d="M58 42q42 -23 98 -37.5t107 -14.5q59 0 105 17.5t77.5 47t47.5 69t16 83.5q0 49 -15 88t-42.5 66.5t-66 42.5t-84.5 15q-43 0 -79 -10.5t-63 -27.5v215h319v70h-401v-339l72 -24q23 17 55.5 31.5t75.5 14.5q73 0 109 -39t36 -104q0 -67 -42.5 -107t-122.5 -40
q-48 0 -90.5 11.5t-90.5 34.5z" />
    <glyph glyph-name="six" unicode="6" horiz-adv-x="556" 
d="M50 289q0 -67 15.5 -122t46 -94.5t75.5 -61t103 -21.5q54 0 96 19t71 50t44.5 71t15.5 83q0 44 -13.5 81t-39 64t-63.5 42.5t-86 15.5q-66 0 -113.5 -26t-68.5 -75q1 65 11 119t33 92.5t61.5 59.5t95.5 21q42 0 78 -10.5t65 -23.5l18 67q-29 14 -70.5 25t-97.5 11
q-80 0 -133 -30t-85 -82.5t-45.5 -123t-13.5 -151.5zM141 210q0 30 11.5 55.5t32 43.5t49 28.5t62.5 10.5q66 0 102 -38t36 -102q0 -32 -9 -60t-27 -48.5t-45 -32t-63 -11.5q-40 0 -68.5 13.5t-46.5 35t-26 49t-8 56.5z" />
    <glyph glyph-name="seven" unicode="7" horiz-adv-x="469" 
d="M87 0h90l269 595v71h-413v-70h332z" />
    <glyph glyph-name="eight" unicode="8" horiz-adv-x="567" 
d="M50 182q0 -39 15.5 -73.5t45.5 -61t73 -42t99 -15.5t99.5 15.5t73.5 42t45.5 61t15.5 73.5q0 60 -33 102.5t-95 63.5q51 24 77 65t26 91q0 38 -14.5 70t-41.5 54.5t-66 35t-87 12.5t-86.5 -12.5t-65.5 -35t-41.5 -54.5t-14.5 -70q0 -50 26 -91t77 -65q-62 -21 -95 -63.5
t-33 -102.5zM283 375q-31 0 -55 9.5t-40 26t-24.5 38.5t-8.5 47q0 51 34 82.5t94 31.5t94 -31.5t34 -82.5q0 -25 -8 -47t-24.5 -38.5t-40.5 -26t-55 -9.5zM133 187q0 52 39 88t111 36t111.5 -36t39.5 -88q0 -60 -40 -95.5t-111 -35.5t-110.5 35.5t-39.5 95.5z" />
    <glyph glyph-name="nine" unicode="9" horiz-adv-x="556" 
d="M61 26q29 -14 71 -25t97 -11q80 0 133 30.5t85 83t45.5 123t13.5 150.5q0 140 -60.5 219.5t-178.5 79.5q-56 0 -98.5 -18.5t-71.5 -49t-43.5 -71t-14.5 -84.5q0 -45 14 -82t40.5 -64t63.5 -42t84 -15q66 0 111 26.5t70 74.5q-2 -65 -11.5 -119t-31.5 -92.5t-59.5 -60
t-95.5 -21.5q-43 0 -79 10t-65 24zM260 318q-74 0 -106.5 38t-32.5 102q0 32 9 60t27.5 48.5t45.5 32t63 11.5t64 -12t47 -33t29 -48.5t10 -57.5q0 -31 -11.5 -57t-32.5 -44.5t-49.5 -29t-62.5 -10.5z" />
    <glyph glyph-name="colon" unicode=":" horiz-adv-x="249" 
d="M124 286q27 0 43 16t16 42t-16 42.5t-43 16.5t-43 -16.5t-16 -42.5t16 -42t43 -16zM65 52q0 -26 16 -42.5t43 -16.5t43 16.5t16 42.5t-16 42t-43 16t-43 -16t-16 -42z" />
    <glyph glyph-name="semicolon" unicode=";" horiz-adv-x="266" 
d="M139 282q28 0 45 17.5t17 43.5t-17 43t-45 17q-27 0 -44 -17t-17 -43t17 -43.5t44 -17.5zM87 112l-60 -252h66l96 252h-102z" />
    <glyph glyph-name="less" unicode="&#x3c;" horiz-adv-x="544" 
d="M48 290l443 -200v78l-352 155l352 155v78l-443 -200v-66z" />
    <glyph glyph-name="equal" unicode="=" horiz-adv-x="549" 
d="M53 395h443v72h-443v-72zM53 179h443v72h-443v-72z" />
    <glyph glyph-name="greater" unicode="&#x3e;" horiz-adv-x="544" 
d="M53 90l443 200v66l-443 200v-78l351 -155l-351 -155v-78z" />
    <glyph glyph-name="question" unicode="?" horiz-adv-x="448" 
d="M140 176h77v27q0 27 3.5 45.5t12 33.5t22 28.5t33.5 30.5q27 22 48.5 42.5t37 41.5t23.5 45t8 54q0 74 -51 113t-138 39q-50 0 -93.5 -10.5t-74.5 -26.5l15 -66q32 14 67.5 23.5t75.5 9.5q51 0 82 -20t31 -65q0 -21 -6.5 -37.5t-18.5 -31.5t-29 -29.5l-38 -31.5
q-23 -18 -39.5 -35t-27 -37.5t-15.5 -45.5t-5 -60v-37zM119 52q0 -26 16 -42.5t43 -16.5q28 0 43.5 16.5t15.5 42.5t-15.5 42t-43.5 16q-27 0 -43 -16t-16 -42z" />
    <glyph glyph-name="at" unicode="@" horiz-adv-x="777" 
d="M42 260q0 -73 23 -135t67.5 -107t109.5 -70t148 -25q70 0 140.5 17t124.5 45l-18 48q-49 -25 -112.5 -41.5t-128.5 -16.5q-69 0 -123.5 20t-92 57t-57 90.5t-19.5 119.5q0 75 24.5 136.5t67 104.5t100 66.5t122.5 23.5q57 0 104.5 -16.5t82 -47t54 -73.5t19.5 -97
q0 -36 -7.5 -68.5t-22 -56.5t-35.5 -38t-48 -14q-35 0 -49 17.5t-14 48.5q0 12 3 30l27 151q-22 11 -50 17.5t-58 6.5q-46 0 -80 -17.5t-56 -47t-32.5 -69t-10.5 -82.5q0 -20 5 -39t14.5 -33.5t25 -23t36.5 -8.5q42 0 71 28t49 72q-2 -42 28.5 -71t84.5 -29q42 0 75.5 18
t57 49t35.5 72.5t12 88.5q0 60 -21.5 111.5t-63 90t-100.5 60t-134 21.5q-83 0 -152.5 -27t-119.5 -77t-78 -121t-28 -159zM347 187q-21 0 -28.5 17t-7.5 40q0 31 6.5 59.5t20.5 50t34.5 34t49.5 12.5q22 0 37 -6l-8 -42q-6 -35 -16 -65t-23.5 -52t-29.5 -35t-35 -13z" />
    <glyph glyph-name="A" unicode="A" horiz-adv-x="625" 
d="M17 0h89l61 175h291l62 -175h89l-248 666h-97zM313 596l120 -347h-240z" />
    <glyph glyph-name="B" unicode="B" horiz-adv-x="604" 
d="M78 0h275q48 0 86.5 13t66.5 36.5t43 57t15 74.5q0 68 -40 108t-104 51q62 21 92.5 64.5t30.5 100.5q0 74 -48 117.5t-140 43.5h-277v-666zM164 371v225h171q60 0 91 -28t31 -76q0 -25 -8.5 -47t-25 -38.5t-41 -26t-55.5 -9.5h-163zM164 70v231h170q72 0 107.5 -30.5
t35.5 -82.5t-32.5 -85t-101.5 -33h-179z" />
    <glyph glyph-name="C" unicode="C" horiz-adv-x="593" 
d="M131 333q0 128 68 198t191 70q45 0 82 -8t69 -20l14 71q-29 14 -77 24t-104 10q-77 0 -138 -24.5t-104 -69.5t-66 -108.5t-23 -142.5t23 -142.5t66 -108.5t104 -69.5t138 -24.5q56 0 104 10t77 24l-14 71q-32 -12 -69 -20t-82 -8q-123 0 -191 70t-68 198z" />
    <glyph glyph-name="D" unicode="D" horiz-adv-x="673" 
d="M79 0h237q70 0 128.5 24.5t101 68.5t66 105t23.5 135t-23.5 135t-66 105t-101 68.5t-128.5 24.5h-237v-666zM168 76v514h145q48 0 91 -16.5t74.5 -48.5t50 -80.5t18.5 -111.5t-18.5 -111.5t-50 -80.5t-74.5 -48.5t-91 -16.5h-145z" />
    <glyph glyph-name="E" unicode="E" horiz-adv-x="556" 
d="M78 0h430v76h-342v227h319v76h-319v211h341v76h-429v-666z" />
    <glyph glyph-name="F" unicode="F" horiz-adv-x="530" 
d="M78 0h88v282h315v77h-315v231h338v76h-426v-666z" />
    <glyph glyph-name="G" unicode="G" horiz-adv-x="654" 
d="M43 331q0 -74 22 -136.5t65.5 -108.5t109 -72t151.5 -26q27 0 55 2.5t54.5 6.5t49.5 9.5t41 11.5v280h-84v-226q-24 -5 -55.5 -8.5t-62.5 -3.5q-124 0 -191 71t-67 199q0 134 68.5 203t196.5 69q53 0 98.5 -9.5t87.5 -23.5l13 73q-86 36 -206 36q-84 0 -148.5 -25
t-108.5 -71t-66.5 -109.5t-22.5 -141.5z" />
    <glyph glyph-name="H" unicode="H" horiz-adv-x="671" 
d="M78 0h88v301h339v-301h88v666h-88v-287h-339v287h-88v-666z" />
    <glyph glyph-name="I" unicode="I" 
d="M83 0h88v666h-88v-666z" />
    <glyph glyph-name="J" unicode="J" horiz-adv-x="373" 
d="M14 7q23 -8 54 -12.5t58 -4.5q87 0 128.5 48t41.5 129v499h-88v-500q0 -48 -21.5 -75t-76.5 -27q-20 0 -42.5 3.5t-42.5 8.5z" />
    <glyph glyph-name="K" unicode="K" horiz-adv-x="591" 
d="M78 0h88v324l295 -324h114l-317 342l313 324h-114l-291 -306v306h-88v-666z" />
    <glyph glyph-name="L" unicode="L" horiz-adv-x="510" 
d="M78 0h408v76h-320v590h-88v-666z" />
    <glyph glyph-name="M" unicode="M" horiz-adv-x="800" 
d="M722 666h-87l-235 -503l-235 503h-87v-666h83v500l194 -416h90l194 416v-500h83v666z" />
    <glyph glyph-name="N" unicode="N" horiz-adv-x="693" 
d="M78 0h85v529l365 -529h87v666h-85v-529l-365 529h-87v-666z" />
    <glyph glyph-name="O" unicode="O" horiz-adv-x="692" 
d="M43 333q0 -69 18.5 -132t56 -110t94.5 -75t134 -28t134 28t94.5 75t56 110t18.5 132t-18.5 132t-56 110t-94.5 75t-134 28t-134 -28t-94.5 -75t-56 -110t-18.5 -132zM346 61q-56 0 -96.5 20t-66.5 56t-39 86t-13 110t13 110t39 86t66.5 56t96.5 20q55 0 96 -20t67 -56
t39 -86t13 -110t-13 -110t-39 -86t-67 -56t-96 -20z" />
    <glyph glyph-name="P" unicode="P" horiz-adv-x="586" 
d="M78 0h88v264h180q51 0 90.5 16t66.5 43.5t41 64t14 77.5q0 42 -14 78.5t-41 63.5t-66.5 43t-90.5 16h-268v-666zM166 336v258h170q63 0 98 -34.5t35 -94.5t-35 -94.5t-98 -34.5h-170z" />
    <glyph glyph-name="Q" unicode="Q" horiz-adv-x="692" 
d="M542 -106l63 38l-72 117q59 48 87.5 122t28.5 162q0 69 -18.5 132t-56 110t-94.5 75t-134 28t-134 -28t-94.5 -75t-56 -110t-18.5 -132t18.5 -132t56 -110t94.5 -75t134 -28q68 0 123 23zM346 61q-56 0 -96.5 20t-66.5 56t-39 86t-13 110t13 110t39 86t66.5 56t96.5 20
q55 0 96 -20t67 -56t39 -86t13 -110q0 -69 -17 -125t-53 -92l-53 87l-59 -37l54 -89q-36 -16 -87 -16z" />
    <glyph glyph-name="R" unicode="R" horiz-adv-x="645" 
d="M573 469q0 43 -13.5 79t-40.5 62t-67 41t-92 15h-282v-666h88v271h163l174 -271h106l-188 279q71 19 111.5 70t40.5 120zM484 469q0 -58 -36 -92.5t-100 -34.5h-182v252h182q65 0 100.5 -32.5t35.5 -92.5z" />
    <glyph glyph-name="S" unicode="S" horiz-adv-x="560" 
d="M523 178q0 46 -18 78t-49 54.5t-72 38t-86 28.5q-43 12 -74.5 22.5t-52 23.5t-30.5 31.5t-10 46.5q0 59 40.5 82t114.5 23q53 0 103.5 -12.5t92.5 -30.5l17 71q-46 21 -98 32.5t-116 11.5q-113 0 -176.5 -43.5t-63.5 -138.5q0 -78 54.5 -122t164.5 -71q87 -22 130 -50.5
t43 -83.5q0 -56 -42.5 -82t-113.5 -26q-54 0 -109.5 13.5t-104.5 33.5l-20 -71q52 -21 113 -35t121 -14q113 0 177.5 50t64.5 140z" />
    <glyph glyph-name="T" unicode="T" horiz-adv-x="532" 
d="M511 590v76h-490v-76h201v-590h88v590h201z" />
    <glyph glyph-name="U" unicode="U" horiz-adv-x="675" 
d="M599 666h-88v-437q0 -78 -45.5 -122.5t-128.5 -44.5t-128 44.5t-45 122.5v437h-88v-430q0 -50 16.5 -94.5t49 -79t81.5 -54.5t114 -20t114 20t82 54.5t49.5 79t16.5 94.5v430z" />
    <glyph glyph-name="V" unicode="V" horiz-adv-x="573" 
d="M236 0h102l225 666h-88l-188 -571l-189 571h-88z" />
    <glyph glyph-name="W" unicode="W" horiz-adv-x="855" 
d="M477 666h-98l-150 -534l-134 534h-87l180 -666h82l158 582l157 -582h83l179 666h-86l-135 -534z" />
    <glyph glyph-name="X" unicode="X" horiz-adv-x="588" 
d="M559 666h-96l-169 -259l-169 259h-96l218 -328l-224 -338h95l176 268l176 -268h95l-224 338z" />
    <glyph glyph-name="Y" unicode="Y" horiz-adv-x="547" 
d="M537 666h-92l-171 -319l-171 319h-93l220 -397v-269h88v269z" />
    <glyph glyph-name="Z" unicode="Z" horiz-adv-x="573" 
d="M525 0v76h-377l368 512v78h-452v-76h357l-368 -512v-78h472z" />
    <glyph glyph-name="bracketleft" unicode="[" horiz-adv-x="301" 
d="M273 -150v74h-104v740h104v74h-190v-888h190z" />
    <glyph glyph-name="backslash" unicode="\" horiz-adv-x="446" 
d="M315 -100h83l-272 776h-83z" />
    <glyph glyph-name="bracketright" unicode="]" horiz-adv-x="301" 
d="M218 -150v888h-190v-74h104v-740h-104v-74h190z" />
    <glyph glyph-name="asciicircum" unicode="^" horiz-adv-x="476" 
d="M277 666h-78l-159 -329h79l119 258l119 -258h78z" />
    <glyph glyph-name="underscore" unicode="_" horiz-adv-x="409" 
d="M410 -122v44h-411v-44h411z" />
    <glyph glyph-name="grave" unicode="`" horiz-adv-x="324" 
d="M166 543h81l-62 152h-107z" />
    <glyph glyph-name="a" unicode="a" horiz-adv-x="512" 
d="M446 0v329q0 81 -47.5 120t-141.5 39q-95 0 -176 -38l15 -68q35 16 72 24.5t78 8.5q58 0 86 -22t28 -70v-44h-144q-37 0 -68 -9t-53 -27t-34.5 -46t-12.5 -66q0 -65 39 -103t110 -38q57 0 99.5 23.5t67.5 67.5v-81h82zM360 187q0 -28 -10.5 -53t-29 -43.5t-43.5 -29
t-55 -10.5q-44 0 -67.5 20t-23.5 61q0 85 97 85h132v-30z" />
    <glyph glyph-name="b" unicode="b" horiz-adv-x="546" 
d="M507 239q0 52 -11 97.5t-34 79t-59 53t-86 19.5q-58 0 -97 -27.5t-61 -74.5v280h-86v-666h83v91q21 -45 62 -73t100 -28q49 0 85 19.5t59 53t34 79t11 97.5zM421 239q0 -39 -7 -72t-22 -57t-39 -37.5t-58 -13.5q-35 0 -60.5 14.5t-42 39t-25 57t-8.5 69.5t8.5 69.5t25 57
t42 39t60.5 14.5q34 0 58 -13.5t39 -37.5t22 -57t7 -72z" />
    <glyph glyph-name="c" unicode="c" horiz-adv-x="439" 
d="M407 458q-25 14 -62.5 22t-77.5 8q-112 0 -170 -66t-58 -183t58 -183t170 -66q40 0 77.5 7.5t62.5 21.5l-14 65q-23 -11 -52 -17.5t-61 -6.5q-43 0 -72.5 13t-48 36.5t-26.5 56.5t-8 73t8 73t26.5 56.5t48 36.5t72.5 13q32 0 61 -6.5t52 -17.5z" />
    <glyph glyph-name="d" unicode="d" horiz-adv-x="546" 
d="M39 239q0 -52 11 -97.5t34 -79t58.5 -53t85.5 -19.5q59 0 99.5 27.5t62.5 73.5v-91h83v666h-86v-280q-22 47 -61 74.5t-97 27.5q-50 0 -86 -19.5t-59 -53t-34 -79t-11 -97.5zM125 239q0 39 7 72t22 57t39 37.5t58 13.5t60 -14.5t42.5 -39t25 -57t8.5 -69.5t-8.5 -69.5
t-25 -57t-42.5 -39t-60 -14.5t-58 13.5t-39 37.5t-22 57t-7 72z" />
    <glyph glyph-name="e" unicode="e" horiz-adv-x="487" 
d="M451 209v53q0 49 -10.5 90.5t-33.5 71.5t-59 47t-88 17q-55 0 -96.5 -18.5t-69 -51.5t-41 -78.5t-13.5 -100.5t14 -100.5t42.5 -78.5t72.5 -51.5t104 -18.5q51 0 95 10t77 27l-14 60q-32 -14 -68.5 -23.5t-77.5 -9.5q-83 0 -118.5 41t-39.5 114h324zM259 427
q30 0 51 -10.5t34 -29.5t19 -45.5t6 -57.5v-12h-242q5 78 37 116.5t95 38.5z" />
    <glyph glyph-name="f" unicode="f" horiz-adv-x="298" 
d="M300 664q-15 5 -33.5 8.5t-41.5 3.5q-70 0 -102 -35.5t-32 -110.5v-52h-64v-69h64v-409h86v409h98v69h-98v51q0 43 15.5 61t50.5 18q12 0 26.5 -2t25.5 -5z" />
    <glyph glyph-name="g" unicode="g" horiz-adv-x="546" 
d="M473 478h-84v-91q-23 51 -63.5 76t-94.5 25q-51 0 -87.5 -20t-60 -53t-34 -76.5t-10.5 -90.5t10.5 -90t33.5 -76t59.5 -53t88.5 -20q54 0 94 27t63 74v-90q0 -32 -6.5 -57.5t-22 -44.5t-42.5 -29t-67 -10t-79 8.5t-75 22.5l-13 -66q18 -7 39 -13t43 -10t44 -6.5t42 -2.5
q60 0 102 16.5t69 45t39 67t12 82.5v455zM388 248q0 -36 -9 -67.5t-26.5 -54t-42 -35.5t-55.5 -13q-66 0 -98 47t-32 123q0 75 32.5 123.5t97.5 48.5q32 0 56.5 -13t41.5 -36t26 -54.5t9 -68.5z" />
    <glyph glyph-name="h" unicode="h" horiz-adv-x="540" 
d="M472 0v325q0 77 -36.5 120t-117.5 43q-60 0 -99.5 -29t-59.5 -77v284h-86v-666h86v256q0 75 37 116.5t94 41.5q49 0 72.5 -26.5t23.5 -75.5v-312h86z" />
    <glyph glyph-name="i" unicode="i" horiz-adv-x="232" 
d="M58 607q0 -23 15.5 -40.5t42.5 -17.5q26 0 41.5 17.5t15.5 40.5t-15.5 40.5t-41.5 17.5q-27 0 -42.5 -17.5t-15.5 -40.5zM159 0v478h-86v-478h86z" />
    <glyph glyph-name="j" unicode="j" horiz-adv-x="231" 
d="M58 607q0 -23 15.5 -40.5t42.5 -17.5q26 0 41.5 17.5t15.5 40.5t-15.5 40.5t-41.5 17.5q-27 0 -42.5 -17.5t-15.5 -40.5zM20 -115q-11 0 -22 1t-22 4l-6 -68q14 -5 32.5 -7.5t35.5 -2.5q63 0 92 32t29 91v543h-86v-534q0 -29 -11.5 -44t-41.5 -15z" />
    <glyph glyph-name="k" unicode="k" horiz-adv-x="473" 
d="M361 0h102l-220 245l211 233h-103l-192 -219v407h-86v-666h86v230z" />
    <glyph glyph-name="l" unicode="l" horiz-adv-x="271" 
d="M246 2l-3 65q-9 -2 -18 -3.5t-20 -1.5q-27 0 -37.5 14.5t-10.5 40.5v549h-86v-549q0 -57 23.5 -90.5t83.5 -33.5q20 0 38 2.5t30 6.5z" />
    <glyph glyph-name="m" unicode="m" horiz-adv-x="827" 
d="M459 0v250q0 75 32.5 119.5t86.5 44.5q48 0 71.5 -26.5t23.5 -75.5v-312h86v325q0 76 -36 119.5t-117 43.5q-61 0 -98.5 -31.5t-54.5 -76.5q-15 51 -48 79.5t-97 28.5q-57 0 -95 -30t-57 -78v98h-83v-478h86v256q0 75 32.5 116.5t86.5 41.5q48 0 71.5 -26.5t23.5 -75.5
v-312h86z" />
    <glyph glyph-name="n" unicode="n" horiz-adv-x="540" 
d="M472 0v325q0 77 -36.5 120t-117.5 43q-62 0 -102 -30.5t-60 -77.5v98h-83v-478h86v256q0 75 37 116.5t94 41.5q49 0 72.5 -26.5t23.5 -75.5v-312h86z" />
    <glyph glyph-name="o" unicode="o" horiz-adv-x="515" 
d="M475 239q0 53 -13.5 98.5t-40.5 79t-68 52.5t-95 19t-95 -19t-68.5 -52.5t-41 -79t-13.5 -98.5t13.5 -98.5t41 -79t68.5 -52.5t95 -19t95 19t68 52.5t40.5 79t13.5 98.5zM389 239q0 -84 -31.5 -133t-99.5 -49t-100 49.5t-32 132.5t32 132.5t100 49.5t99.5 -49t31.5 -133z
" />
    <glyph glyph-name="p" unicode="p" horiz-adv-x="546" 
d="M317 -10q50 0 86 19.5t59 53t34 79t11 97.5t-11 97.5t-34 79t-59 53t-85 19.5q-59 0 -99.5 -27.5t-62.5 -74.5v92h-83v-656h86v269q22 -46 61 -73.5t97 -27.5zM295 59q-35 0 -60.5 14.5t-42 39t-25 57t-8.5 69.5t8.5 69.5t25 57t42 39t60.5 14.5q34 0 58 -13.5t39 -37.5
t22 -57t7 -72t-7 -72t-22 -57t-39 -37.5t-58 -13.5z" />
    <glyph glyph-name="q" unicode="q" horiz-adv-x="546" 
d="M39 239q0 -52 11 -97.5t34 -79t59 -53t86 -19.5q58 0 97 27.5t61 73.5v-269h86v656h-83v-92q-22 47 -62.5 74.5t-99.5 27.5q-50 0 -85.5 -19.5t-58.5 -53t-34 -79t-11 -97.5zM125 239q0 39 7 72t22 57t39 37.5t58 13.5t60 -14.5t42.5 -39t25 -57t8.5 -69.5t-8.5 -69.5
t-25 -57t-42.5 -39t-60 -14.5t-58 13.5t-39 37.5t-22 57t-7 72z" />
    <glyph glyph-name="r" unicode="r" horiz-adv-x="337" 
d="M334 401v77q-10 3 -21 4t-22 1q-57 0 -88 -30.5t-45 -78.5v104h-85v-478h87v239q0 35 8 65.5t24.5 52.5t41.5 34.5t58 12.5q11 0 22 -0.5t20 -2.5z" />
    <glyph glyph-name="s" unicode="s" horiz-adv-x="426" 
d="M393 138q0 31 -12 53t-33 38.5t-50 28t-63 21.5q-30 9 -51 16t-35 15.5t-20.5 20t-6.5 29.5q0 35 25 49t71 14q40 0 77 -9t67 -21l16 62q-32 14 -72 23.5t-90 9.5q-85 0 -131.5 -33t-46.5 -105q0 -56 39.5 -89t131.5 -58q55 -15 77.5 -31t22.5 -47q0 -70 -96 -70
q-39 0 -77.5 9.5t-76.5 24.5l-19 -63q42 -17 87 -26.5t87 -9.5q83 0 131 38.5t48 109.5z" />
    <glyph glyph-name="t" unicode="t" horiz-adv-x="333" 
d="M298 3l-2 64q-12 -3 -25 -5t-26 -2q-35 0 -47 14.5t-12 43.5v287h113v73h-113v125h-86v-125h-67v-73h67v-294q0 -60 28 -90t92 -30q21 0 42.5 3.5t35.5 8.5z" />
    <glyph glyph-name="u" unicode="u" horiz-adv-x="535" 
d="M68 478v-326q0 -75 36 -118.5t114 -43.5q61 0 100.5 30.5t59.5 76.5v-97h84v478h-86v-256q0 -75 -36.5 -116.5t-92.5 -41.5q-48 0 -70.5 26.5t-22.5 75.5v312h-86z" />
    <glyph glyph-name="v" unicode="v" horiz-adv-x="437" 
d="M219 83l-127 395h-88l166 -478h97l166 478h-88z" />
    <glyph glyph-name="w" unicode="w" horiz-adv-x="694" 
d="M393 478h-93l-110 -381l-101 381h-83l140 -478h85l116 398l115 -398h85l141 478h-84l-100 -381z" />
    <glyph glyph-name="x" unicode="x" horiz-adv-x="453" 
d="M424 478h-90l-108 -169l-107 169h-90l154 -233l-163 -245h91l115 181l116 -181h91l-164 245z" />
    <glyph glyph-name="y" unicode="y" horiz-adv-x="429" 
d="M216 90l-123 388h-89l170 -480l-59 -176h86l224 656h-89z" />
    <glyph glyph-name="z" unicode="z" horiz-adv-x="448" 
d="M408 0v69h-267l262 340v69h-344v-69h245l-259 -340v-69h363z" />
    <glyph glyph-name="braceleft" unicode="{" horiz-adv-x="320" 
d="M197 170q0 54 -23 84.5t-76 39.5q53 9 76 39.5t23 84.5v183q0 32 13.5 47.5t44.5 15.5h42v74h-63q-60 0 -91.5 -31.5t-31.5 -95.5v-200q0 -36 -18.5 -58.5t-63.5 -22.5h-17v-72h17q45 0 63.5 -22.5t18.5 -58.5v-200q0 -64 31.5 -95.5t91.5 -31.5h63v74h-42
q-31 0 -44.5 15.5t-13.5 47.5v183z" />
    <glyph glyph-name="bar" unicode="|" horiz-adv-x="249" 
d="M161 -250v1000h-73v-1000h73z" />
    <glyph glyph-name="braceright" unicode="}" horiz-adv-x="320" 
d="M123 -13q0 -63 -58 -63h-43v-74h64q60 0 91.5 31.5t31.5 95.5v200q0 36 18.5 58.5t63.5 22.5h16v72h-16q-45 0 -63.5 22.5t-18.5 58.5v200q0 64 -31.5 95.5t-91.5 31.5h-64v-74h43q58 0 58 -63v-183q0 -54 23 -84.5t76 -39.5q-53 -9 -76 -39.5t-23 -84.5v-183z" />
    <glyph glyph-name="asciitilde" unicode="~" horiz-adv-x="548" 
d="M505 379l-72 22q-5 -14 -9 -26.5t-10 -23t-15 -16.5t-24 -6q-18 0 -41 11l-49 24t-53.5 24t-53.5 11q-28 0 -48.5 -8.5t-35.5 -25t-26 -40t-20 -53.5l72 -25q4 13 9 25.5t12 22.5t17.5 16t26.5 6q21 0 45.5 -11l50.5 -23.5t52.5 -23.5t52.5 -11q25 0 44.5 12t34 30.5
t24.5 42t16 46.5z" />
    <glyph glyph-name="uni00A0" unicode="&#xa0;" horiz-adv-x="220" 
 />
    <glyph glyph-name="exclamdown" unicode="&#xa1;" horiz-adv-x="249" 
d="M65 429q0 -26 16 -42t43 -16t43 16t16 42t-16 42.5t-43 16.5t-43 -16.5t-16 -42.5zM148 301h-48l-21 -234v-245h91v245z" />
    <glyph glyph-name="cent" unicode="&#xa2;" horiz-adv-x="459" 
d="M224 -10h85v117q31 3 57.5 11t46.5 17l-16 64q-23 -11 -52 -18t-64 -7q-81 0 -116.5 43.5t-35.5 116.5t35.5 116.5t116.5 43.5q35 0 64 -7t52 -18l16 64q-25 11 -50 18.5t-54 9.5v115h-85v-116q-87 -13 -133 -71t-46 -155t46 -155.5t133 -70.5v-118z" />
    <glyph glyph-name="sterling" unicode="&#xa3;" horiz-adv-x="534" 
d="M54 278h100q-4 -68 -31 -118.5t-78 -95.5v-64h435v70h-336q39 38 65.5 90t30.5 118h181v70h-180v130q0 69 29 98.5t90 29.5q37 0 69.5 -8t59.5 -19l15 67q-29 14 -67.5 22t-83.5 8q-97 0 -147.5 -49.5t-50.5 -149.5v-129h-101v-70z" />
    <glyph glyph-name="currency" unicode="&#xa4;" horiz-adv-x="575" 
d="M393 499q-21 14 -48.5 21.5t-57.5 7.5t-57 -7.5t-48 -21.5l-88 88l-51 -49l82 -84q-23 -27 -35.5 -59t-12.5 -72t12.5 -72.5t35.5 -59.5l-82 -83l51 -49l88 87q47 -28 105 -28q59 0 106 28l88 -87l51 49l-83 83q23 27 35.5 59.5t12.5 72.5t-12.5 72t-35.5 59l83 84
l-51 49zM151 323q0 30 9.5 56.5t27 46t42.5 31t57 11.5t57.5 -11.5t43 -31t27 -46t9.5 -56.5t-9.5 -56.5t-27 -46t-43 -31t-57.5 -11.5t-57 11.5t-42.5 31t-27 46t-9.5 56.5z" />
    <glyph glyph-name="yen" unicode="&#xa5;" horiz-adv-x="521" 
d="M60 164h158v-164h86v164h157v63h-157v35l33 74h124v65h-95l120 265h-89l-136 -332l-137 332h-89l120 -265h-95v-65h124l34 -74v-35h-158v-63z" />
    <glyph glyph-name="brokenbar" unicode="&#xa6;" horiz-adv-x="249" 
d="M161 750h-73v-395h73v395zM161 -250v395h-73v-395h73z" />
    <glyph glyph-name="section" unicode="&#xa7;" horiz-adv-x="529" 
d="M483 244q0 37 -17 64.5t-44.5 48t-62 36.5t-69.5 30q-33 13 -59 24.5t-43 23.5t-26 27t-9 37q0 43 32 60t95 17q45 0 88.5 -10.5t75.5 -24.5l15 63q-40 17 -83.5 26.5t-96.5 9.5q-97 0 -152.5 -35.5t-55.5 -107.5q0 -44 20.5 -72.5t55.5 -51.5q-18 -11 -35 -24.5t-30 -31
t-21 -39.5t-8 -50q0 -36 12 -62.5t34.5 -47.5t56 -38t76.5 -34l65.5 -27t48 -25t29.5 -28.5t10 -37.5q0 -46 -37.5 -67t-96.5 -21q-92 0 -185 44l-19 -62q46 -22 99.5 -34t110.5 -12q44 0 82.5 11t67 31.5t44.5 49t16 64.5q0 43 -21.5 71.5t-56.5 50.5q18 12 35 29t30 36.5
t21 42t8 46.5zM243 363q36 -14 65 -27t49.5 -27t32 -32t11.5 -43q0 -38 -21.5 -67t-47.5 -47q-17 8 -33.5 14.5l-33.5 13.5q-34 13 -58.5 25.5t-40.5 26t-23.5 30.5t-7.5 40q0 39 22.5 64t47.5 45q9 -5 18.5 -8.5z" />
    <glyph glyph-name="dieresis" unicode="&#xa8;" horiz-adv-x="444" 
d="M261 612q0 -22 14.5 -37t38.5 -15t38 15t14 37t-14 36.5t-38 14.5t-38.5 -14.5t-14.5 -36.5zM78 612q0 -22 14.5 -37t37.5 -15q25 0 39 15t14 37t-14 36.5t-39 14.5q-23 0 -37.5 -14.5t-14.5 -36.5z" />
    <glyph glyph-name="copyright" unicode="&#xa9;" horiz-adv-x="769" 
d="M38 333q0 -71 25 -133.5t70.5 -109.5t109.5 -74.5t141 -27.5q78 0 141.5 27.5t109.5 74.5t71 109.5t25 133.5t-25 134t-71 110t-109.5 74t-141.5 27q-77 0 -141 -27t-109.5 -74t-70.5 -110t-25 -134zM693 333q0 -63 -22 -119.5t-62.5 -99t-97.5 -67.5t-127 -25
q-69 0 -126 25t-97.5 67.5t-62.5 99t-22 119.5t22 119.5t62.5 99t97.5 67.5t126 25q70 0 127 -25t97.5 -67.5t62.5 -99t22 -119.5zM409 529q-47 0 -83.5 -14.5t-61.5 -40.5t-37.5 -62t-12.5 -79t12.5 -79t37.5 -62t61.5 -40.5t83.5 -14.5q27 0 55 5.5t48 15.5l-10 48
q-40 -16 -87 -16q-69 0 -103.5 38.5t-34.5 104.5t34.5 104.5t103.5 38.5q23 0 45 -4t42 -12l10 48q-47 21 -103 21z" />
    <glyph glyph-name="ordfeminine" unicode="&#xaa;" horiz-adv-x="374" 
d="M317 354v216q0 56 -32.5 81t-94.5 25q-70 0 -118 -25l11 -50q23 11 48 17t52 6q37 0 54.5 -13t17.5 -45v-28h-93q-54 0 -83 -24t-29 -72q0 -45 26 -69.5t74 -24.5q41 0 69 18t39 44v-56h59zM255 475q0 -16 -6.5 -31t-17.5 -27t-27.5 -19t-35.5 -7q-30 0 -44.5 13.5
t-14.5 37.5q0 52 63 52h83v-19zM49 240h277v52h-277v-52z" />
    <glyph glyph-name="guillemotleft" unicode="&#xab;" horiz-adv-x="576" 
d="M531 447h-98l-165 -204l165 -205h98l-164 205zM293 447h-98l-165 -204l165 -205h98l-164 205z" />
    <glyph glyph-name="logicalnot" unicode="&#xac;" horiz-adv-x="549" 
d="M496 90v269h-443v-72h364v-197h79z" />
    <glyph glyph-name="registered" unicode="&#xae;" horiz-adv-x="527" 
d="M43 461q0 -44 15.5 -83.5t44.5 -69.5t69.5 -47.5t90.5 -17.5t90.5 17.5t69.5 47.5t45 69.5t16 83.5q0 45 -16 84.5t-45 69t-69.5 46.5t-90.5 17t-90.5 -17t-69.5 -46.5t-44.5 -69t-15.5 -84.5zM75 461q0 39 13.5 73.5t38 60t59 40.5t77.5 15t78 -15t59.5 -40.5t38 -60
t13.5 -73.5t-13.5 -74t-38 -60.5t-59.5 -40.5t-78 -15t-77.5 15t-59 40.5t-38 60.5t-13.5 74zM349 512q0 30 -20.5 47t-55.5 17h-81v-218h42v84h26l62 -84h50l-68 89q45 16 45 65zM307 509q0 -35 -38 -35h-35v68h36q37 0 37 -33z" />
    <glyph glyph-name="macron" unicode="&#xaf;" horiz-adv-x="421" 
d="M343 570v67h-265v-67h265z" />
    <glyph glyph-name="degree" unicode="&#xb0;" horiz-adv-x="335" 
d="M40 552q0 -25 8.5 -47.5t24.5 -39.5t40 -27t54 -10t54 10t40.5 27t25 39.5t8.5 47.5t-8.5 47.5t-25 39.5t-40.5 27t-54 10t-54 -10t-40 -27t-24.5 -39.5t-8.5 -47.5zM94 552q0 33 18.5 56.5t54.5 23.5q37 0 55.5 -23.5t18.5 -56.5t-18.5 -56t-55.5 -23q-36 0 -54.5 23
t-18.5 56z" />
    <glyph glyph-name="plusminus" unicode="&#xb1;" horiz-adv-x="549" 
d="M496 0v68h-182v184h182v71h-182v197h-79v-197h-182v-71h182v-184h-182v-68h443z" />
    <glyph glyph-name="twosuperior" unicode="&#xb2;" horiz-adv-x="359" 
d="M305 390v52h-192v4q0 16 8 29t21.5 24t30 21.5t33.5 22.5l36.5 25.5t33.5 27.5t25 34t10 44q0 49 -33 75t-95 26q-37 0 -66.5 -8t-52.5 -20l15 -51q18 10 43 18t52 8q32 0 52 -12t20 -40q0 -27 -25.5 -47.5t-62.5 -43.5q-24 -15 -44.5 -30.5t-35 -33.5t-22.5 -41.5
t-8 -54.5v-29h257z" />
    <glyph glyph-name="threesuperior" unicode="&#xb3;" horiz-adv-x="347" 
d="M299 494q0 36 -20 58t-55 31q35 13 52.5 38t17.5 59q0 43 -31 69t-91 26q-35 0 -61.5 -7t-52.5 -21l16 -49q17 9 38 16.5t49 7.5q31 0 49 -13.5t18 -39.5q0 -27 -21 -43.5t-60 -16.5h-54v-54h55q40 0 63 -15t23 -44q0 -28 -19 -43.5t-57 -15.5q-25 0 -49 5.5t-46 15.5
l-15 -47q26 -11 56.5 -18.5t59.5 -7.5q62 0 98.5 30.5t36.5 78.5z" />
    <glyph glyph-name="acute" unicode="&#xb4;" horiz-adv-x="324" 
d="M78 543h81l88 152h-108z" />
    <glyph glyph-name="mu" unicode="&#xb5;" horiz-adv-x="567" 
d="M73 478v-656h86v89q0 60 -25 103q17 -11 38.5 -17.5t46.5 -6.5q64 0 105.5 32t64.5 77q2 -44 26 -74.5t75 -30.5q14 0 28 2t22 6v53h-16q-19 0 -30 5.5t-17 16t-8 25t-2 32.5v344h-86v-256q0 -75 -37 -116.5t-92 -41.5q-52 0 -72.5 27.5t-20.5 74.5v312h-86z" />
    <glyph glyph-name="paragraph" unicode="&#xb6;" horiz-adv-x="536" 
d="M463 -140v806h-190q-51 0 -95 -16.5t-77 -47t-52 -75.5t-19 -102q0 -54 17 -98t49 -76t76.5 -49.5t100.5 -17.5v423h121v-747h69z" />
    <glyph glyph-name="periodcentered" unicode="&#xb7;" 
d="M68 273q0 -26 16 -42.5t43 -16.5t43 16.5t16 42.5t-16 42.5t-43 16.5t-43 -16.5t-16 -42.5z" />
    <glyph glyph-name="cedilla" unicode="&#xb8;" horiz-adv-x="310" 
d="M232 -108q0 17 -7.5 28.5t-20.5 18.5t-30 10t-36 4l10 47h-44l-20 -82l26.5 -2t24 -4t17 -8.5t6.5 -15.5t-7 -16t-18.5 -9.5t-25.5 -5t-29 -2.5l3 -43q31 1 59 6t48 14.5t32 24t12 35.5z" />
    <glyph glyph-name="onesuperior" unicode="&#xb9;" horiz-adv-x="238" 
d="M191 392v378h-56l-97 -19l5 -55l82 14v-318h66z" />
    <glyph glyph-name="ordmasculine" unicode="&#xba;" horiz-adv-x="386" 
d="M338 512q0 36 -9 66t-27.5 51.5t-45.5 34t-63 12.5t-63 -12.5t-45.5 -34t-27.5 -51.5t-9 -66t9 -66t27 -51.5t45.5 -34t63.5 -12.5t63.5 12.5t45.5 34t27 51.5t9 66zM276 512q0 -54 -20 -84.5t-63 -30.5t-63 30.5t-20 84.5q0 53 20 83.5t63 30.5t63 -30.5t20 -83.5z
M59 240h268v52h-268v-52z" />
    <glyph glyph-name="guillemotright" unicode="&#xbb;" horiz-adv-x="576" 
d="M381 447h-98l164 -204l-164 -205h98l165 205zM143 447h-98l164 -204l-164 -205h98l165 205z" />
    <glyph glyph-name="onequarter" unicode="&#xbc;" horiz-adv-x="766" 
d="M574 666h-69l-346 -666h70zM201 288v378h-56l-97 -19l5 -55l82 14v-318h66zM719 93v50h-49v236h-69l-179 -235v-51h185v-93h63v93h49zM607 143h-125l125 168v-168z" />
    <glyph glyph-name="onehalf" unicode="&#xbd;" horiz-adv-x="801" 
d="M574 666h-69l-346 -666h70zM201 288v378h-56l-97 -19l5 -55l82 14v-318h66zM747 0v52h-192v4q0 16 8 29t21.5 24t30 21.5t33.5 22.5l36.5 25.5t33.5 27.5t25 34t10 44q0 49 -33 75t-95 26q-37 0 -66.5 -8t-52.5 -20l15 -51q18 10 43 18t52 8q32 0 52 -12t20 -40
q0 -27 -25.5 -47.5t-62.5 -43.5q-24 -15 -44.5 -30.5t-35 -33.5t-22.5 -41.5t-8 -54.5v-29h257z" />
    <glyph glyph-name="threequarters" unicode="&#xbe;" horiz-adv-x="804" 
d="M611 666h-69l-346 -666h70zM756 93v50h-49v236h-69l-179 -235v-51h185v-93h63v93h49zM644 143h-125l125 168v-168zM297 390q0 36 -20 58t-55 31q35 13 52.5 38t17.5 59q0 43 -31 69t-91 26q-35 0 -61.5 -7t-52.5 -21l16 -49q17 9 38 16.5t49 7.5q31 0 49 -13.5t18 -39.5
q0 -27 -21 -43.5t-60 -16.5h-54v-54h55q40 0 63 -15t23 -44q0 -28 -19 -43.5t-57 -15.5q-25 0 -49 5.5t-46 15.5l-15 -47q26 -11 56.5 -18.5t59.5 -7.5q62 0 98.5 30.5t36.5 78.5z" />
    <glyph glyph-name="questiondown" unicode="&#xbf;" horiz-adv-x="448" 
d="M313 307h-77v-22q0 -27 -3.5 -45.5t-12 -33.5t-22 -29t-33.5 -30q-27 -22 -48.5 -42.5t-37 -41.5t-23.5 -45t-8 -54q0 -74 51 -113t138 -39q50 0 93.5 10.5t74.5 26.5l-15 66q-32 -14 -67.5 -23.5t-75.5 -9.5q-51 0 -82 20t-31 65q0 21 6.5 37.5t18.5 31.5t29 29.5
l38 31.5q23 18 39.5 35t27 37.5t15.5 45.5t5 60v32zM334 429q0 26 -16 42.5t-43 16.5q-28 0 -43.5 -16.5t-15.5 -42.5t15.5 -42t43.5 -16q27 0 43 16t16 42z" />
    <glyph glyph-name="Agrave" unicode="&#xc0;" horiz-adv-x="625" 
d="M17 0h89l61 175h291l62 -175h89l-248 666h-97zM313 596l120 -347h-240zM346 730l-83 132h-113l115 -132h81z" />
    <glyph glyph-name="Aacute" unicode="&#xc1;" horiz-adv-x="625" 
d="M17 0h89l61 175h291l62 -175h89l-248 666h-97zM313 596l120 -347h-240zM471 862h-113l-83 -132h82z" />
    <glyph glyph-name="Acircumflex" unicode="&#xc2;" horiz-adv-x="625" 
d="M17 0h89l61 175h291l62 -175h89l-248 666h-97zM313 596l120 -347h-240zM354 862h-83l-113 -132h83l72 85l73 -85h83z" />
    <glyph glyph-name="Atilde" unicode="&#xc3;" horiz-adv-x="625" 
d="M17 0h89l61 175h291l62 -175h89l-248 666h-97zM313 596l120 -347h-240zM426 849q-6 -17 -15 -31.5t-30 -14.5q-13 0 -29 7l-34 15t-37 15t-37 7q-41 0 -63 -23.5t-36 -67.5l58 -21q8 20 17 33.5t29 13.5q15 0 32.5 -7t36.5 -15.5t38 -15.5t36 -7q19 0 33 7t24.5 19.5
t18.5 29t15 35.5z" />
    <glyph glyph-name="Adieresis" unicode="&#xc4;" horiz-adv-x="625" 
d="M17 0h89l61 175h291l62 -175h89l-248 666h-97zM313 596l120 -347h-240zM358 794q0 -23 14 -37t38 -14q25 0 39 14t14 37t-14 37t-39 14q-24 0 -38 -14t-14 -37zM163 794q0 -23 14 -37t38 -14q25 0 39 14t14 37t-14 37t-39 14q-24 0 -38 -14t-14 -37z" />
    <glyph glyph-name="Aring" unicode="&#xc5;" horiz-adv-x="625" 
d="M406 726q0 34 -23 58.5t-70 24.5t-70 -24.5t-23 -58.5q0 -23 10.5 -40.5t30.5 -26.5l-244 -659h89l61 175h291l62 -175h89l-246 659q21 9 32 26.5t11 40.5zM264 726q0 23 13 35t36 12t36 -12t13 -35t-13 -35t-36 -12t-36 12t-13 35zM313 595l120 -346h-240z" />
    <glyph glyph-name="AE" unicode="&#xc6;" horiz-adv-x="850" 
d="M802 666h-537l-248 -666h89l62 176h289l63 -176h282v76h-227l-80 230h284v76h-311l-73 208h407v76zM313 598l120 -349h-240z" />
    <glyph glyph-name="Ccedilla" unicode="&#xc7;" horiz-adv-x="593" 
d="M460 -108q0 16 -7.5 27.5t-20 18.5t-29.5 10.5t-36 4.5l9 35q55 1 102.5 10.5t76.5 23.5l-14 71q-32 -12 -69 -20t-82 -8q-123 0 -191 70t-68 198t68 198t191 70q45 0 82 -8t69 -20l14 71q-29 14 -77 24t-104 10q-77 0 -138 -24.5t-104 -69.5t-66 -108.5t-23 -142.5
q0 -73 19.5 -133t56.5 -104t90 -71t120 -34l-21 -73l27 -2t25.5 -4t18.5 -8.5t7 -15.5t-7 -16t-18.5 -9.5t-25.5 -5t-29 -2.5l3 -43q31 1 59 6t48 14.5t32 24t12 35.5z" />
    <glyph glyph-name="Egrave" unicode="&#xc8;" horiz-adv-x="556" 
d="M354 730l-83 132h-113l115 -132h81zM78 0h430v76h-342v227h319v76h-319v211h341v76h-429v-666z" />
    <glyph glyph-name="Eacute" unicode="&#xc9;" horiz-adv-x="556" 
d="M78 0h430v76h-342v227h319v76h-319v211h341v76h-429v-666zM433 862h-113l-83 -132h82z" />
    <glyph glyph-name="Ecircumflex" unicode="&#xca;" horiz-adv-x="556" 
d="M338 862h-83l-113 -132h83l72 85l73 -85h83zM78 0h430v76h-342v227h319v76h-319v211h341v76h-429v-666z" />
    <glyph glyph-name="Edieresis" unicode="&#xcb;" horiz-adv-x="556" 
d="M78 0h430v76h-342v227h319v76h-319v211h341v76h-429v-666zM343 794q0 -23 14 -37t38 -14q25 0 39 14t14 37t-14 37t-39 14q-24 0 -38 -14t-14 -37zM148 794q0 -23 14 -37t38 -14q25 0 39 14t14 37t-14 37t-39 14q-24 0 -38 -14t-14 -37z" />
    <glyph glyph-name="Igrave" unicode="&#xcc;" 
d="M83 0h88v666h-88v-666zM168 730l-83 132h-113l115 -132h81z" />
    <glyph glyph-name="Iacute" unicode="&#xcd;" 
d="M83 0h88v666h-88v-666zM284 862h-113l-83 -132h82z" />
    <glyph glyph-name="Icircumflex" unicode="&#xce;" 
d="M83 0h88v666h-88v-666zM169 862h-83l-113 -132h83l72 85l73 -85h83z" />
    <glyph glyph-name="Idieresis" unicode="&#xcf;" 
d="M83 0h88v666h-88v-666zM174 794q0 -23 14 -37t38 -14q25 0 39 14t14 37t-14 37t-39 14q-24 0 -38 -14t-14 -37zM-21 794q0 -23 14 -37t38 -14q25 0 39 14t14 37t-14 37t-39 14q-24 0 -38 -14t-14 -37z" />
    <glyph glyph-name="Eth" unicode="&#xd0;" horiz-adv-x="689" 
d="M27 296h67v-296h237q70 0 128.5 24.5t101 68.5t66 105t23.5 135t-23.5 135t-66 105t-101 68.5t-128.5 24.5h-237v-295h-67v-75zM183 76v220h196v75h-196v219h145q48 0 91 -16.5t74.5 -48.5t50 -80.5t18.5 -111.5t-18.5 -111.5t-50 -80.5t-74.5 -48.5t-91 -16.5h-145z" />
    <glyph glyph-name="Ntilde" unicode="&#xd1;" horiz-adv-x="693" 
d="M459 849q-6 -17 -15 -31.5t-30 -14.5q-13 0 -29 7l-34 15t-37 15t-37 7q-41 0 -63 -23.5t-36 -67.5l58 -21q8 20 17 33.5t29 13.5q15 0 32.5 -7t36.5 -15.5t38 -15.5t36 -7q19 0 33 7t24.5 19.5t18.5 29t15 35.5zM78 0h85v529l365 -529h87v666h-85v-529l-365 529h-87
v-666z" />
    <glyph glyph-name="Ograve" unicode="&#xd2;" horiz-adv-x="692" 
d="M392 730l-83 132h-113l115 -132h81zM43 333q0 -69 18.5 -132t56 -110t94.5 -75t134 -28t134 28t94.5 75t56 110t18.5 132t-18.5 132t-56 110t-94.5 75t-134 28t-134 -28t-94.5 -75t-56 -110t-18.5 -132zM346 61q-56 0 -96.5 20t-66.5 56t-39 86t-13 110t13 110t39 86
t66.5 56t96.5 20q55 0 96 -20t67 -56t39 -86t13 -110t-13 -110t-39 -86t-67 -56t-96 -20z" />
    <glyph glyph-name="Oacute" unicode="&#xd3;" horiz-adv-x="692" 
d="M493 862h-113l-83 -132h82zM43 333q0 -69 18.5 -132t56 -110t94.5 -75t134 -28t134 28t94.5 75t56 110t18.5 132t-18.5 132t-56 110t-94.5 75t-134 28t-134 -28t-94.5 -75t-56 -110t-18.5 -132zM346 61q-56 0 -96.5 20t-66.5 56t-39 86t-13 110t13 110t39 86t66.5 56
t96.5 20q55 0 96 -20t67 -56t39 -86t13 -110t-13 -110t-39 -86t-67 -56t-96 -20z" />
    <glyph glyph-name="Ocircumflex" unicode="&#xd4;" horiz-adv-x="692" 
d="M387 862h-83l-113 -132h83l72 85l73 -85h83zM43 333q0 -69 18.5 -132t56 -110t94.5 -75t134 -28t134 28t94.5 75t56 110t18.5 132t-18.5 132t-56 110t-94.5 75t-134 28t-134 -28t-94.5 -75t-56 -110t-18.5 -132zM346 61q-56 0 -96.5 20t-66.5 56t-39 86t-13 110t13 110
t39 86t66.5 56t96.5 20q55 0 96 -20t67 -56t39 -86t13 -110t-13 -110t-39 -86t-67 -56t-96 -20z" />
    <glyph glyph-name="Otilde" unicode="&#xd5;" horiz-adv-x="692" 
d="M43 333q0 -69 18.5 -132t56 -110t94.5 -75t134 -28t134 28t94.5 75t56 110t18.5 132t-18.5 132t-56 110t-94.5 75t-134 28t-134 -28t-94.5 -75t-56 -110t-18.5 -132zM346 61q-56 0 -96.5 20t-66.5 56t-39 86t-13 110t13 110t39 86t66.5 56t96.5 20q55 0 96 -20t67 -56
t39 -86t13 -110t-13 -110t-39 -86t-67 -56t-96 -20zM458 849q-6 -17 -15 -31.5t-30 -14.5q-13 0 -29 7l-34 15t-37 15t-37 7q-41 0 -63 -23.5t-36 -67.5l58 -21q8 20 17 33.5t29 13.5q15 0 32.5 -7t36.5 -15.5t38 -15.5t36 -7q19 0 33 7t24.5 19.5t18.5 29t15 35.5z" />
    <glyph glyph-name="Odieresis" unicode="&#xd6;" horiz-adv-x="692" 
d="M43 333q0 -69 18.5 -132t56 -110t94.5 -75t134 -28t134 28t94.5 75t56 110t18.5 132t-18.5 132t-56 110t-94.5 75t-134 28t-134 -28t-94.5 -75t-56 -110t-18.5 -132zM346 61q-56 0 -96.5 20t-66.5 56t-39 86t-13 110t13 110t39 86t66.5 56t96.5 20q55 0 96 -20t67 -56
t39 -86t13 -110t-13 -110t-39 -86t-67 -56t-96 -20zM391 794q0 -23 14 -37t38 -14q25 0 39 14t14 37t-14 37t-39 14q-24 0 -38 -14t-14 -37zM196 794q0 -23 14 -37t38 -14q25 0 39 14t14 37t-14 37t-39 14q-24 0 -38 -14t-14 -37z" />
    <glyph glyph-name="multiply" unicode="&#xd7;" horiz-adv-x="526" 
d="M421 113l52 52l-159 158l158 157l-52 53l-157 -159l-158 159l-52 -52l158 -158l-158 -157l53 -53l157 159z" />
    <glyph glyph-name="Oslash" unicode="&#xd8;" horiz-adv-x="692" 
d="M43 333q0 -98 35.5 -179.5t110.5 -126.5l-46 -111h62l36 88q23 -8 49.5 -12t55.5 -4q77 0 134 28t94.5 75t56 110t18.5 132q0 48 -9 93.5t-27 85t-45.5 72t-64.5 54.5l47 112h-62l-37 -89q-48 17 -105 17q-77 0 -134 -28t-94.5 -75t-56 -110t-18.5 -132zM131 333
q0 60 13 110t39 86t66.5 56t96.5 20q22 0 41 -3.5t36 -9.5l-204 -492q-45 35 -66.5 95t-21.5 138zM346 61q-43 0 -76 12l203 492q45 -35 66.5 -95t21.5 -137q0 -60 -13 -110t-39 -86t-67 -56t-96 -20z" />
    <glyph glyph-name="Ugrave" unicode="&#xd9;" horiz-adv-x="675" 
d="M396 730l-83 132h-113l115 -132h81zM599 666h-88v-437q0 -78 -45.5 -122.5t-128.5 -44.5t-128 44.5t-45 122.5v437h-88v-430q0 -50 16.5 -94.5t49 -79t81.5 -54.5t114 -20t114 20t82 54.5t49.5 79t16.5 94.5v430z" />
    <glyph glyph-name="Uacute" unicode="&#xda;" horiz-adv-x="675" 
d="M599 666h-88v-437q0 -78 -45.5 -122.5t-128.5 -44.5t-128 44.5t-45 122.5v437h-88v-430q0 -50 16.5 -94.5t49 -79t81.5 -54.5t114 -20t114 20t82 54.5t49.5 79t16.5 94.5v430zM475 862h-113l-83 -132h82z" />
    <glyph glyph-name="Ucircumflex" unicode="&#xdb;" horiz-adv-x="675" 
d="M378 862h-83l-113 -132h83l72 85l73 -85h83zM599 666h-88v-437q0 -78 -45.5 -122.5t-128.5 -44.5t-128 44.5t-45 122.5v437h-88v-430q0 -50 16.5 -94.5t49 -79t81.5 -54.5t114 -20t114 20t82 54.5t49.5 79t16.5 94.5v430z" />
    <glyph glyph-name="Udieresis" unicode="&#xdc;" horiz-adv-x="675" 
d="M599 666h-88v-437q0 -78 -45.5 -122.5t-128.5 -44.5t-128 44.5t-45 122.5v437h-88v-430q0 -50 16.5 -94.5t49 -79t81.5 -54.5t114 -20t114 20t82 54.5t49.5 79t16.5 94.5v430zM383 794q0 -23 14 -37t38 -14q25 0 39 14t14 37t-14 37t-39 14q-24 0 -38 -14t-14 -37z
M188 794q0 -23 14 -37t38 -14q25 0 39 14t14 37t-14 37t-39 14q-24 0 -38 -14t-14 -37z" />
    <glyph glyph-name="Yacute" unicode="&#xdd;" horiz-adv-x="550" 
d="M538 666h-92l-171 -319l-171 319h-93l220 -397v-269h88v269zM422 862h-113l-83 -132h82z" />
    <glyph glyph-name="Thorn" unicode="&#xde;" horiz-adv-x="587" 
d="M558 338q0 42 -14 78.5t-41 63.5t-66.5 43t-90.5 16h-180v127h-88v-666h88v137h180q51 0 90.5 16t66.5 43.5t41 64t14 77.5zM469 338q0 -60 -35 -95t-98 -35h-170v259h170q63 0 98 -34.5t35 -94.5z" />
    <glyph glyph-name="germandbls" unicode="&#xdf;" horiz-adv-x="563" 
d="M155 0v440q0 84 33.5 127.5t98.5 43.5q40 0 66 -18t26 -56q0 -29 -18.5 -53.5l-33.5 -44.5l-19 -25t-18.5 -28t-14 -32.5t-5.5 -38.5q0 -43 26.5 -72t76.5 -51q36 -16 59 -30.5t23 -44.5q0 -31 -22 -46.5t-60 -15.5q-26 0 -56.5 5t-56.5 15l-13 -61q26 -11 63 -17.5
t68 -6.5q72 0 116 36.5t44 96.5q0 25 -10 45t-26.5 35.5t-36.5 27.5t-41 22q-34 17 -53 30t-19 38q0 14 5.5 26.5t13.5 24t17.5 22.5t18.5 23l18.5 24.5t17.5 27.5t13.5 32.5t5.5 39.5q0 31 -12.5 56t-34.5 42.5t-53 27t-67 9.5q-106 0 -165.5 -59.5t-59.5 -174.5v-442h85z
" />
    <glyph glyph-name="agrave" unicode="&#xe0;" horiz-adv-x="512" 
d="M446 0v329q0 81 -47.5 120t-141.5 39q-95 0 -176 -38l15 -68q35 16 72 24.5t78 8.5q58 0 86 -22t28 -70v-44h-144q-37 0 -68 -9t-53 -27t-34.5 -46t-12.5 -66q0 -65 39 -103t110 -38q57 0 99.5 23.5t67.5 67.5v-81h82zM360 187q0 -28 -10.5 -53t-29 -43.5t-43.5 -29
t-55 -10.5q-44 0 -67.5 20t-23.5 61q0 85 97 85h132v-30zM231 543h81l-62 152h-107z" />
    <glyph glyph-name="aacute" unicode="&#xe1;" horiz-adv-x="512" 
d="M446 0v329q0 81 -47.5 120t-141.5 39q-95 0 -176 -38l15 -68q35 16 72 24.5t78 8.5q58 0 86 -22t28 -70v-44h-144q-37 0 -68 -9t-53 -27t-34.5 -46t-12.5 -66q0 -65 39 -103t110 -38q57 0 99.5 23.5t67.5 67.5v-81h82zM360 187q0 -28 -10.5 -53t-29 -43.5t-43.5 -29
t-55 -10.5q-44 0 -67.5 20t-23.5 61q0 85 97 85h132v-30zM212 543h81l88 152h-108z" />
    <glyph glyph-name="acircumflex" unicode="&#xe2;" horiz-adv-x="512" 
d="M446 0v329q0 81 -47.5 120t-141.5 39q-95 0 -176 -38l15 -68q35 16 72 24.5t78 8.5q58 0 86 -22t28 -70v-44h-144q-37 0 -68 -9t-53 -27t-34.5 -46t-12.5 -66q0 -65 39 -103t110 -38q57 0 99.5 23.5t67.5 67.5v-81h82zM360 187q0 -28 -10.5 -53t-29 -43.5t-43.5 -29
t-55 -10.5q-44 0 -67.5 20t-23.5 61q0 85 97 85h132v-30zM308 695h-86l-103 -152h80l66 102l66 -102h80z" />
    <glyph glyph-name="atilde" unicode="&#xe3;" horiz-adv-x="512" 
d="M446 0v329q0 81 -47.5 120t-141.5 39q-95 0 -176 -38l15 -68q35 16 72 24.5t78 8.5q58 0 86 -22t28 -70v-44h-144q-37 0 -68 -9t-53 -27t-34.5 -46t-12.5 -66q0 -65 39 -103t110 -38q57 0 99.5 23.5t67.5 67.5v-81h82zM360 187q0 -28 -10.5 -53t-29 -43.5t-43.5 -29
t-55 -10.5q-44 0 -67.5 20t-23.5 61q0 85 97 85h132v-30zM370 670q-3 -8 -6.5 -16t-8 -14.5t-10.5 -11t-16 -4.5q-12 0 -27 7t-31.5 15.5t-35 15.5t-36.5 7q-41 0 -62 -23.5t-36 -67.5l56 -21q7 17 16 32t27 15q15 0 31 -7t33 -15.5t34.5 -15.5t35.5 -7q40 0 61 26.5
t32 64.5z" />
    <glyph glyph-name="adieresis" unicode="&#xe4;" horiz-adv-x="512" 
d="M446 0v329q0 81 -47.5 120t-141.5 39q-95 0 -176 -38l15 -68q35 16 72 24.5t78 8.5q58 0 86 -22t28 -70v-44h-144q-37 0 -68 -9t-53 -27t-34.5 -46t-12.5 -66q0 -65 39 -103t110 -38q57 0 99.5 23.5t67.5 67.5v-81h82zM360 187q0 -28 -10.5 -53t-29 -43.5t-43.5 -29
t-55 -10.5q-44 0 -67.5 20t-23.5 61q0 85 97 85h132v-30zM304 612q0 -22 14.5 -37t38.5 -15t38 15t14 37t-14 36.5t-38 14.5t-38.5 -14.5t-14.5 -36.5zM121 612q0 -22 14.5 -37t37.5 -15q25 0 39 15t14 37t-14 36.5t-39 14.5q-23 0 -37.5 -14.5t-14.5 -36.5z" />
    <glyph glyph-name="aring" unicode="&#xe5;" horiz-adv-x="512" 
d="M446 0v329q0 81 -47.5 120t-141.5 39q-95 0 -176 -38l15 -68q35 16 72 24.5t78 8.5q58 0 86 -22t28 -70v-44h-144q-37 0 -68 -9t-53 -27t-34.5 -46t-12.5 -66q0 -65 39 -103t110 -38q57 0 99.5 23.5t67.5 67.5v-81h82zM360 187q0 -28 -10.5 -53t-29 -43.5t-43.5 -29
t-55 -10.5q-44 0 -67.5 20t-23.5 61q0 85 97 85h132v-30zM360 626q0 35 -23 59t-70 24t-69.5 -24t-22.5 -59q0 -34 22.5 -58.5t69.5 -24.5t70 24.5t23 58.5zM218 626q0 23 13 35t36 12q49 0 49 -47t-49 -47q-23 0 -36 12t-13 35z" />
    <glyph glyph-name="ae" unicode="&#xe6;" horiz-adv-x="812" 
d="M776 212v52q0 48 -10.5 89t-33 71t-58.5 47t-87 17q-61 0 -103 -22.5t-68 -60.5q-20 41 -63 62t-103 21q-52 0 -93 -11t-71 -27l15 -65q32 14 66.5 22t76.5 8q60 0 91.5 -26t31.5 -83v-32h-148q-86 0 -128.5 -35.5t-42.5 -104.5q0 -71 45.5 -107.5t123.5 -36.5
q69 0 115.5 26.5t78.5 73.5q23 -44 71 -72t118 -28q50 0 93.5 10t77.5 27l-15 59q-32 -14 -68 -22.5t-76 -8.5q-43 0 -72.5 10.5t-48 31t-27.5 49.5t-11 66h323zM367 181q0 -57 -38.5 -94t-101.5 -37q-51 0 -75 22t-24 60q0 80 98 80h141v-31zM586 427q59 0 83.5 -40
t24.5 -101v-12h-240q11 153 132 153z" />
    <glyph glyph-name="ccedilla" unicode="&#xe7;" horiz-adv-x="439" 
d="M357 -108q0 17 -7.5 28.5t-20.5 18.5t-30 10t-36 4l8 37q38 1 75 8t61 21l-14 65q-23 -11 -52 -17.5t-61 -6.5q-43 0 -72.5 13t-48 36.5t-26.5 56.5t-8 73t8 73t26.5 56.5t48 36.5t72.5 13q32 0 61 -6.5t52 -17.5l14 64q-25 14 -62.5 22t-77.5 8q-112 0 -170 -66
t-58 -183q0 -106 47.5 -170.5t140.5 -75.5l-18 -75l26.5 -2t24 -4t17 -8.5t6.5 -15.5t-7 -16t-18.5 -9.5t-25.5 -5t-29 -2.5l3 -43q31 1 59 6t48 14.5t32 24t12 35.5z" />
    <glyph glyph-name="egrave" unicode="&#xe8;" horiz-adv-x="487" 
d="M451 209v53q0 49 -10.5 90.5t-33.5 71.5t-59 47t-88 17q-55 0 -96.5 -18.5t-69 -51.5t-41 -78.5t-13.5 -100.5t14 -100.5t42.5 -78.5t72.5 -51.5t104 -18.5q51 0 95 10t77 27l-14 60q-32 -14 -68.5 -23.5t-77.5 -9.5q-83 0 -118.5 41t-39.5 114h324zM259 427
q30 0 51 -10.5t34 -29.5t19 -45.5t6 -57.5v-12h-242q5 78 37 116.5t95 38.5zM227 543h81l-62 152h-107z" />
    <glyph glyph-name="eacute" unicode="&#xe9;" horiz-adv-x="487" 
d="M212 543h81l88 152h-108zM451 209v53q0 49 -10.5 90.5t-33.5 71.5t-59 47t-88 17q-55 0 -96.5 -18.5t-69 -51.5t-41 -78.5t-13.5 -100.5t14 -100.5t42.5 -78.5t72.5 -51.5t104 -18.5q51 0 95 10t77 27l-14 60q-32 -14 -68.5 -23.5t-77.5 -9.5q-83 0 -118.5 41t-39.5 114
h324zM259 427q30 0 51 -10.5t34 -29.5t19 -45.5t6 -57.5v-12h-242q5 78 37 116.5t95 38.5z" />
    <glyph glyph-name="ecircumflex" unicode="&#xea;" horiz-adv-x="487" 
d="M304 695h-86l-103 -152h80l66 102l66 -102h80zM451 209v53q0 49 -10.5 90.5t-33.5 71.5t-59 47t-88 17q-55 0 -96.5 -18.5t-69 -51.5t-41 -78.5t-13.5 -100.5t14 -100.5t42.5 -78.5t72.5 -51.5t104 -18.5q51 0 95 10t77 27l-14 60q-32 -14 -68.5 -23.5t-77.5 -9.5
q-83 0 -118.5 41t-39.5 114h324zM259 427q30 0 51 -10.5t34 -29.5t19 -45.5t6 -57.5v-12h-242q5 78 37 116.5t95 38.5z" />
    <glyph glyph-name="edieresis" unicode="&#xeb;" horiz-adv-x="487" 
d="M301 612q0 -22 14.5 -37t38.5 -15t38 15t14 37t-14 36.5t-38 14.5t-38.5 -14.5t-14.5 -36.5zM118 612q0 -22 14.5 -37t37.5 -15q25 0 39 15t14 37t-14 36.5t-39 14.5q-23 0 -37.5 -14.5t-14.5 -36.5zM451 209v53q0 49 -10.5 90.5t-33.5 71.5t-59 47t-88 17
q-55 0 -96.5 -18.5t-69 -51.5t-41 -78.5t-13.5 -100.5t14 -100.5t42.5 -78.5t72.5 -51.5t104 -18.5q51 0 95 10t77 27l-14 60q-32 -14 -68.5 -23.5t-77.5 -9.5q-83 0 -118.5 41t-39.5 114h324zM259 427q30 0 51 -10.5t34 -29.5t19 -45.5t6 -57.5v-12h-242q5 78 37 116.5
t95 38.5z" />
    <glyph glyph-name="igrave" unicode="&#xec;" horiz-adv-x="232" 
d="M159 0v478h-86v-478h86zM79 543h81l-62 152h-107z" />
    <glyph glyph-name="iacute" unicode="&#xed;" horiz-adv-x="232" 
d="M78 543h81l88 152h-108zM159 0v478h-86v-478h86z" />
    <glyph glyph-name="icircumflex" unicode="&#xee;" horiz-adv-x="232" 
d="M161 695h-86l-103 -152h80l66 102l66 -102h80zM159 0v478h-86v-478h86z" />
    <glyph glyph-name="idieresis" unicode="&#xef;" horiz-adv-x="232" 
d="M156 612q0 -22 14.5 -37t38.5 -15t38 15t14 37t-14 36.5t-38 14.5t-38.5 -14.5t-14.5 -36.5zM-27 612q0 -22 14.5 -37t37.5 -15q25 0 39 15t14 37t-14 36.5t-39 14.5q-23 0 -37.5 -14.5t-14.5 -36.5zM159 0v478h-86v-478h86z" />
    <glyph glyph-name="eth" unicode="&#xf0;" horiz-adv-x="509" 
d="M209 471l77 58q87 -69 108 -180q-23 44 -63.5 68t-94.5 24q-50 0 -87 -17.5t-62 -48.5t-37 -72t-12 -88q0 -44 13.5 -84.5t39.5 -72t64.5 -50t88.5 -18.5q57 0 100 22t71 59t42 83.5t14 96.5q0 110 -32.5 188.5t-94.5 132.5l66 49l-34 45l-79 -59q-34 23 -74 39.5
t-85 29.5l-19 -65q68 -20 117 -49l-62 -46zM122 215q0 69 32 114t99 45q31 0 55.5 -12t41.5 -33t26.5 -49.5t9.5 -61.5q0 -32 -9 -61.5t-26.5 -51.5t-43 -35t-57.5 -13t-56 12t-40 33.5t-24 50.5t-8 62z" />
    <glyph glyph-name="ntilde" unicode="&#xf1;" horiz-adv-x="540" 
d="M472 0v325q0 77 -36.5 120t-117.5 43q-62 0 -102 -30.5t-60 -77.5v98h-83v-478h86v256q0 75 37 116.5t94 41.5q49 0 72.5 -26.5t23.5 -75.5v-312h86zM386 670q-3 -8 -6.5 -16t-8 -14.5t-10.5 -11t-16 -4.5q-12 0 -27 7t-31.5 15.5t-35 15.5t-36.5 7q-41 0 -62 -23.5
t-36 -67.5l56 -21q7 17 16 32t27 15q15 0 31 -7t33 -15.5t34.5 -15.5t35.5 -7q40 0 61 26.5t32 64.5z" />
    <glyph glyph-name="ograve" unicode="&#xf2;" horiz-adv-x="515" 
d="M475 239q0 53 -13.5 98.5t-40.5 79t-68 52.5t-95 19t-95 -19t-68.5 -52.5t-41 -79t-13.5 -98.5t13.5 -98.5t41 -79t68.5 -52.5t95 -19t95 19t68 52.5t40.5 79t13.5 98.5zM389 239q0 -84 -31.5 -133t-99.5 -49t-100 49.5t-32 132.5t32 132.5t100 49.5t99.5 -49t31.5 -133z
M219 543h81l-62 152h-107z" />
    <glyph glyph-name="oacute" unicode="&#xf3;" horiz-adv-x="515" 
d="M214 543h81l88 152h-108zM475 239q0 53 -13.5 98.5t-40.5 79t-68 52.5t-95 19t-95 -19t-68.5 -52.5t-41 -79t-13.5 -98.5t13.5 -98.5t41 -79t68.5 -52.5t95 -19t95 19t68 52.5t40.5 79t13.5 98.5zM389 239q0 -84 -31.5 -133t-99.5 -49t-100 49.5t-32 132.5t32 132.5
t100 49.5t99.5 -49t31.5 -133z" />
    <glyph glyph-name="ocircumflex" unicode="&#xf4;" horiz-adv-x="515" 
d="M301 695h-86l-103 -152h80l66 102l66 -102h80zM475 239q0 53 -13.5 98.5t-40.5 79t-68 52.5t-95 19t-95 -19t-68.5 -52.5t-41 -79t-13.5 -98.5t13.5 -98.5t41 -79t68.5 -52.5t95 -19t95 19t68 52.5t40.5 79t13.5 98.5zM389 239q0 -84 -31.5 -133t-99.5 -49t-100 49.5
t-32 132.5t32 132.5t100 49.5t99.5 -49t31.5 -133z" />
    <glyph glyph-name="otilde" unicode="&#xf5;" horiz-adv-x="515" 
d="M475 239q0 53 -13.5 98.5t-40.5 79t-68 52.5t-95 19t-95 -19t-68.5 -52.5t-41 -79t-13.5 -98.5t13.5 -98.5t41 -79t68.5 -52.5t95 -19t95 19t68 52.5t40.5 79t13.5 98.5zM389 239q0 -84 -31.5 -133t-99.5 -49t-100 49.5t-32 132.5t32 132.5t100 49.5t99.5 -49t31.5 -133z
M367 670q-3 -8 -6.5 -16t-8 -14.5t-10.5 -11t-16 -4.5q-12 0 -27 7t-31.5 15.5t-35 15.5t-36.5 7q-41 0 -62 -23.5t-36 -67.5l56 -21q7 17 16 32t27 15q15 0 31 -7t33 -15.5t34.5 -15.5t35.5 -7q40 0 61 26.5t32 64.5z" />
    <glyph glyph-name="odieresis" unicode="&#xf6;" horiz-adv-x="515" 
d="M297 612q0 -22 14.5 -37t38.5 -15t38 15t14 37t-14 36.5t-38 14.5t-38.5 -14.5t-14.5 -36.5zM114 612q0 -22 14.5 -37t37.5 -15q25 0 39 15t14 37t-14 36.5t-39 14.5q-23 0 -37.5 -14.5t-14.5 -36.5zM475 239q0 53 -13.5 98.5t-40.5 79t-68 52.5t-95 19t-95 -19
t-68.5 -52.5t-41 -79t-13.5 -98.5t13.5 -98.5t41 -79t68.5 -52.5t95 -19t95 19t68 52.5t40.5 79t13.5 98.5zM389 239q0 -84 -31.5 -133t-99.5 -49t-100 49.5t-32 132.5t32 132.5t100 49.5t99.5 -49t31.5 -133z" />
    <glyph glyph-name="divide" unicode="&#xf7;" horiz-adv-x="539" 
d="M326 506q0 24 -16.5 39.5t-40.5 15.5t-40 -15.5t-16 -39.5t16 -39.5t40 -15.5t40.5 15.5t16.5 39.5zM486 287v72h-433v-72h433zM326 140q0 24 -16.5 39.5t-40.5 15.5t-40 -15.5t-16 -39.5t16 -39.5t40 -15.5t40.5 15.5t16.5 39.5z" />
    <glyph glyph-name="oslash" unicode="&#xf8;" horiz-adv-x="515" 
d="M475 239q0 72 -24.5 129t-74.5 89l45 105h-49l-37 -86q-17 5 -36.5 8.5t-40.5 3.5q-54 0 -95 -19t-68.5 -52.5t-41 -79t-13.5 -98.5q0 -72 24.5 -129.5t75.5 -88.5l-45 -105h49l37 86q17 -5 36 -8.5t41 -3.5q54 0 95 19t68 52.5t40.5 79t13.5 98.5zM126 239
q0 83 32 132.5t100 49.5q28 0 49 -9l-137 -321q-23 23 -33.5 61t-10.5 87zM389 239q0 -84 -31.5 -133t-99.5 -49q-28 0 -50 9l137 320q23 -23 33.5 -60.5t10.5 -86.5z" />
    <glyph glyph-name="ugrave" unicode="&#xf9;" horiz-adv-x="535" 
d="M68 478v-326q0 -75 36 -118.5t114 -43.5q61 0 100.5 30.5t59.5 76.5v-97h84v478h-86v-256q0 -75 -36.5 -116.5t-92.5 -41.5q-48 0 -70.5 26.5t-22.5 75.5v312h-86zM247 543h81l-62 152h-107z" />
    <glyph glyph-name="uacute" unicode="&#xfa;" horiz-adv-x="535" 
d="M213 543h81l88 152h-108zM68 478v-326q0 -75 36 -118.5t114 -43.5q61 0 100.5 30.5t59.5 76.5v-97h84v478h-86v-256q0 -75 -36.5 -116.5t-92.5 -41.5q-48 0 -70.5 26.5t-22.5 75.5v312h-86z" />
    <glyph glyph-name="ucircumflex" unicode="&#xfb;" horiz-adv-x="535" 
d="M310 695h-86l-103 -152h80l66 102l66 -102h80zM68 478v-326q0 -75 36 -118.5t114 -43.5q61 0 100.5 30.5t59.5 76.5v-97h84v478h-86v-256q0 -75 -36.5 -116.5t-92.5 -41.5q-48 0 -70.5 26.5t-22.5 75.5v312h-86z" />
    <glyph glyph-name="udieresis" unicode="&#xfc;" horiz-adv-x="535" 
d="M308 612q0 -22 14.5 -37t38.5 -15t38 15t14 37t-14 36.5t-38 14.5t-38.5 -14.5t-14.5 -36.5zM125 612q0 -22 14.5 -37t37.5 -15q25 0 39 15t14 37t-14 36.5t-39 14.5q-23 0 -37.5 -14.5t-14.5 -36.5zM68 478v-326q0 -75 36 -118.5t114 -43.5q61 0 100.5 30.5t59.5 76.5
v-97h84v478h-86v-256q0 -75 -36.5 -116.5t-92.5 -41.5q-48 0 -70.5 26.5t-22.5 75.5v312h-86z" />
    <glyph glyph-name="yacute" unicode="&#xfd;" horiz-adv-x="429" 
d="M216 90l-123 388h-89l170 -480l-59 -176h86l224 656h-89zM170 543h81l88 152h-108z" />
    <glyph glyph-name="thorn" unicode="&#xfe;" horiz-adv-x="546" 
d="M507 239q0 52 -11 97.5t-34 79t-59 53t-85 19.5q-57 0 -96.5 -27.5t-62.5 -73.5v279h-86v-844h86v269q20 -45 60.5 -73t97.5 -28q50 0 86 19.5t59 53t34 79t11 97.5zM421 239q0 -39 -7 -72t-22 -57t-39 -37.5t-58 -13.5q-35 0 -60.5 14.5t-42 39t-25 57t-8.5 69.5
t8.5 69.5t25 57t42 39t60.5 14.5q34 0 58 -13.5t39 -37.5t22 -57t7 -72z" />
    <glyph glyph-name="ydieresis" unicode="&#xff;" horiz-adv-x="429" 
d="M216 90l-123 388h-89l170 -480l-59 -176h86l224 656h-89zM257 612q0 -22 14.5 -37t38.5 -15t38 15t14 37t-14 36.5t-38 14.5t-38.5 -14.5t-14.5 -36.5zM74 612q0 -22 14.5 -37t37.5 -15q25 0 39 15t14 37t-14 36.5t-39 14.5q-23 0 -37.5 -14.5t-14.5 -36.5z" />
    <glyph glyph-name="Amacron" unicode="&#x100;" horiz-adv-x="625" 
d="M17 0h89l61 175h291l62 -175h89l-248 666h-97zM313 596l120 -347h-240zM469 756v68h-313v-68h313z" />
    <glyph glyph-name="amacron" unicode="&#x101;" horiz-adv-x="512" 
d="M446 0v329q0 81 -47.5 120t-141.5 39q-95 0 -176 -38l15 -68q35 16 72 24.5t78 8.5q58 0 86 -22t28 -70v-44h-144q-37 0 -68 -9t-53 -27t-34.5 -46t-12.5 -66q0 -65 39 -103t110 -38q57 0 99.5 23.5t67.5 67.5v-81h82zM360 187q0 -28 -10.5 -53t-29 -43.5t-43.5 -29
t-55 -10.5q-44 0 -67.5 20t-23.5 61q0 85 97 85h132v-30zM399 570v67h-265v-67h265z" />
    <glyph glyph-name="Abreve" unicode="&#x102;" horiz-adv-x="625" 
d="M17 0h89l61 175h291l62 -175h89l-248 666h-97zM313 596l120 -347h-240zM387 849q0 -29 -18.5 -46t-56.5 -17q-37 0 -56 16.5t-19 46.5h-68q0 -57 39.5 -87t103.5 -30t104 30t40 87h-69z" />
    <glyph glyph-name="abreve" unicode="&#x103;" horiz-adv-x="512" 
d="M446 0v329q0 81 -47.5 120t-141.5 39q-95 0 -176 -38l15 -68q35 16 72 24.5t78 8.5q58 0 86 -22t28 -70v-44h-144q-37 0 -68 -9t-53 -27t-34.5 -46t-12.5 -66q0 -65 39 -103t110 -38q57 0 99.5 23.5t67.5 67.5v-81h82zM360 187q0 -28 -10.5 -53t-29 -43.5t-43.5 -29
t-55 -10.5q-44 0 -67.5 20t-23.5 61q0 85 97 85h132v-30zM408 668h-66q0 -32 -17.5 -51.5t-54.5 -19.5t-54.5 19.5t-17.5 51.5h-66q0 -60 39 -92.5t99 -32.5t99 32.5t39 92.5z" />
    <glyph glyph-name="Aogonek" unicode="&#x104;" horiz-adv-x="625" 
d="M361 666h-97l-247 -666h89l61 175h291l62 -175q-13 -9 -26 -19t-23.5 -23t-17 -29t-6.5 -35q0 -37 22 -59.5t67 -22.5q20 0 37.5 3.5t34.5 9.5l-8 46q-8 -3 -18 -5t-22 -2q-41 0 -41 37q0 18 9 32.5t22.5 26.5t29 21.5l29.5 18.5zM313 595l120 -346h-240z" />
    <glyph glyph-name="aogonek" unicode="&#x105;" horiz-adv-x="512" 
d="M438 -129q-19 -7 -41 -7q-41 0 -41 35q0 18 8.5 32.5t22 26.5t29 22l30.5 20v329q0 81 -47.5 120t-141.5 39q-95 0 -176 -38l15 -68q35 16 72 24.5t78 8.5q58 0 86 -22t28 -70v-44h-144q-37 0 -68 -9t-53 -27t-34.5 -46t-12.5 -66q0 -65 39 -103t110 -38q57 0 99.5 23.5
t67.5 67.5v-81q-14 -8 -28 -18.5t-25 -24t-18.5 -30t-7.5 -37.5q0 -35 22 -56.5t67 -21.5q21 0 40.5 4t31.5 9zM360 187q0 -28 -10.5 -53t-29 -43.5t-43.5 -29t-55 -10.5q-44 0 -67.5 20t-23.5 61q0 85 97 85h132v-30z" />
    <glyph glyph-name="Cacute" unicode="&#x106;" horiz-adv-x="593" 
d="M131 333q0 128 68 198t191 70q45 0 82 -8t69 -20l14 71q-29 14 -77 24t-104 10q-77 0 -138 -24.5t-104 -69.5t-66 -108.5t-23 -142.5t23 -142.5t66 -108.5t104 -69.5t138 -24.5q56 0 104 10t77 24l-14 71q-32 -12 -69 -20t-82 -8q-123 0 -191 70t-68 198zM508 862h-113
l-83 -132h82z" />
    <glyph glyph-name="cacute" unicode="&#x107;" horiz-adv-x="439" 
d="M211 543h81l88 152h-108zM407 458q-25 14 -62.5 22t-77.5 8q-112 0 -170 -66t-58 -183t58 -183t170 -66q40 0 77.5 7.5t62.5 21.5l-14 65q-23 -11 -52 -17.5t-61 -6.5q-43 0 -72.5 13t-48 36.5t-26.5 56.5t-8 73t8 73t26.5 56.5t48 36.5t72.5 13q32 0 61 -6.5t52 -17.5z
" />
    <glyph glyph-name="Ccircumflex" unicode="&#x108;" horiz-adv-x="593" 
d="M131 333q0 128 68 198t191 70q45 0 82 -8t69 -20l14 71q-29 14 -77 24t-104 10q-77 0 -138 -24.5t-104 -69.5t-66 -108.5t-23 -142.5t23 -142.5t66 -108.5t104 -69.5t138 -24.5q56 0 104 10t77 24l-14 71q-32 -12 -69 -20t-82 -8q-123 0 -191 70t-68 198zM403 862h-83
l-113 -132h83l72 85l73 -85h83z" />
    <glyph glyph-name="ccircumflex" unicode="&#x109;" horiz-adv-x="439" 
d="M299 695h-86l-103 -152h80l66 102l66 -102h80zM407 458q-25 14 -62.5 22t-77.5 8q-112 0 -170 -66t-58 -183t58 -183t170 -66q40 0 77.5 7.5t62.5 21.5l-14 65q-23 -11 -52 -17.5t-61 -6.5q-43 0 -72.5 13t-48 36.5t-26.5 56.5t-8 73t8 73t26.5 56.5t48 36.5t72.5 13
q32 0 61 -6.5t52 -17.5z" />
    <glyph glyph-name="Cdotaccent" unicode="&#x10a;" horiz-adv-x="593" 
d="M306 801q0 -23 15.5 -40.5t41.5 -17.5q27 0 42.5 17.5t15.5 40.5q0 24 -15.5 41t-42.5 17q-26 0 -41.5 -17t-15.5 -41zM131 333q0 128 68 198t191 70q45 0 82 -8t69 -20l14 71q-29 14 -77 24t-104 10q-77 0 -138 -24.5t-104 -69.5t-66 -108.5t-23 -142.5t23 -142.5
t66 -108.5t104 -69.5t138 -24.5q56 0 104 10t77 24l-14 71q-32 -12 -69 -20t-82 -8q-123 0 -191 70t-68 198z" />
    <glyph glyph-name="cdotaccent" unicode="&#x10b;" horiz-adv-x="439" 
d="M407 458q-25 14 -62.5 22t-77.5 8q-112 0 -170 -66t-58 -183t58 -183t170 -66q40 0 77.5 7.5t62.5 21.5l-14 65q-23 -11 -52 -17.5t-61 -6.5q-43 0 -72.5 13t-48 36.5t-26.5 56.5t-8 73t8 73t26.5 56.5t48 36.5t72.5 13q32 0 61 -6.5t52 -17.5zM197 611q0 -23 15.5 -40.5
t41.5 -17.5q27 0 42.5 17.5t15.5 40.5t-15.5 40.5t-42.5 17.5q-26 0 -41.5 -17.5t-15.5 -40.5z" />
    <glyph glyph-name="Ccaron" unicode="&#x10c;" horiz-adv-x="593" 
d="M131 333q0 128 68 198t191 70q45 0 82 -8t69 -20l14 71q-29 14 -77 24t-104 10q-77 0 -138 -24.5t-104 -69.5t-66 -108.5t-23 -142.5t23 -142.5t66 -108.5t104 -69.5t138 -24.5q56 0 104 10t77 24l-14 71q-32 -12 -69 -20t-82 -8q-123 0 -191 70t-68 198zM521 862h-83
l-73 -86l-72 86h-83l113 -132h83z" />
    <glyph glyph-name="ccaron" unicode="&#x10d;" horiz-adv-x="439" 
d="M405 695h-80l-66 -102l-66 102h-80l103 -152h86zM407 458q-25 14 -62.5 22t-77.5 8q-112 0 -170 -66t-58 -183t58 -183t170 -66q40 0 77.5 7.5t62.5 21.5l-14 65q-23 -11 -52 -17.5t-61 -6.5q-43 0 -72.5 13t-48 36.5t-26.5 56.5t-8 73t8 73t26.5 56.5t48 36.5t72.5 13
q32 0 61 -6.5t52 -17.5z" />
    <glyph glyph-name="Dcaron" unicode="&#x10e;" horiz-adv-x="673" 
d="M79 0h237q70 0 128.5 24.5t101 68.5t66 105t23.5 135t-23.5 135t-66 105t-101 68.5t-128.5 24.5h-237v-666zM168 76v514h145q48 0 91 -16.5t74.5 -48.5t50 -80.5t18.5 -111.5t-18.5 -111.5t-50 -80.5t-74.5 -48.5t-91 -16.5h-145zM454 862h-83l-73 -86l-72 86h-83
l113 -132h83z" />
    <glyph glyph-name="dcaron" unicode="&#x10f;" horiz-adv-x="693" 
d="M703 666h-100l-46 -213h65zM39 239q0 -52 11 -97.5t34 -79t58.5 -53t85.5 -19.5q59 0 99.5 27.5t62.5 73.5v-91h83v666h-86v-280q-22 47 -61 74.5t-97 27.5q-50 0 -86 -19.5t-59 -53t-34 -79t-11 -97.5zM125 239q0 39 7 72t22 57t39 37.5t58 13.5t60 -14.5t42.5 -39
t25 -57t8.5 -69.5t-8.5 -69.5t-25 -57t-42.5 -39t-60 -14.5t-58 13.5t-39 37.5t-22 57t-7 72z" />
    <glyph glyph-name="Dcroat" unicode="&#x110;" horiz-adv-x="685" 
d="M27 296h67v-296h237q70 0 128.5 24.5t101 68.5t66 105t23.5 135t-23.5 135t-66 105t-101 68.5t-128.5 24.5h-237v-295h-67v-75zM183 76v220h196v75h-196v219h145q48 0 91 -16.5t74.5 -48.5t50 -80.5t18.5 -111.5t-18.5 -111.5t-50 -80.5t-74.5 -48.5t-91 -16.5h-145z" />
    <glyph glyph-name="dcroat" unicode="&#x111;" horiz-adv-x="561" 
d="M39 239q0 -52 11 -97.5t34 -79t58.5 -53t85.5 -19.5q59 0 99.5 27.5t62.5 73.5v-91h83v542h64v55h-64v69h-86v-69h-112v-55h112v-156q-22 47 -61 74.5t-97 27.5q-50 0 -86 -19.5t-59 -53t-34 -79t-11 -97.5zM125 239q0 39 7 72t22 57t39 37.5t58 13.5t60 -14.5t42.5 -39
t25 -57t8.5 -69.5t-8.5 -69.5t-25 -57t-42.5 -39t-60 -14.5t-58 13.5t-39 37.5t-22 57t-7 72z" />
    <glyph glyph-name="Emacron" unicode="&#x112;" horiz-adv-x="556" 
d="M78 0h430v76h-342v227h319v76h-319v211h341v76h-429v-666zM452 756v68h-313v-68h313z" />
    <glyph glyph-name="emacron" unicode="&#x113;" horiz-adv-x="487" 
d="M451 209v53q0 49 -10.5 90.5t-33.5 71.5t-59 47t-88 17q-55 0 -96.5 -18.5t-69 -51.5t-41 -78.5t-13.5 -100.5t14 -100.5t42.5 -78.5t72.5 -51.5t104 -18.5q51 0 95 10t77 27l-14 60q-32 -14 -68.5 -23.5t-77.5 -9.5q-83 0 -118.5 41t-39.5 114h324zM259 427
q30 0 51 -10.5t34 -29.5t19 -45.5t6 -57.5v-12h-242q5 78 37 116.5t95 38.5zM391 570v67h-265v-67h265z" />
    <glyph glyph-name="Ebreve" unicode="&#x114;" horiz-adv-x="556" 
d="M78 0h430v76h-342v227h319v76h-319v211h341v76h-429v-666zM377 849q0 -29 -18.5 -46t-56.5 -17q-37 0 -56 16.5t-19 46.5h-68q0 -57 39.5 -87t103.5 -30t104 30t40 87h-69z" />
    <glyph glyph-name="ebreve" unicode="&#x115;" horiz-adv-x="487" 
d="M451 209v53q0 49 -10.5 90.5t-33.5 71.5t-59 47t-88 17q-55 0 -96.5 -18.5t-69 -51.5t-41 -78.5t-13.5 -100.5t14 -100.5t42.5 -78.5t72.5 -51.5t104 -18.5q51 0 95 10t77 27l-14 60q-32 -14 -68.5 -23.5t-77.5 -9.5q-83 0 -118.5 41t-39.5 114h324zM259 427
q30 0 51 -10.5t34 -29.5t19 -45.5t6 -57.5v-12h-242q5 78 37 116.5t95 38.5zM403 668h-66q0 -32 -17.5 -51.5t-54.5 -19.5t-54.5 19.5t-17.5 51.5h-66q0 -60 39 -92.5t99 -32.5t99 32.5t39 92.5z" />
    <glyph glyph-name="Edotaccent" unicode="&#x116;" horiz-adv-x="556" 
d="M243 801q0 -23 15.5 -40.5t41.5 -17.5q27 0 42.5 17.5t15.5 40.5q0 24 -15.5 41t-42.5 17q-26 0 -41.5 -17t-15.5 -41zM78 0h430v76h-342v227h319v76h-319v211h341v76h-429v-666z" />
    <glyph glyph-name="edotaccent" unicode="&#x117;" horiz-adv-x="487" 
d="M451 209v53q0 49 -10.5 90.5t-33.5 71.5t-59 47t-88 17q-55 0 -96.5 -18.5t-69 -51.5t-41 -78.5t-13.5 -100.5t14 -100.5t42.5 -78.5t72.5 -51.5t104 -18.5q51 0 95 10t77 27l-14 60q-32 -14 -68.5 -23.5t-77.5 -9.5q-83 0 -118.5 41t-39.5 114h324zM259 427
q30 0 51 -10.5t34 -29.5t19 -45.5t6 -57.5v-12h-242q5 78 37 116.5t95 38.5zM199 611q0 -23 15.5 -40.5t41.5 -17.5q27 0 42.5 17.5t15.5 40.5t-15.5 40.5t-42.5 17.5q-26 0 -41.5 -17.5t-15.5 -40.5z" />
    <glyph glyph-name="Eogonek" unicode="&#x118;" horiz-adv-x="556" 
d="M78 0h348q-14 -8 -28 -18.5t-25 -24t-18.5 -30t-7.5 -37.5q0 -35 22 -56.5t67 -21.5q21 0 40.5 4t31.5 9l-8 46q-19 -7 -41 -7q-41 0 -41 35q0 18 8.5 32.5t22 26.5t29 22l30.5 20v76h-342v227h319v76h-319v211h341v76h-429v-666z" />
    <glyph glyph-name="eogonek" unicode="&#x119;" horiz-adv-x="487" 
d="M451 209v53q0 49 -10.5 90.5t-33.5 71.5t-59 47t-88 17q-55 0 -96.5 -18.5t-69 -51.5t-41 -78.5t-13.5 -100.5t14 -100.5t42.5 -78.5t72.5 -51.5t104 -18.5q27 0 53 3q-12 -5 -26 -14t-27 -22t-21.5 -30t-8.5 -39q0 -34 22.5 -55t67.5 -21q21 0 40.5 4t31.5 9l-8 46
q-19 -7 -40 -7q-20 0 -31 9.5t-11 27.5q0 20 12 38t31 34t42 29.5t45 24.5l-14 60q-32 -14 -68.5 -23.5t-77.5 -9.5q-83 0 -118.5 41t-39.5 114h324zM259 427q30 0 51 -10.5t34 -29.5t19 -45.5t6 -57.5v-12h-242q5 78 37 116.5t95 38.5z" />
    <glyph glyph-name="Ecaron" unicode="&#x11a;" horiz-adv-x="556" 
d="M78 0h430v76h-342v227h319v76h-319v211h341v76h-429v-666zM456 862h-83l-73 -86l-72 86h-83l113 -132h83z" />
    <glyph glyph-name="ecaron" unicode="&#x11b;" horiz-adv-x="487" 
d="M407 695h-80l-66 -102l-66 102h-80l103 -152h86zM451 209v53q0 49 -10.5 90.5t-33.5 71.5t-59 47t-88 17q-55 0 -96.5 -18.5t-69 -51.5t-41 -78.5t-13.5 -100.5t14 -100.5t42.5 -78.5t72.5 -51.5t104 -18.5q51 0 95 10t77 27l-14 60q-32 -14 -68.5 -23.5t-77.5 -9.5
q-83 0 -118.5 41t-39.5 114h324zM259 427q30 0 51 -10.5t34 -29.5t19 -45.5t6 -57.5v-12h-242q5 78 37 116.5t95 38.5z" />
    <glyph glyph-name="Gcircumflex" unicode="&#x11c;" horiz-adv-x="654" 
d="M415 862h-83l-113 -132h83l72 85l73 -85h83zM43 331q0 -74 22 -136.5t65.5 -108.5t109 -72t151.5 -26q27 0 55 2.5t54.5 6.5t49.5 9.5t41 11.5v280h-84v-226q-24 -5 -55.5 -8.5t-62.5 -3.5q-124 0 -191 71t-67 199q0 134 68.5 203t196.5 69q53 0 98.5 -9.5t87.5 -23.5
l13 73q-86 36 -206 36q-84 0 -148.5 -25t-108.5 -71t-66.5 -109.5t-22.5 -141.5z" />
    <glyph glyph-name="gcircumflex" unicode="&#x11d;" horiz-adv-x="546" 
d="M323 695h-86l-103 -152h80l66 102l66 -102h80zM473 478h-84v-91q-23 51 -63.5 76t-94.5 25q-51 0 -87.5 -20t-60 -53t-34 -76.5t-10.5 -90.5t10.5 -90t33.5 -76t59.5 -53t88.5 -20q54 0 94 27t63 74v-90q0 -32 -6.5 -57.5t-22 -44.5t-42.5 -29t-67 -10t-79 8.5t-75 22.5
l-13 -66q18 -7 39 -13t43 -10t44 -6.5t42 -2.5q60 0 102 16.5t69 45t39 67t12 82.5v455zM388 248q0 -36 -9 -67.5t-26.5 -54t-42 -35.5t-55.5 -13q-66 0 -98 47t-32 123q0 75 32.5 123.5t97.5 48.5q32 0 56.5 -13t41.5 -36t26 -54.5t9 -68.5z" />
    <glyph glyph-name="Gbreve" unicode="&#x11e;" horiz-adv-x="654" 
d="M43 331q0 -74 22 -136.5t65.5 -108.5t109 -72t151.5 -26q27 0 55 2.5t54.5 6.5t49.5 9.5t41 11.5v280h-84v-226q-24 -5 -55.5 -8.5t-62.5 -3.5q-124 0 -191 71t-67 199q0 134 68.5 203t196.5 69q53 0 98.5 -9.5t87.5 -23.5l13 73q-86 36 -206 36q-84 0 -148.5 -25
t-108.5 -71t-66.5 -109.5t-22.5 -141.5zM457 849q0 -29 -18.5 -46t-56.5 -17q-37 0 -56 16.5t-19 46.5h-68q0 -57 39.5 -87t103.5 -30t104 30t40 87h-69z" />
    <glyph glyph-name="gbreve" unicode="&#x11f;" horiz-adv-x="546" 
d="M473 478h-84v-91q-23 51 -63.5 76t-94.5 25q-51 0 -87.5 -20t-60 -53t-34 -76.5t-10.5 -90.5t10.5 -90t33.5 -76t59.5 -53t88.5 -20q54 0 94 27t63 74v-90q0 -32 -6.5 -57.5t-22 -44.5t-42.5 -29t-67 -10t-79 8.5t-75 22.5l-13 -66q18 -7 39 -13t43 -10t44 -6.5t42 -2.5
q60 0 102 16.5t69 45t39 67t12 82.5v455zM388 248q0 -36 -9 -67.5t-26.5 -54t-42 -35.5t-55.5 -13q-66 0 -98 47t-32 123q0 75 32.5 123.5t97.5 48.5q32 0 56.5 -13t41.5 -36t26 -54.5t9 -68.5zM415 668h-66q0 -32 -17.5 -51.5t-54.5 -19.5t-54.5 19.5t-17.5 51.5h-66
q0 -60 39 -92.5t99 -32.5t99 32.5t39 92.5z" />
    <glyph glyph-name="Gdotaccent" unicode="&#x120;" horiz-adv-x="654" 
d="M311 801q0 -23 15.5 -40.5t41.5 -17.5q27 0 42.5 17.5t15.5 40.5q0 24 -15.5 41t-42.5 17q-26 0 -41.5 -17t-15.5 -41zM43 331q0 -74 22 -136.5t65.5 -108.5t109 -72t151.5 -26q27 0 55 2.5t54.5 6.5t49.5 9.5t41 11.5v280h-84v-226q-24 -5 -55.5 -8.5t-62.5 -3.5
q-124 0 -191 71t-67 199q0 134 68.5 203t196.5 69q53 0 98.5 -9.5t87.5 -23.5l13 73q-86 36 -206 36q-84 0 -148.5 -25t-108.5 -71t-66.5 -109.5t-22.5 -141.5z" />
    <glyph glyph-name="gdotaccent" unicode="&#x121;" horiz-adv-x="546" 
d="M473 478h-84v-91q-23 51 -63.5 76t-94.5 25q-51 0 -87.5 -20t-60 -53t-34 -76.5t-10.5 -90.5t10.5 -90t33.5 -76t59.5 -53t88.5 -20q54 0 94 27t63 74v-90q0 -32 -6.5 -57.5t-22 -44.5t-42.5 -29t-67 -10t-79 8.5t-75 22.5l-13 -66q18 -7 39 -13t43 -10t44 -6.5t42 -2.5
q60 0 102 16.5t69 45t39 67t12 82.5v455zM388 248q0 -36 -9 -67.5t-26.5 -54t-42 -35.5t-55.5 -13q-66 0 -98 47t-32 123q0 75 32.5 123.5t97.5 48.5q32 0 56.5 -13t41.5 -36t26 -54.5t9 -68.5zM216 611q0 -23 15.5 -40.5t41.5 -17.5q27 0 42.5 17.5t15.5 40.5t-15.5 40.5
t-42.5 17.5q-26 0 -41.5 -17.5t-15.5 -40.5z" />
    <glyph glyph-name="Gcommaaccent" unicode="&#x122;" horiz-adv-x="654" 
d="M445 -75h-98l-35 -175h71zM43 331q0 -74 22 -136.5t65.5 -108.5t109 -72t151.5 -26q27 0 55 2.5t54.5 6.5t49.5 9.5t41 11.5v280h-84v-226q-24 -5 -55.5 -8.5t-62.5 -3.5q-124 0 -191 71t-67 199q0 134 68.5 203t196.5 69q53 0 98.5 -9.5t87.5 -23.5l13 73
q-86 36 -206 36q-84 0 -148.5 -25t-108.5 -71t-66.5 -109.5t-22.5 -141.5z" />
    <glyph glyph-name="gcommaaccent" unicode="&#x123;" horiz-adv-x="546" 
d="M220 543h101l42 152h-78zM473 478h-84v-91q-23 51 -63.5 76t-94.5 25q-51 0 -87.5 -20t-60 -53t-34 -76.5t-10.5 -90.5t10.5 -90t33.5 -76t59.5 -53t88.5 -20q54 0 94 27t63 74v-90q0 -32 -6.5 -57.5t-22 -44.5t-42.5 -29t-67 -10t-79 8.5t-75 22.5l-13 -66q18 -7 39 -13
t43 -10t44 -6.5t42 -2.5q60 0 102 16.5t69 45t39 67t12 82.5v455zM388 248q0 -36 -9 -67.5t-26.5 -54t-42 -35.5t-55.5 -13q-66 0 -98 47t-32 123q0 75 32.5 123.5t97.5 48.5q32 0 56.5 -13t41.5 -36t26 -54.5t9 -68.5z" />
    <glyph glyph-name="Hcircumflex" unicode="&#x124;" horiz-adv-x="671" 
d="M78 0h88v301h339v-301h88v666h-88v-287h-339v287h-88v-666zM376 862h-83l-113 -132h83l72 85l73 -85h83z" />
    <glyph glyph-name="hcircumflex" unicode="&#x125;" horiz-adv-x="540" 
d="M472 0v325q0 77 -36.5 120t-117.5 43q-60 0 -99.5 -29t-59.5 -77v284h-86v-666h86v256q0 75 37 116.5t94 41.5q49 0 72.5 -26.5t23.5 -75.5v-312h86zM159 862h-83l-113 -132h83l72 85l73 -85h83z" />
    <glyph glyph-name="Hbar" unicode="&#x126;" horiz-adv-x="731" 
d="M623 0v501h76v56h-76v109h-88v-109h-339v109h-88v-109h-75v-56h75v-501h88v301h339v-301h88zM196 379v122h339v-122h-339z" />
    <glyph glyph-name="hbar" unicode="&#x127;" horiz-adv-x="554" 
d="M24 542h63v-542h86v256q0 75 37.5 116.5t94.5 41.5q49 0 72.5 -26.5t23.5 -75.5v-312h86v325q0 77 -36.5 120t-117.5 43q-60 0 -100 -29t-60 -77v160h112v55h-112v69h-86v-69h-63v-55z" />
    <glyph glyph-name="Itilde" unicode="&#x128;" 
d="M83 0h88v666h-88v-666zM243 849q-6 -17 -15 -31.5t-30 -14.5q-13 0 -29 7l-34 15t-37 15t-37 7q-41 0 -63 -23.5t-36 -67.5l58 -21q8 20 17 33.5t29 13.5q15 0 32.5 -7t36.5 -15.5t38 -15.5t36 -7q19 0 33 7t24.5 19.5t18.5 29t15 35.5z" />
    <glyph glyph-name="itilde" unicode="&#x129;" horiz-adv-x="232" 
d="M159 0v478h-86v-478h86zM224 670q-3 -8 -6.5 -16t-8 -14.5t-10.5 -11t-16 -4.5q-12 0 -27 7t-31.5 15.5t-35 15.5t-36.5 7q-41 0 -62 -23.5t-36 -67.5l56 -21q7 17 16 32t27 15q15 0 31 -7t33 -15.5t34.5 -15.5t35.5 -7q40 0 61 26.5t32 64.5z" />
    <glyph glyph-name="uni012A" unicode="&#x12a;" 
d="M83 0h88v666h-88v-666zM285 756v68h-313v-68h313z" />
    <glyph glyph-name="imacron" unicode="&#x12b;" horiz-adv-x="232" 
d="M159 0v478h-86v-478h86zM250 570v67h-265v-67h265z" />
    <glyph glyph-name="Ibreve" unicode="&#x12c;" 
d="M83 0h88v666h-88v-666zM203 849q0 -29 -18.5 -46t-56.5 -17q-37 0 -56 16.5t-19 46.5h-68q0 -57 39.5 -87t103.5 -30t104 30t40 87h-69z" />
    <glyph glyph-name="uni012D" unicode="&#x12d;" horiz-adv-x="232" 
d="M159 0v478h-86v-478h86zM256 668h-66q0 -32 -17.5 -51.5t-54.5 -19.5t-54.5 19.5t-17.5 51.5h-66q0 -60 39 -92.5t99 -32.5t99 32.5t39 92.5z" />
    <glyph glyph-name="Iogonek" unicode="&#x12e;" 
d="M164 -131q-15 -5 -32 -5q-20 0 -28.5 10.5t-8.5 27.5t7 31.5t18.5 26.5t25 21.5l25.5 18.5v666h-88v-666q-22 -18 -41 -42t-19 -63q0 -37 21 -60t65 -23q18 0 34.5 3.5t27.5 8.5z" />
    <glyph glyph-name="iogonek" unicode="&#x12f;" horiz-adv-x="232" 
d="M58 612q0 -23 15.5 -40.5t42.5 -17.5q26 0 41.5 17.5t15.5 40.5q0 24 -15.5 41t-41.5 17q-27 0 -42.5 -17t-15.5 -41zM151 -131q-15 -5 -32 -5q-37 0 -37 38q0 17 7.5 31.5t18.5 26.5t25 21.5t26 18.5v478h-86v-478q-11 -8 -22 -18.5t-20 -23t-15 -28.5t-6 -35
q0 -37 21.5 -60t65.5 -23q18 0 35.5 3.5t26.5 8.5z" />
    <glyph glyph-name="Idotaccent" unicode="&#x130;" 
d="M83 0h88v666h-88v-666zM71 801q0 -23 15.5 -40.5t41.5 -17.5q27 0 42.5 17.5t15.5 40.5q0 24 -15.5 41t-42.5 17q-26 0 -41.5 -17t-15.5 -41z" />
    <glyph glyph-name="dotlessi" unicode="&#x131;" horiz-adv-x="231" 
d="M159 0v478h-86v-478h86z" />
    <glyph glyph-name="IJ" unicode="&#x132;" horiz-adv-x="627" 
d="M83 0h88v666h-88v-666zM267 7q23 -8 54 -12.5t58 -4.5q87 0 128.5 48t41.5 129v499h-88v-500q0 -48 -21.5 -75t-76.5 -27q-20 0 -42.5 3.5t-42.5 8.5z" />
    <glyph glyph-name="ij" unicode="&#x133;" horiz-adv-x="463" 
d="M58 607q0 -23 15.5 -40.5t42.5 -17.5q26 0 41.5 17.5t15.5 40.5t-15.5 40.5t-41.5 17.5q-27 0 -42.5 -17.5t-15.5 -40.5zM159 0v478h-86v-478h86zM289 607q0 -23 15.5 -40.5t42.5 -17.5q26 0 41.5 17.5t15.5 40.5t-15.5 40.5t-41.5 17.5q-27 0 -42.5 -17.5t-15.5 -40.5z
M251 -115q-11 0 -22 1t-22 4l-6 -68q14 -5 32.5 -7.5t35.5 -2.5q63 0 92 32t29 91v543h-86v-534q0 -29 -11.5 -44t-41.5 -15z" />
    <glyph glyph-name="Jcircumflex" unicode="&#x134;" horiz-adv-x="373" 
d="M14 7q23 -8 54 -12.5t58 -4.5q87 0 128.5 48t41.5 129v499h-88v-500q0 -48 -21.5 -75t-76.5 -27q-20 0 -42.5 3.5t-42.5 8.5zM293 862h-83l-113 -132h83l72 85l73 -85h83z" />
    <glyph glyph-name="jcircumflex" unicode="&#x135;" horiz-adv-x="231" 
d="M20 -115q30 0 41.5 15t11.5 44v534h86v-543q0 -59 -29 -91t-92 -32q-17 0 -35.5 2.5t-32.5 7.5l6 68q11 -3 22 -4t22 -1zM263 543h-80l-66 102l-66 -102h-80l103 152h86z" />
    <glyph glyph-name="Kcommaaccent" unicode="&#x136;" horiz-adv-x="591" 
d="M78 0h88v324l295 -324h114l-317 342l313 324h-114l-291 -306v306h-88v-666zM359 -75h-98l-35 -175h71z" />
    <glyph glyph-name="kcommaaccent" unicode="&#x137;" horiz-adv-x="473" 
d="M361 0h102l-220 245l211 233h-103l-192 -219v407h-86v-666h86v230zM306 -75h-98l-35 -175h71z" />
    <glyph glyph-name="kgreenlandic" unicode="&#x138;" horiz-adv-x="472" 
d="M361 0h102l-220 245l211 233h-101l-194 -216v216h-86v-478h86v228z" />
    <glyph glyph-name="Lacute" unicode="&#x139;" horiz-adv-x="510" 
d="M280 862h-113l-83 -132h82zM78 0h408v76h-320v590h-88v-666z" />
    <glyph glyph-name="lacute" unicode="&#x13a;" horiz-adv-x="271" 
d="M270 862h-113l-83 -132h82zM246 2l-3 65q-9 -2 -18 -3.5t-20 -1.5q-27 0 -37.5 14.5t-10.5 40.5v549h-86v-549q0 -57 23.5 -90.5t83.5 -33.5q20 0 38 2.5t30 6.5z" />
    <glyph glyph-name="Lcommaaccent" unicode="&#x13b;" horiz-adv-x="510" 
d="M342 -75h-98l-35 -175h71zM78 0h408v76h-320v590h-88v-666z" />
    <glyph glyph-name="lcommaaccent" unicode="&#x13c;" horiz-adv-x="271" 
d="M208 -75h-98l-35 -175h71zM246 2l-3 65q-9 -2 -18 -3.5t-20 -1.5q-27 0 -37.5 14.5t-10.5 40.5v549h-86v-549q0 -57 23.5 -90.5t83.5 -33.5q20 0 38 2.5t30 6.5z" />
    <glyph glyph-name="Lcaron" unicode="&#x13d;" horiz-adv-x="510" 
d="M436 666h-100l-46 -213h65zM78 0h408v76h-320v590h-88v-666z" />
    <glyph glyph-name="lcaron" unicode="&#x13e;" horiz-adv-x="355" 
d="M380 666h-100l-46 -213h65zM246 2l-3 65q-9 -2 -18 -3.5t-20 -1.5q-27 0 -37.5 14.5t-10.5 40.5v549h-86v-549q0 -57 23.5 -90.5t83.5 -33.5q20 0 38 2.5t30 6.5z" />
    <glyph glyph-name="Ldot" unicode="&#x13f;" horiz-adv-x="510" 
d="M78 0h408v76h-320v590h-88v-666zM280 301q0 -26 16 -42.5t43 -16.5t43 16.5t16 42.5t-16 42.5t-43 16.5t-43 -16.5t-16 -42.5z" />
    <glyph glyph-name="ldot" unicode="&#x140;" horiz-adv-x="357" 
d="M246 2l-3 65q-9 -2 -18 -3.5t-20 -1.5q-27 0 -37.5 14.5t-10.5 40.5v549h-86v-549q0 -57 23.5 -90.5t83.5 -33.5q20 0 38 2.5t30 6.5zM233 282q0 -26 16 -42.5t43 -16.5t43 16.5t16 42.5t-16 42.5t-43 16.5t-43 -16.5t-16 -42.5z" />
    <glyph glyph-name="Lslash" unicode="&#x141;" horiz-adv-x="517" 
d="M23 253l61 28v-281h408v76h-320v246l162 76v80l-162 -76v264h-88v-305l-61 -28v-80z" />
    <glyph glyph-name="lslash" unicode="&#x142;" horiz-adv-x="273" 
d="M19 281l52 26v-190q0 -57 23.5 -90.5t83.5 -33.5q20 0 38 2.5t30 6.5l-3 65q-9 -2 -18 -3.5t-20 -1.5q-27 0 -37.5 14.5t-10.5 40.5v234l86 45v82l-86 -45v233h-86v-277l-52 -26v-82z" />
    <glyph glyph-name="Nacute" unicode="&#x143;" horiz-adv-x="693" 
d="M485 862h-113l-83 -132h82zM78 0h85v529l365 -529h87v666h-85v-529l-365 529h-87v-666z" />
    <glyph glyph-name="nacute" unicode="&#x144;" horiz-adv-x="540" 
d="M227 543h81l88 152h-108zM472 0v325q0 77 -36.5 120t-117.5 43q-62 0 -102 -30.5t-60 -77.5v98h-83v-478h86v256q0 75 37 116.5t94 41.5q49 0 72.5 -26.5t23.5 -75.5v-312h86z" />
    <glyph glyph-name="Ncommaaccent" unicode="&#x145;" horiz-adv-x="693" 
d="M405 -75h-98l-35 -175h71zM78 0h85v529l365 -529h87v666h-85v-529l-365 529h-87v-666z" />
    <glyph glyph-name="ncommaaccent" unicode="&#x146;" horiz-adv-x="540" 
d="M329 -75h-98l-35 -175h71zM472 0v325q0 77 -36.5 120t-117.5 43q-62 0 -102 -30.5t-60 -77.5v98h-83v-478h86v256q0 75 37 116.5t94 41.5q49 0 72.5 -26.5t23.5 -75.5v-312h86z" />
    <glyph glyph-name="Ncaron" unicode="&#x147;" horiz-adv-x="693" 
d="M78 0h85v529l365 -529h87v666h-85v-529l-365 529h-87v-666zM504 862h-83l-73 -86l-72 86h-83l113 -132h83z" />
    <glyph glyph-name="ncaron" unicode="&#x148;" horiz-adv-x="540" 
d="M418 695h-80l-66 -102l-66 102h-80l103 -152h86zM472 0v325q0 77 -36.5 120t-117.5 43q-62 0 -102 -30.5t-60 -77.5v98h-83v-478h86v256q0 75 37 116.5t94 41.5q49 0 72.5 -26.5t23.5 -75.5v-312h86z" />
    <glyph glyph-name="napostrophe" unicode="&#x149;" horiz-adv-x="647" 
d="M157 666h-100l-46 -213h65zM579 0v325q0 77 -36.5 120t-117.5 43q-62 0 -102 -30.5t-60 -77.5v98h-83v-478h86v256q0 75 37 116.5t94 41.5q49 0 72.5 -26.5t23.5 -75.5v-312h86z" />
    <glyph glyph-name="Eng" unicode="&#x14a;" horiz-adv-x="693" 
d="M615 666h-85v-523l-365 523h-87v-666h85v522l363 -510q-8 -28 -21 -48.5t-31.5 -36.5t-42 -28.5t-51.5 -23.5l28 -63q111 37 159 103.5t48 162.5v588z" />
    <glyph glyph-name="eng" unicode="&#x14b;" horiz-adv-x="540" 
d="M279 -127l37 -61q82 42 119 102t37 144v267q0 77 -36.5 120t-117.5 43q-62 0 -102 -30.5t-60 -77.5v98h-83v-478h86v256q0 75 37 116.5t94 41.5q49 0 72.5 -26.5t23.5 -75.5v-259q0 -63 -25 -105.5t-82 -74.5z" />
    <glyph glyph-name="Omacron" unicode="&#x14c;" horiz-adv-x="692" 
d="M43 333q0 -69 18.5 -132t56 -110t94.5 -75t134 -28t134 28t94.5 75t56 110t18.5 132t-18.5 132t-56 110t-94.5 75t-134 28t-134 -28t-94.5 -75t-56 -110t-18.5 -132zM346 61q-56 0 -96.5 20t-66.5 56t-39 86t-13 110t13 110t39 86t66.5 56t96.5 20q55 0 96 -20t67 -56
t39 -86t13 -110t-13 -110t-39 -86t-67 -56t-96 -20zM503 756v68h-313v-68h313z" />
    <glyph glyph-name="omacron" unicode="&#x14d;" horiz-adv-x="515" 
d="M390 570v67h-265v-67h265zM475 239q0 53 -13.5 98.5t-40.5 79t-68 52.5t-95 19t-95 -19t-68.5 -52.5t-41 -79t-13.5 -98.5t13.5 -98.5t41 -79t68.5 -52.5t95 -19t95 19t68 52.5t40.5 79t13.5 98.5zM389 239q0 -84 -31.5 -133t-99.5 -49t-100 49.5t-32 132.5t32 132.5
t100 49.5t99.5 -49t31.5 -133z" />
    <glyph glyph-name="Obreve" unicode="&#x14e;" horiz-adv-x="692" 
d="M43 333q0 -69 18.5 -132t56 -110t94.5 -75t134 -28t134 28t94.5 75t56 110t18.5 132t-18.5 132t-56 110t-94.5 75t-134 28t-134 -28t-94.5 -75t-56 -110t-18.5 -132zM346 61q-56 0 -96.5 20t-66.5 56t-39 86t-13 110t13 110t39 86t66.5 56t96.5 20q55 0 96 -20t67 -56
t39 -86t13 -110t-13 -110t-39 -86t-67 -56t-96 -20zM420 849q0 -29 -18.5 -46t-56.5 -17q-37 0 -56 16.5t-19 46.5h-68q0 -57 39.5 -87t103.5 -30t104 30t40 87h-69z" />
    <glyph glyph-name="obreve" unicode="&#x14f;" horiz-adv-x="515" 
d="M475 239q0 53 -13.5 98.5t-40.5 79t-68 52.5t-95 19t-95 -19t-68.5 -52.5t-41 -79t-13.5 -98.5t13.5 -98.5t41 -79t68.5 -52.5t95 -19t95 19t68 52.5t40.5 79t13.5 98.5zM389 239q0 -84 -31.5 -133t-99.5 -49t-100 49.5t-32 132.5t32 132.5t100 49.5t99.5 -49t31.5 -133z
M396 668h-66q0 -32 -17.5 -51.5t-54.5 -19.5t-54.5 19.5t-17.5 51.5h-66q0 -60 39 -92.5t99 -32.5t99 32.5t39 92.5z" />
    <glyph glyph-name="Ohungarumlaut" unicode="&#x150;" horiz-adv-x="692" 
d="M565 862h-99l-61 -132h78zM366 862h-93l-55 -132h75zM43 333q0 -69 18.5 -132t56 -110t94.5 -75t134 -28t134 28t94.5 75t56 110t18.5 132t-18.5 132t-56 110t-94.5 75t-134 28t-134 -28t-94.5 -75t-56 -110t-18.5 -132zM346 61q-56 0 -96.5 20t-66.5 56t-39 86t-13 110
t13 110t39 86t66.5 56t96.5 20q55 0 96 -20t67 -56t39 -86t13 -110t-13 -110t-39 -86t-67 -56t-96 -20z" />
    <glyph glyph-name="ohungarumlaut" unicode="&#x151;" horiz-adv-x="515" 
d="M468 695h-98l-60 -152h78zM279 695h-93l-53 -152h74zM475 239q0 53 -13.5 98.5t-40.5 79t-68 52.5t-95 19t-95 -19t-68.5 -52.5t-41 -79t-13.5 -98.5t13.5 -98.5t41 -79t68.5 -52.5t95 -19t95 19t68 52.5t40.5 79t13.5 98.5zM389 239q0 -84 -31.5 -133t-99.5 -49
t-100 49.5t-32 132.5t32 132.5t100 49.5t99.5 -49t31.5 -133z" />
    <glyph glyph-name="OE" unicode="&#x152;" horiz-adv-x="1005" 
d="M382 678q-87 0 -151 -25t-106 -70t-62 -108.5t-20 -141.5t20 -141.5t62 -108.5t106 -70t151 -25q37 0 74 3.5t67 8.5h430v76h-342v230h319v76h-319v208h342v76h-430q-30 5 -67 8.5t-74 3.5zM523 75q-65 -13 -138 -13q-67 0 -115 19.5t-79 55t-46 85.5t-15 111
q0 60 15 109.5t45.5 85.5t78.5 56t114 20q38 0 72 -3.5t68 -9.5v-516z" />
    <glyph glyph-name="oe" unicode="&#x153;" horiz-adv-x="836" 
d="M800 210v52q0 48 -10.5 89.5t-33.5 71.5t-59 47.5t-88 17.5q-64 0 -108.5 -25t-70.5 -69q-26 43 -69 68.5t-103 25.5q-54 0 -95 -19t-68.5 -52.5t-41 -79t-13.5 -98.5t13.5 -98.5t41 -79t68.5 -52.5t95 -19q61 0 104.5 25.5t69.5 69.5q23 -42 72.5 -68.5t117.5 -26.5
q51 0 95 10t78 27l-14 59q-32 -14 -69 -22.5t-78 -8.5q-81 0 -117 40.5t-41 114.5h324zM390 239q0 -84 -32 -132t-100 -48q-69 0 -100.5 48t-31.5 132t31.5 132t100.5 48q68 0 100 -48t32 -132zM608 427q31 0 52 -10.5t34 -29.5t19 -45.5t6 -57.5v-12h-243q5 78 37 116.5
t95 38.5z" />
    <glyph glyph-name="Racute" unicode="&#x154;" horiz-adv-x="645" 
d="M573 469q0 43 -13.5 79t-40.5 62t-67 41t-92 15h-282v-666h88v271h163l174 -271h106l-188 279q71 19 111.5 70t40.5 120zM484 469q0 -58 -36 -92.5t-100 -34.5h-182v252h182q65 0 100.5 -32.5t35.5 -92.5zM431 862h-113l-83 -132h82z" />
    <glyph glyph-name="racute" unicode="&#x155;" horiz-adv-x="337" 
d="M147 543h81l88 152h-108zM334 401v77q-10 3 -21 4t-22 1q-57 0 -88 -30.5t-45 -78.5v104h-85v-478h87v239q0 35 8 65.5t24.5 52.5t41.5 34.5t58 12.5q11 0 22 -0.5t20 -2.5z" />
    <glyph glyph-name="Rcommaaccent" unicode="&#x156;" horiz-adv-x="645" 
d="M380 -75h-98l-35 -175h71zM573 469q0 43 -13.5 79t-40.5 62t-67 41t-92 15h-282v-666h88v271h163l174 -271h106l-188 279q71 19 111.5 70t40.5 120zM484 469q0 -58 -36 -92.5t-100 -34.5h-182v252h182q65 0 100.5 -32.5t35.5 -92.5z" />
    <glyph glyph-name="rcommaaccent" unicode="&#x157;" horiz-adv-x="337" 
d="M166 -75h-98l-35 -175h71zM334 401v77q-10 3 -21 4t-22 1q-57 0 -88 -30.5t-45 -78.5v104h-85v-478h87v239q0 35 8 65.5t24.5 52.5t41.5 34.5t58 12.5q11 0 22 -0.5t20 -2.5z" />
    <glyph glyph-name="Rcaron" unicode="&#x158;" horiz-adv-x="645" 
d="M573 469q0 43 -13.5 79t-40.5 62t-67 41t-92 15h-282v-666h88v271h163l174 -271h106l-188 279q71 19 111.5 70t40.5 120zM484 469q0 -58 -36 -92.5t-100 -34.5h-182v252h182q65 0 100.5 -32.5t35.5 -92.5zM449 862h-83l-73 -86l-72 86h-83l113 -132h83z" />
    <glyph glyph-name="rcaron" unicode="&#x159;" horiz-adv-x="337" 
d="M351 695h-80l-66 -102l-66 102h-80l103 -152h86zM334 401v77q-10 3 -21 4t-22 1q-57 0 -88 -30.5t-45 -78.5v104h-85v-478h87v239q0 35 8 65.5t24.5 52.5t41.5 34.5t58 12.5q11 0 22 -0.5t20 -2.5z" />
    <glyph glyph-name="Sacute" unicode="&#x15a;" horiz-adv-x="560" 
d="M523 178q0 46 -18 78t-49 54.5t-72 38t-86 28.5q-43 12 -74.5 22.5t-52 23.5t-30.5 31.5t-10 46.5q0 59 40.5 82t114.5 23q53 0 103.5 -12.5t92.5 -30.5l17 71q-46 21 -98 32.5t-116 11.5q-113 0 -176.5 -43.5t-63.5 -138.5q0 -78 54.5 -122t164.5 -71q87 -22 130 -50.5
t43 -83.5q0 -56 -42.5 -82t-113.5 -26q-54 0 -109.5 13.5t-104.5 33.5l-20 -71q52 -21 113 -35t121 -14q113 0 177.5 50t64.5 140zM423 862h-113l-83 -132h82z" />
    <glyph glyph-name="sacute" unicode="&#x15b;" horiz-adv-x="426" 
d="M158 543h81l88 152h-108zM393 138q0 31 -12 53t-33 38.5t-50 28t-63 21.5q-30 9 -51 16t-35 15.5t-20.5 20t-6.5 29.5q0 35 25 49t71 14q40 0 77 -9t67 -21l16 62q-32 14 -72 23.5t-90 9.5q-85 0 -131.5 -33t-46.5 -105q0 -56 39.5 -89t131.5 -58q55 -15 77.5 -31
t22.5 -47q0 -70 -96 -70q-39 0 -77.5 9.5t-76.5 24.5l-19 -63q42 -17 87 -26.5t87 -9.5q83 0 131 38.5t48 109.5z" />
    <glyph glyph-name="Scircumflex" unicode="&#x15c;" horiz-adv-x="560" 
d="M523 178q0 46 -18 78t-49 54.5t-72 38t-86 28.5q-43 12 -74.5 22.5t-52 23.5t-30.5 31.5t-10 46.5q0 59 40.5 82t114.5 23q53 0 103.5 -12.5t92.5 -30.5l17 71q-46 21 -98 32.5t-116 11.5q-113 0 -176.5 -43.5t-63.5 -138.5q0 -78 54.5 -122t164.5 -71q87 -22 130 -50.5
t43 -83.5q0 -56 -42.5 -82t-113.5 -26q-54 0 -109.5 13.5t-104.5 33.5l-20 -71q52 -21 113 -35t121 -14q113 0 177.5 50t64.5 140zM329 862h-83l-113 -132h83l72 85l73 -85h83z" />
    <glyph glyph-name="scircumflex" unicode="&#x15d;" horiz-adv-x="426" 
d="M257 695h-86l-103 -152h80l66 102l66 -102h80zM393 138q0 31 -12 53t-33 38.5t-50 28t-63 21.5q-30 9 -51 16t-35 15.5t-20.5 20t-6.5 29.5q0 35 25 49t71 14q40 0 77 -9t67 -21l16 62q-32 14 -72 23.5t-90 9.5q-85 0 -131.5 -33t-46.5 -105q0 -56 39.5 -89t131.5 -58
q55 -15 77.5 -31t22.5 -47q0 -70 -96 -70q-39 0 -77.5 9.5t-76.5 24.5l-19 -63q42 -17 87 -26.5t87 -9.5q83 0 131 38.5t48 109.5z" />
    <glyph glyph-name="Scedilla" unicode="&#x15e;" horiz-adv-x="560" 
d="M370 -108q0 17 -7.5 28.5t-20.5 18.5t-30 10t-36 4l7 35q111 1 175.5 50.5t64.5 139.5q0 46 -18 78t-49 54.5t-72 38t-86 28.5q-43 12 -74.5 22.5t-52 23.5t-30.5 31.5t-10 46.5q0 59 40.5 82t114.5 23q53 0 103.5 -12.5t92.5 -30.5l17 71q-46 21 -98 32.5t-116 11.5
q-113 0 -176.5 -43.5t-63.5 -138.5q0 -78 54.5 -122t164.5 -71q87 -22 130 -50.5t43 -83.5q0 -56 -42.5 -82t-113.5 -26q-54 0 -109.5 13.5t-104.5 33.5l-20 -71q43 -17 92.5 -29.5t99.5 -17.5l-17 -72l26.5 -2t24 -4t17 -8.5t6.5 -15.5t-7 -16t-18.5 -9.5t-25.5 -5
t-29 -2.5l3 -43q31 1 59 6t48 14.5t32 24t12 35.5z" />
    <glyph glyph-name="Scedilla" unicode="&#xf6c1;" horiz-adv-x="560" 
d="M370 -108q0 17 -7.5 28.5t-20.5 18.5t-30 10t-36 4l7 35q111 1 175.5 50.5t64.5 139.5q0 46 -18 78t-49 54.5t-72 38t-86 28.5q-43 12 -74.5 22.5t-52 23.5t-30.5 31.5t-10 46.5q0 59 40.5 82t114.5 23q53 0 103.5 -12.5t92.5 -30.5l17 71q-46 21 -98 32.5t-116 11.5
q-113 0 -176.5 -43.5t-63.5 -138.5q0 -78 54.5 -122t164.5 -71q87 -22 130 -50.5t43 -83.5q0 -56 -42.5 -82t-113.5 -26q-54 0 -109.5 13.5t-104.5 33.5l-20 -71q43 -17 92.5 -29.5t99.5 -17.5l-17 -72l26.5 -2t24 -4t17 -8.5t6.5 -15.5t-7 -16t-18.5 -9.5t-25.5 -5
t-29 -2.5l3 -43q31 1 59 6t48 14.5t32 24t12 35.5z" />
    <glyph glyph-name="scedilla" unicode="&#x15f;" horiz-adv-x="426" 
d="M304 -108q0 17 -7.5 28.5t-20.5 18.5t-30 10t-36 4l8 37q81 2 128 40t47 108q0 31 -12 53t-33 38.5t-50 28t-63 21.5q-30 9 -51 16t-35 15.5t-20.5 20t-6.5 29.5q0 35 25 49t71 14q40 0 77 -9t67 -21l16 62q-32 14 -72 23.5t-90 9.5q-85 0 -131.5 -33t-46.5 -105
q0 -56 39.5 -89t131.5 -58q55 -15 77.5 -31t22.5 -47q0 -70 -96 -70q-39 0 -77.5 9.5t-76.5 24.5l-19 -63q65 -26 134 -34l-18 -74l26.5 -2t24 -4t17 -8.5t6.5 -15.5t-7 -16t-18.5 -9.5t-25.5 -5t-29 -2.5l3 -43q31 1 59 6t48 14.5t32 24t12 35.5z" />
    <glyph glyph-name="scedilla" unicode="&#xf6c2;" horiz-adv-x="426" 
d="M304 -108q0 17 -7.5 28.5t-20.5 18.5t-30 10t-36 4l8 37q81 2 128 40t47 108q0 31 -12 53t-33 38.5t-50 28t-63 21.5q-30 9 -51 16t-35 15.5t-20.5 20t-6.5 29.5q0 35 25 49t71 14q40 0 77 -9t67 -21l16 62q-32 14 -72 23.5t-90 9.5q-85 0 -131.5 -33t-46.5 -105
q0 -56 39.5 -89t131.5 -58q55 -15 77.5 -31t22.5 -47q0 -70 -96 -70q-39 0 -77.5 9.5t-76.5 24.5l-19 -63q65 -26 134 -34l-18 -74l26.5 -2t24 -4t17 -8.5t6.5 -15.5t-7 -16t-18.5 -9.5t-25.5 -5t-29 -2.5l3 -43q31 1 59 6t48 14.5t32 24t12 35.5z" />
    <glyph glyph-name="Scaron" unicode="&#x160;" horiz-adv-x="560" 
d="M523 178q0 46 -18 78t-49 54.5t-72 38t-86 28.5q-43 12 -74.5 22.5t-52 23.5t-30.5 31.5t-10 46.5q0 59 40.5 82t114.5 23q53 0 103.5 -12.5t92.5 -30.5l17 71q-46 21 -98 32.5t-116 11.5q-113 0 -176.5 -43.5t-63.5 -138.5q0 -78 54.5 -122t164.5 -71q87 -22 130 -50.5
t43 -83.5q0 -56 -42.5 -82t-113.5 -26q-54 0 -109.5 13.5t-104.5 33.5l-20 -71q52 -21 113 -35t121 -14q113 0 177.5 50t64.5 140zM437 862h-83l-73 -86l-72 86h-83l113 -132h83z" />
    <glyph glyph-name="scaron" unicode="&#x161;" horiz-adv-x="426" 
d="M358 695h-80l-66 -102l-66 102h-80l103 -152h86zM393 138q0 31 -12 53t-33 38.5t-50 28t-63 21.5q-30 9 -51 16t-35 15.5t-20.5 20t-6.5 29.5q0 35 25 49t71 14q40 0 77 -9t67 -21l16 62q-32 14 -72 23.5t-90 9.5q-85 0 -131.5 -33t-46.5 -105q0 -56 39.5 -89t131.5 -58
q55 -15 77.5 -31t22.5 -47q0 -70 -96 -70q-39 0 -77.5 9.5t-76.5 24.5l-19 -63q42 -17 87 -26.5t87 -9.5q83 0 131 38.5t48 109.5z" />
    <glyph glyph-name="Tcommaaccent" unicode="&#x162;" horiz-adv-x="532" 
d="M315 -75h-98l-35 -175h71zM511 590v76h-490v-76h201v-590h88v590h201z" />
    <glyph glyph-name="Tcommaaccent" unicode="&#x21a;" horiz-adv-x="532" 
d="M315 -75h-98l-35 -175h71zM511 590v76h-490v-76h201v-590h88v590h201z" />
    <glyph glyph-name="tcommaaccent" unicode="&#x163;" horiz-adv-x="333" 
d="M251 -75h-98l-35 -175h71zM298 3l-2 64q-12 -3 -25 -5t-26 -2q-35 0 -47 14.5t-12 43.5v287h113v73h-113v125h-86v-125h-67v-73h67v-294q0 -60 28 -90t92 -30q21 0 42.5 3.5t35.5 8.5z" />
    <glyph glyph-name="tcommaaccent" unicode="&#x21b;" horiz-adv-x="333" 
d="M251 -75h-98l-35 -175h71zM298 3l-2 64q-12 -3 -25 -5t-26 -2q-35 0 -47 14.5t-12 43.5v287h113v73h-113v125h-86v-125h-67v-73h67v-294q0 -60 28 -90t92 -30q21 0 42.5 3.5t35.5 8.5z" />
    <glyph glyph-name="Tcaron" unicode="&#x164;" horiz-adv-x="532" 
d="M511 590v76h-490v-76h201v-590h88v590h201zM422 862h-83l-73 -86l-72 86h-83l113 -132h83z" />
    <glyph glyph-name="tcaron" unicode="&#x165;" horiz-adv-x="357" 
d="M333 563h-64l36 173h94zM298 3q-14 -5 -35.5 -8.5t-42.5 -3.5q-64 0 -92 30t-28 90v294h-67v73h67v125h86v-125h113v-73h-113v-287q0 -29 12 -43.5t47 -14.5q13 0 26 2t25 5z" />
    <glyph glyph-name="Tbar" unicode="&#x166;" horiz-adv-x="532" 
d="M437 272v72h-127v246h201v76h-490v-76h201v-246h-128v-72h128v-272h88v272h127z" />
    <glyph glyph-name="tbar" unicode="&#x167;" horiz-adv-x="332" 
d="M33 213h67v-102q0 -60 28 -90t92 -30q21 0 42.5 3.5t35.5 8.5l-2 64q-12 -3 -25 -5t-27 -2q-34 0 -46 14.5t-12 43.5v95h94v71h-94v121h112v73h-111v125h-87v-125h-67v-73h67v-121h-67v-71z" />
    <glyph glyph-name="Utilde" unicode="&#x168;" horiz-adv-x="675" 
d="M599 666h-88v-437q0 -78 -45.5 -122.5t-128.5 -44.5t-128 44.5t-45 122.5v437h-88v-430q0 -50 16.5 -94.5t49 -79t81.5 -54.5t114 -20t114 20t82 54.5t49.5 79t16.5 94.5v430zM454 849q-6 -17 -15 -31.5t-30 -14.5q-13 0 -29 7l-34 15t-37 15t-37 7q-41 0 -63 -23.5
t-36 -67.5l58 -21q8 20 17 33.5t29 13.5q15 0 32.5 -7t36.5 -15.5t38 -15.5t36 -7q19 0 33 7t24.5 19.5t18.5 29t15 35.5z" />
    <glyph glyph-name="utilde" unicode="&#x169;" horiz-adv-x="535" 
d="M68 478v-326q0 -75 36 -118.5t114 -43.5q61 0 100.5 30.5t59.5 76.5v-97h84v478h-86v-256q0 -75 -36.5 -116.5t-92.5 -41.5q-48 0 -70.5 26.5t-22.5 75.5v312h-86zM383 670q-3 -8 -6.5 -16t-8 -14.5t-10.5 -11t-16 -4.5q-12 0 -27 7t-31.5 15.5t-35 15.5t-36.5 7
q-41 0 -62 -23.5t-36 -67.5l56 -21q7 17 16 32t27 15q15 0 31 -7t33 -15.5t34.5 -15.5t35.5 -7q40 0 61 26.5t32 64.5z" />
    <glyph glyph-name="Umacron" unicode="&#x16a;" horiz-adv-x="675" 
d="M599 666h-88v-437q0 -78 -45.5 -122.5t-128.5 -44.5t-128 44.5t-45 122.5v437h-88v-430q0 -50 16.5 -94.5t49 -79t81.5 -54.5t114 -20t114 20t82 54.5t49.5 79t16.5 94.5v430zM494 756v68h-313v-68h313z" />
    <glyph glyph-name="umacron" unicode="&#x16b;" horiz-adv-x="535" 
d="M68 478v-326q0 -75 36 -118.5t114 -43.5q61 0 100.5 30.5t59.5 76.5v-97h84v478h-86v-256q0 -75 -36.5 -116.5t-92.5 -41.5q-48 0 -70.5 26.5t-22.5 75.5v312h-86zM405 570v67h-265v-67h265z" />
    <glyph glyph-name="Ubreve" unicode="&#x16c;" horiz-adv-x="675" 
d="M599 666h-88v-437q0 -78 -45.5 -122.5t-128.5 -44.5t-128 44.5t-45 122.5v437h-88v-430q0 -50 16.5 -94.5t49 -79t81.5 -54.5t114 -20t114 20t82 54.5t49.5 79t16.5 94.5v430zM412 849q0 -29 -18.5 -46t-56.5 -17q-37 0 -56 16.5t-19 46.5h-68q0 -57 39.5 -87t103.5 -30
t104 30t40 87h-69z" />
    <glyph glyph-name="ubreve" unicode="&#x16d;" horiz-adv-x="535" 
d="M68 478v-326q0 -75 36 -118.5t114 -43.5q61 0 100.5 30.5t59.5 76.5v-97h84v478h-86v-256q0 -75 -36.5 -116.5t-92.5 -41.5q-48 0 -70.5 26.5t-22.5 75.5v312h-86zM409 668h-66q0 -32 -17.5 -51.5t-54.5 -19.5t-54.5 19.5t-17.5 51.5h-66q0 -60 39 -92.5t99 -32.5
t99 32.5t39 92.5z" />
    <glyph glyph-name="Uring" unicode="&#x16e;" horiz-adv-x="675" 
d="M430 812q0 35 -23 59t-70 24t-69.5 -24t-22.5 -59q0 -34 22.5 -58t69.5 -24t70 24t23 58zM288 812q0 23 13 35.5t36 12.5q49 0 49 -48q0 -47 -49 -47q-23 0 -36 12t-13 35zM599 666h-88v-437q0 -78 -45.5 -122.5t-128.5 -44.5t-128 44.5t-45 122.5v437h-88v-430
q0 -50 16.5 -94.5t49 -79t81.5 -54.5t114 -20t114 20t82 54.5t49.5 79t16.5 94.5v430z" />
    <glyph glyph-name="uring" unicode="&#x16f;" horiz-adv-x="535" 
d="M365 626q0 35 -23 59t-70 24t-69.5 -24t-22.5 -59q0 -34 22.5 -58.5t69.5 -24.5t70 24.5t23 58.5zM223 626q0 23 13 35t36 12q49 0 49 -47t-49 -47q-23 0 -36 12t-13 35zM68 478v-326q0 -75 36 -118.5t114 -43.5q61 0 100.5 30.5t59.5 76.5v-97h84v478h-86v-256
q0 -75 -36.5 -116.5t-92.5 -41.5q-48 0 -70.5 26.5t-22.5 75.5v312h-86z" />
    <glyph glyph-name="Uhungarumlaut" unicode="&#x170;" horiz-adv-x="675" 
d="M549 862h-99l-61 -132h78zM350 862h-93l-55 -132h75zM599 666h-88v-437q0 -78 -45.5 -122.5t-128.5 -44.5t-128 44.5t-45 122.5v437h-88v-430q0 -50 16.5 -94.5t49 -79t81.5 -54.5t114 -20t114 20t82 54.5t49.5 79t16.5 94.5v430z" />
    <glyph glyph-name="uhungarumlaut" unicode="&#x171;" horiz-adv-x="535" 
d="M68 478v-326q0 -75 36 -118.5t114 -43.5q61 0 100.5 30.5t59.5 76.5v-97h84v478h-86v-256q0 -75 -36.5 -116.5t-92.5 -41.5q-48 0 -70.5 26.5t-22.5 75.5v312h-86zM471 695h-98l-60 -152h78zM282 695h-93l-53 -152h74z" />
    <glyph glyph-name="Uogonek" unicode="&#x172;" horiz-adv-x="675" 
d="M599 666h-88v-437q0 -78 -45.5 -122.5t-128.5 -44.5t-128 44.5t-45 122.5v437h-88v-430q0 -50 16.5 -94.5t49 -79t81.5 -54.5t114 -20q6 0 12.5 0.5t12.5 0.5q-26 -16 -48 -40.5t-22 -59.5t22.5 -56t66.5 -21q22 0 41.5 4t31.5 9l-8 48q-19 -7 -40 -7q-42 0 -42 35
q0 18 9 34t25 30.5t37 28l44 27.5q60 35 90 89.5t30 125.5v430z" />
    <glyph glyph-name="uogonek" unicode="&#x173;" horiz-adv-x="535" 
d="M68 478v-326q0 -75 36 -118.5t114 -43.5q61 0 100.5 30.5t59.5 76.5v-97q-14 -8 -27.5 -18.5t-24.5 -24t-18 -30t-7 -37.5q0 -35 22 -56.5t67 -21.5q21 0 40.5 4t31.5 9l-8 46q-19 -7 -41 -7q-41 0 -41 35q0 18 8.5 32.5t22 26.5t29 22l30.5 20v478h-86v-256
q0 -75 -36.5 -116.5t-92.5 -41.5q-48 0 -70.5 26.5t-22.5 75.5v312h-86z" />
    <glyph glyph-name="Wcircumflex" unicode="&#x174;" horiz-adv-x="855" 
d="M468 862h-83l-113 -132h83l72 85l73 -85h83zM477 666h-98l-150 -534l-134 534h-87l180 -666h82l158 582l157 -582h83l179 666h-86l-135 -534z" />
    <glyph glyph-name="wcircumflex" unicode="&#x175;" horiz-adv-x="695" 
d="M390 695h-86l-103 -152h80l66 102l66 -102h80zM394 478h-93l-110 -381l-101 381h-83l140 -478h85l116 398l115 -398h85l141 478h-84l-100 -381z" />
    <glyph glyph-name="Ycircumflex" unicode="&#x176;" horiz-adv-x="547" 
d="M537 666h-92l-171 -319l-171 319h-93l220 -397v-269h88v269zM315 862h-83l-113 -132h83l72 85l73 -85h83z" />
    <glyph glyph-name="ycircumflex" unicode="&#x177;" horiz-adv-x="429" 
d="M216 90l-123 388h-89l170 -480l-59 -176h86l224 656h-89zM266 695h-86l-103 -152h80l66 102l66 -102h80z" />
    <glyph glyph-name="Ydieresis" unicode="&#x178;" horiz-adv-x="547" 
d="M537 666h-92l-171 -319l-171 319h-93l220 -397v-269h88v269zM319 794q0 -23 14 -37t38 -14q25 0 39 14t14 37t-14 37t-39 14q-24 0 -38 -14t-14 -37zM124 794q0 -23 14 -37t38 -14q25 0 39 14t14 37t-14 37t-39 14q-24 0 -38 -14t-14 -37z" />
    <glyph glyph-name="Zacute" unicode="&#x179;" horiz-adv-x="573" 
d="M525 0v76h-377l368 512v78h-452v-76h357l-368 -512v-78h472zM429 862h-113l-83 -132h82z" />
    <glyph glyph-name="zacute" unicode="&#x17a;" horiz-adv-x="448" 
d="M185 543h81l88 152h-108zM408 0v69h-267l262 340v69h-344v-69h245l-259 -340v-69h363z" />
    <glyph glyph-name="Zdotaccent" unicode="&#x17b;" horiz-adv-x="573" 
d="M233 801q0 -23 15.5 -40.5t41.5 -17.5q27 0 42.5 17.5t15.5 40.5q0 24 -15.5 41t-42.5 17q-26 0 -41.5 -17t-15.5 -41zM525 0v76h-377l368 512v78h-452v-76h357l-368 -512v-78h472z" />
    <glyph glyph-name="zdotaccent" unicode="&#x17c;" horiz-adv-x="448" 
d="M408 0v69h-267l262 340v69h-344v-69h245l-259 -340v-69h363zM173 611q0 -23 15.5 -40.5t41.5 -17.5q27 0 42.5 17.5t15.5 40.5t-15.5 40.5t-42.5 17.5q-26 0 -41.5 -17.5t-15.5 -40.5z" />
    <glyph glyph-name="Zcaron" unicode="&#x17d;" horiz-adv-x="573" 
d="M525 0v76h-377l368 512v78h-452v-76h357l-368 -512v-78h472zM455 862h-83l-73 -86l-72 86h-83l113 -132h83z" />
    <glyph glyph-name="zcaron" unicode="&#x17e;" horiz-adv-x="448" 
d="M382 695h-80l-66 -102l-66 102h-80l103 -152h86zM408 0v69h-267l262 340v69h-344v-69h245l-259 -340v-69h363z" />
    <glyph glyph-name="florin" unicode="&#x192;" horiz-adv-x="394" 
d="M141 369l-35 -409q-4 -44 -19 -62t-51 -18q-14 0 -29 2t-29 7l-10 -64q17 -5 39 -9t47 -4q125 0 138 148l36 409h104v69h-98l8 93q4 42 19 59.5t52 17.5q18 0 33.5 -2.5t29.5 -7.5l10 63q-20 8 -41.5 11.5t-48.5 3.5q-69 0 -101.5 -36t-38.5 -108l-8 -94h-79v-69h72z" />
    <glyph glyph-name="Aringacute" unicode="&#x1fa;" horiz-adv-x="625" 
d="M418 950h-104l-35 -104h77zM406 726q0 34 -23 58.5t-70 24.5t-70 -24.5t-23 -58.5q0 -23 10.5 -40.5t30.5 -26.5l-244 -659h89l61 175h291l62 -175h89l-246 659q21 9 32 26.5t11 40.5zM264 726q0 23 13 35t36 12t36 -12t13 -35t-13 -35t-36 -12t-36 12t-13 35zM313 595
l120 -346h-240z" />
    <glyph glyph-name="aringacute" unicode="&#x1fb;" horiz-adv-x="512" 
d="M306 752h-77l36 105h105zM171 625q0 34 23 58.5t70 24.5t69.5 -24.5t22.5 -58.5q0 -35 -22.5 -59t-69.5 -24t-70 24t-23 59zM215 625q0 -23 13 -35t36 -12t36 12t13 35t-13 35t-36 12t-36 -12t-13 -35zM364 0v81q-25 -44 -67.5 -67.5t-99.5 -23.5q-71 0 -110 38t-39 103
q0 38 12.5 66t34.5 46t53 27t68 9h144v44q0 48 -28 70t-86 22q-41 0 -78 -8.5t-72 -24.5l-15 68q81 38 176 38q94 0 141.5 -39t47.5 -120v-329h-82zM360 217h-132q-97 0 -97 -85q0 -41 23.5 -61t67.5 -20q30 0 55 10.5t43.5 29t29 43.5t10.5 53v30z" />
    <glyph glyph-name="AEacute" unicode="&#x1fc;" horiz-adv-x="850" 
d="M802 666h-537l-248 -666h89l62 176h289l63 -176h282v76h-227l-80 230h284v76h-311l-73 208h407v76zM313 598l120 -349h-240zM491 862h-113l-83 -132h82z" />
    <glyph glyph-name="aeacute" unicode="&#x1fd;" horiz-adv-x="812" 
d="M374 543h81l88 152h-108zM776 212v52q0 48 -10.5 89t-33 71t-58.5 47t-87 17q-61 0 -103 -22.5t-68 -60.5q-20 41 -63 62t-103 21q-52 0 -93 -11t-71 -27l15 -65q32 14 66.5 22t76.5 8q60 0 91.5 -26t31.5 -83v-32h-148q-86 0 -128.5 -35.5t-42.5 -104.5
q0 -71 45.5 -107.5t123.5 -36.5q69 0 115.5 26.5t78.5 73.5q23 -44 71 -72t118 -28q50 0 93.5 10t77.5 27l-15 59q-32 -14 -68 -22.5t-76 -8.5q-43 0 -72.5 10.5t-48 31t-27.5 49.5t-11 66h323zM367 181q0 -57 -38.5 -94t-101.5 -37q-51 0 -75 22t-24 60q0 80 98 80h141v-31
zM586 427q59 0 83.5 -40t24.5 -101v-12h-240q11 153 132 153z" />
    <glyph glyph-name="Oslashacute" unicode="&#x1fe;" horiz-adv-x="692" 
d="M483 862h-113l-83 -132h82zM43 333q0 -98 35.5 -179.5t110.5 -126.5l-46 -111h62l36 88q23 -8 49.5 -12t55.5 -4q77 0 134 28t94.5 75t56 110t18.5 132q0 48 -9 93.5t-27 85t-45.5 72t-64.5 54.5l47 112h-62l-37 -89q-48 17 -105 17q-77 0 -134 -28t-94.5 -75t-56 -110
t-18.5 -132zM131 333q0 60 13 110t39 86t66.5 56t96.5 20q22 0 41 -3.5t36 -9.5l-204 -492q-45 35 -66.5 95t-21.5 138zM346 61q-43 0 -76 12l203 492q45 -35 66.5 -95t21.5 -137q0 -60 -13 -110t-39 -86t-67 -56t-96 -20z" />
    <glyph glyph-name="oslashacute" unicode="&#x1ff;" horiz-adv-x="515" 
d="M213 543h81l88 152h-108zM475 239q0 72 -24.5 129t-74.5 89l45 105h-49l-37 -86q-17 5 -36.5 8.5t-40.5 3.5q-54 0 -95 -19t-68.5 -52.5t-41 -79t-13.5 -98.5q0 -72 24.5 -129.5t75.5 -88.5l-45 -105h49l37 86q17 -5 36 -8.5t41 -3.5q54 0 95 19t68 52.5t40.5 79
t13.5 98.5zM126 239q0 83 32 132.5t100 49.5q28 0 49 -9l-137 -321q-23 23 -33.5 61t-10.5 87zM389 239q0 -84 -31.5 -133t-99.5 -49q-28 0 -50 9l137 320q23 -23 33.5 -60.5t10.5 -86.5z" />
    <glyph glyph-name="Scommaaccent" unicode="&#x218;" horiz-adv-x="560" 
d="M523 178q0 46 -18 78t-49 54.5t-72 38t-86 28.5q-43 12 -74.5 22.5t-52 23.5t-30.5 31.5t-10 46.5q0 59 40.5 82t114.5 23q53 0 103.5 -12.5t92.5 -30.5l17 71q-46 21 -98 32.5t-116 11.5q-113 0 -176.5 -43.5t-63.5 -138.5q0 -78 54.5 -122t164.5 -71q87 -22 130 -50.5
t43 -83.5q0 -56 -42.5 -82t-113.5 -26q-54 0 -109.5 13.5t-104.5 33.5l-20 -71q52 -21 113 -35t121 -14q113 0 177.5 50t64.5 140zM335 -75h-98l-35 -175h71z" />
    <glyph glyph-name="scommaaccent" unicode="&#x219;" horiz-adv-x="426" 
d="M393 138q0 31 -12 53t-33 38.5t-50 28t-63 21.5q-30 9 -51 16t-35 15.5t-20.5 20t-6.5 29.5q0 35 25 49t71 14q40 0 77 -9t67 -21l16 62q-32 14 -72 23.5t-90 9.5q-85 0 -131.5 -33t-46.5 -105q0 -56 39.5 -89t131.5 -58q55 -15 77.5 -31t22.5 -47q0 -70 -96 -70
q-39 0 -77.5 9.5t-76.5 24.5l-19 -63q42 -17 87 -26.5t87 -9.5q83 0 131 38.5t48 109.5zM266 -75h-98l-35 -175h71z" />
    <glyph glyph-name="circumflex" unicode="&#x2c6;" horiz-adv-x="448" 
d="M267 695h-86l-103 -152h80l66 102l66 -102h80z" />
    <glyph glyph-name="caron" unicode="&#x2c7;" horiz-adv-x="448" 
d="M370 695h-80l-66 -102l-66 102h-80l103 -152h86z" />
    <glyph glyph-name="breve" unicode="&#x2d8;" horiz-adv-x="431" 
d="M354 668h-66q0 -32 -17.5 -51.5t-54.5 -19.5t-54.5 19.5t-17.5 51.5h-66q0 -60 39 -92.5t99 -32.5t99 32.5t39 92.5z" />
    <glyph glyph-name="dotaccent" unicode="&#x2d9;" horiz-adv-x="271" 
d="M78 607q0 -23 15.5 -40.5t41.5 -17.5q27 0 42.5 17.5t15.5 40.5t-15.5 40.5t-42.5 17.5q-26 0 -41.5 -17.5t-15.5 -40.5z" />
    <glyph glyph-name="ring" unicode="&#x2da;" horiz-adv-x="341" 
d="M263 626q0 35 -23 59t-70 24t-69.5 -24t-22.5 -59q0 -34 22.5 -58.5t69.5 -24.5t70 24.5t23 58.5zM121 626q0 23 13 35t36 12q49 0 49 -47t-49 -47q-23 0 -36 12t-13 35z" />
    <glyph glyph-name="ogonek" unicode="&#x2db;" horiz-adv-x="317" 
d="M231 -129q-19 -7 -41 -7q-41 0 -41 35q0 18 8.5 32.5t22 26.5t29 22l30.5 20h-82q-14 -8 -28 -18.5t-25 -24t-18.5 -30t-7.5 -37.5q0 -35 22 -56.5t67 -21.5q21 0 40.5 4t31.5 9z" />
    <glyph glyph-name="tilde" unicode="&#x2dc;" horiz-adv-x="481" 
d="M347 670q-3 -8 -6.5 -16t-8 -14.5t-10.5 -11t-16 -4.5q-12 0 -27 7t-31.5 15.5t-35 15.5t-36.5 7q-41 0 -62 -23.5t-36 -67.5l56 -21q7 17 16 32t27 15q15 0 31 -7t33 -15.5t34.5 -15.5t35.5 -7q40 0 61 26.5t32 64.5z" />
    <glyph glyph-name="hungarumlaut" unicode="&#x2dd;" horiz-adv-x="491" 
d="M413 695h-98l-60 -152h78zM224 695h-93l-53 -152h74z" />
    <glyph glyph-name="uni0312" unicode="&#x312;" horiz-adv-x="299" 
d="M78 543h101l42 152h-78z" />
    <glyph glyph-name="uni0315" unicode="&#x315;" horiz-adv-x="301" 
d="M224 666h-100l-46 -213h65z" />
    <glyph glyph-name="uni0326" unicode="&#x326;" horiz-adv-x="289" 
d="M211 -75h-98l-35 -175h71z" />
    <glyph glyph-name="uni037E" unicode="&#x37e;" horiz-adv-x="266" 
d="M139 282q28 0 45 17.5t17 43.5t-17 43t-45 17q-27 0 -44 -17t-17 -43t17 -43.5t44 -17.5zM87 112l-60 -252h66l96 252h-102z" />
    <glyph glyph-name="tonos" unicode="&#x384;" horiz-adv-x="301" 
d="M78 543h76l70 152h-110z" />
    <glyph glyph-name="dieresistonos" unicode="&#x385;" horiz-adv-x="488" 
d="M126 551q23 0 36.5 14t13.5 34t-13.5 34.5t-36.5 14.5q-22 0 -35 -14.5t-13 -34.5t13 -34t35 -14zM198 543h54l59 162h-86zM361 551q23 0 36 14t13 34t-13 34.5t-36 14.5q-22 0 -35.5 -14.5t-13.5 -34.5t13.5 -34t35.5 -14z" />
    <glyph glyph-name="Alphatonos" unicode="&#x386;" horiz-adv-x="625" 
d="M17 0h89l61 175h291l62 -175h89l-248 666h-97zM313 596l120 -347h-240zM55 515h76l70 152h-110z" />
    <glyph glyph-name="anoteleia" unicode="&#x387;" 
d="M68 273q0 -26 16 -42.5t43 -16.5t43 16.5t16 42.5t-16 42.5t-43 16.5t-43 -16.5t-16 -42.5z" />
    <glyph glyph-name="Epsilontonos" unicode="&#x388;" horiz-adv-x="556" 
d="M78 0h430v76h-342v227h319v76h-319v211h341v76h-429v-666zM-111 515h76l70 152h-110z" />
    <glyph glyph-name="Etatonos" unicode="&#x389;" horiz-adv-x="671" 
d="M78 0h88v301h339v-301h88v666h-88v-287h-339v287h-88v-666zM-111 515h76l70 152h-110z" />
    <glyph glyph-name="Iotatonos" unicode="&#x38a;" 
d="M83 0h88v666h-88v-666zM-111 515h76l70 152h-110z" />
    <glyph glyph-name="Omicrontonos" unicode="&#x38c;" horiz-adv-x="692" 
d="M43 333q0 -69 18.5 -132t56 -110t94.5 -75t134 -28t134 28t94.5 75t56 110t18.5 132t-18.5 132t-56 110t-94.5 75t-134 28t-134 -28t-94.5 -75t-56 -110t-18.5 -132zM346 61q-56 0 -96.5 20t-66.5 56t-39 86t-13 110t13 110t39 86t66.5 56t96.5 20q55 0 96 -20t67 -56
t39 -86t13 -110t-13 -110t-39 -86t-67 -56t-96 -20zM-73 515h76l70 152h-110z" />
    <glyph glyph-name="Upsilontonos" unicode="&#x38e;" horiz-adv-x="547" 
d="M537 666h-92l-171 -319l-171 319h-93l220 -397v-269h88v269zM-161 515h76l70 152h-110z" />
    <glyph glyph-name="Omegatonos" unicode="&#x38f;" horiz-adv-x="729" 
d="M655 369q0 71 -22 128t-61.5 97.5t-95.5 62t-125 21.5q-68 0 -124 -21.5t-96 -62t-61.5 -97.5t-21.5 -128q0 -99 39 -171.5t101 -127.5h-125v-70h219v70q-72 58 -110 129t-38 165q0 115 55.5 179.5t161.5 64.5t162 -64.5t56 -179.5q0 -94 -38 -165t-110 -129v-70h219v70
h-125q31 28 56.5 59.5t44 68t29 79t10.5 92.5zM-67 515h76l70 152h-110z" />
    <glyph glyph-name="iotadieresistonos" unicode="&#x390;" horiz-adv-x="284" 
d="M65 110q0 -58 25.5 -89t87.5 -31q50 0 83 10q-1 17 -1 32q-1 12 -1 23.5v13.5q-27 -6 -55 -6q-30 0 -39.5 13.5t-9.5 43.5v358h-90v-368zM10 551q23 0 36.5 14t13.5 34t-13.5 34.5t-36.5 14.5q-22 0 -35 -14.5t-13 -34.5t13 -34t35 -14zM82 543h54l59 162h-86zM245 551
q23 0 36 14t13 34t-13 34.5t-36 14.5q-22 0 -35.5 -14.5t-13.5 -34.5t13.5 -34t35.5 -14z" />
    <glyph glyph-name="Alpha" unicode="&#x391;" horiz-adv-x="625" 
d="M17 0h89l61 175h291l62 -175h89l-248 666h-97zM313 596l120 -347h-240z" />
    <glyph glyph-name="Beta" unicode="&#x392;" horiz-adv-x="604" 
d="M78 0h275q48 0 86.5 13t66.5 36.5t43 57t15 74.5q0 68 -40 108t-104 51q62 21 92.5 64.5t30.5 100.5q0 74 -48 117.5t-140 43.5h-277v-666zM164 371v225h171q60 0 91 -28t31 -76q0 -25 -8.5 -47t-25 -38.5t-41 -26t-55.5 -9.5h-163zM164 70v231h170q72 0 107.5 -30.5
t35.5 -82.5t-32.5 -85t-101.5 -33h-179z" />
    <glyph glyph-name="Gamma" unicode="&#x393;" horiz-adv-x="515" 
d="M78 0h88v590h323v76h-411v-666z" />
    <glyph glyph-name="uni0394" unicode="&#x394;" horiz-adv-x="631" 
d="M22 0h587v39l-247 627h-94l-246 -627v-39zM124 75l190 512l191 -512h-381z" />
    <glyph glyph-name="Epsilon" unicode="&#x395;" horiz-adv-x="556" 
d="M78 0h430v76h-342v227h319v76h-319v211h341v76h-429v-666z" />
    <glyph glyph-name="Zeta" unicode="&#x396;" horiz-adv-x="573" 
d="M525 0v76h-377l368 512v78h-452v-76h357l-368 -512v-78h472z" />
    <glyph glyph-name="Eta" unicode="&#x397;" horiz-adv-x="671" 
d="M78 0h88v301h339v-301h88v666h-88v-287h-339v287h-88v-666z" />
    <glyph glyph-name="Theta" unicode="&#x398;" horiz-adv-x="692" 
d="M198 307h296v65h-296v-65zM43 333q0 -69 18.5 -132t56 -110t94.5 -75t134 -28t134 28t94.5 75t56 110t18.5 132t-18.5 132t-56 110t-94.5 75t-134 28t-134 -28t-94.5 -75t-56 -110t-18.5 -132zM346 61q-56 0 -96.5 20t-66.5 56t-39 86t-13 110t13 110t39 86t66.5 56
t96.5 20q55 0 96 -20t67 -56t39 -86t13 -110t-13 -110t-39 -86t-67 -56t-96 -20z" />
    <glyph glyph-name="Iota" unicode="&#x399;" 
d="M83 0h88v666h-88v-666z" />
    <glyph glyph-name="Kappa" unicode="&#x39a;" horiz-adv-x="591" 
d="M78 0h88v324l295 -324h114l-317 342l313 324h-114l-291 -306v306h-88v-666z" />
    <glyph glyph-name="Lambda" unicode="&#x39b;" horiz-adv-x="595" 
d="M9 0h90l197 585l199 -585h91l-238 666h-101z" />
    <glyph glyph-name="Mu" unicode="&#x39c;" horiz-adv-x="800" 
d="M722 666h-87l-235 -503l-235 503h-87v-666h83v500l194 -416h90l194 416v-500h83v666z" />
    <glyph glyph-name="Nu" unicode="&#x39d;" horiz-adv-x="693" 
d="M78 0h85v529l365 -529h87v666h-85v-529l-365 529h-87v-666z" />
    <glyph glyph-name="Xi" unicode="&#x39e;" horiz-adv-x="564" 
d="M49 -1h466v79h-466v-79zM105 300h354v76h-354v-76zM49 588h466v78h-466v-78z" />
    <glyph glyph-name="Omicron" unicode="&#x39f;" horiz-adv-x="692" 
d="M43 333q0 -69 18.5 -132t56 -110t94.5 -75t134 -28t134 28t94.5 75t56 110t18.5 132t-18.5 132t-56 110t-94.5 75t-134 28t-134 -28t-94.5 -75t-56 -110t-18.5 -132zM346 61q-56 0 -96.5 20t-66.5 56t-39 86t-13 110t13 110t39 86t66.5 56t96.5 20q55 0 96 -20t67 -56
t39 -86t13 -110t-13 -110t-39 -86t-67 -56t-96 -20z" />
    <glyph glyph-name="Pi" unicode="&#x3a0;" horiz-adv-x="662" 
d="M78 0h88v590h329v-590h89v666h-506v-666z" />
    <glyph glyph-name="Rho" unicode="&#x3a1;" horiz-adv-x="586" 
d="M78 0h88v264h180q51 0 90.5 16t66.5 43.5t41 64t14 77.5q0 42 -14 78.5t-41 63.5t-66.5 43t-90.5 16h-268v-666zM166 336v258h170q63 0 98 -34.5t35 -94.5t-35 -94.5t-98 -34.5h-170z" />
    <glyph glyph-name="Sigma" unicode="&#x3a3;" horiz-adv-x="580" 
d="M38 0h494v76h-379l197 264l-180 250h349v76h-469v-61l199 -276l-211 -277v-52z" />
    <glyph glyph-name="Tau" unicode="&#x3a4;" horiz-adv-x="532" 
d="M511 590v76h-490v-76h201v-590h88v590h201z" />
    <glyph glyph-name="Upsilon" unicode="&#x3a5;" horiz-adv-x="547" 
d="M537 666h-92l-171 -319l-171 319h-93l220 -397v-269h88v269z" />
    <glyph glyph-name="Phi" unicode="&#x3a6;" horiz-adv-x="765" 
d="M339 0h88v69q71 3 126 24.5t92.5 57t57 83t19.5 104.5q0 56 -19.5 104t-57 83.5t-92.5 57.5t-126 26v59h-88v-60q-71 -4 -126 -25.5t-93 -57t-57.5 -83t-19.5 -104.5q0 -56 19.5 -104t57 -83.5t92.5 -57t127 -24.5v-69zM339 142q-99 3 -154.5 55t-55.5 141
q0 41 14.5 76.5t41.5 62t66 42t88 16.5v-393zM427 142v393q49 -2 88 -17.5t66 -41.5t41 -61.5t14 -76.5q0 -89 -56 -141t-153 -55z" />
    <glyph glyph-name="Chi" unicode="&#x3a7;" horiz-adv-x="588" 
d="M559 666h-96l-169 -259l-169 259h-96l218 -328l-224 -338h95l176 268l176 -268h95l-224 338z" />
    <glyph glyph-name="Psi" unicode="&#x3a8;" horiz-adv-x="771" 
d="M342 0h88v135q141 4 203 72t62 192v267h-88v-258q0 -46 -9 -83t-30 -63t-55 -41t-83 -16v461h-88v-460q-50 1 -83.5 16t-54 41t-29.5 62.5t-9 82.5v258h-89v-267q0 -62 15 -110t47 -81.5t82 -52t121 -20.5v-135z" />
    <glyph glyph-name="uni03A9" unicode="&#x3a9;" horiz-adv-x="703" 
d="M655 369q0 71 -22 128t-61.5 97.5t-95.5 62t-125 21.5q-68 0 -124 -21.5t-96 -62t-61.5 -97.5t-21.5 -128q0 -99 39 -171.5t101 -127.5h-125v-70h219v70q-72 58 -110 129t-38 165q0 115 55.5 179.5t161.5 64.5t162 -64.5t56 -179.5q0 -94 -38 -165t-110 -129v-70h219v70
h-125q31 28 56.5 59.5t44 68t29 79t10.5 92.5z" />
    <glyph glyph-name="Iotadieresis" unicode="&#x3aa;" 
d="M83 0h88v666h-88v-666zM174 794q0 -23 14 -37t38 -14q25 0 39 14t14 37t-14 37t-39 14q-24 0 -38 -14t-14 -37zM-21 794q0 -23 14 -37t38 -14q25 0 39 14t14 37t-14 37t-39 14q-24 0 -38 -14t-14 -37z" />
    <glyph glyph-name="Upsilondieresis" unicode="&#x3ab;" horiz-adv-x="547" 
d="M537 666h-92l-171 -319l-171 319h-93l220 -397v-269h88v269zM319 794q0 -23 14 -37t38 -14q25 0 39 14t14 37t-14 37t-39 14q-24 0 -38 -14t-14 -37zM124 794q0 -23 14 -37t38 -14q25 0 39 14t14 37t-14 37t-39 14q-24 0 -38 -14t-14 -37z" />
    <glyph glyph-name="alphatonos" unicode="&#x3ac;" horiz-adv-x="579" 
d="M234 -10q22 0 43 5.5t41 19t38 36t34 56.5q11 -64 40.5 -89t80.5 -25q13 0 26.5 2.5t25.5 4.5q0 2 -0.5 12t-1 22t-1 22t-0.5 12q-18 -3 -28 -3q-39 0 -54.5 31.5t-15.5 97.5q0 38 4.5 76t12 73.5t17 66.5t20.5 55l-83 23q-8 -15 -17.5 -45.5t-16.5 -67.5q-20 57 -60 85
t-97 28q-43 0 -80 -16.5t-64.5 -48.5t-43 -80t-15.5 -111q0 -62 15 -107.5t41.5 -75.5t62 -44.5t76.5 -14.5zM250 63q-54 0 -87 44t-33 129q0 90 35 134.5t88 44.5q33 0 56.5 -13.5t39 -37t23 -54t7.5 -63.5q0 -28 -7 -60.5t-22.5 -60t-40 -45.5t-59.5 -18zM226 543h76
l70 152h-110z" />
    <glyph glyph-name="epsilontonos" unicode="&#x3ad;" horiz-adv-x="448" 
d="M227 -10q49 0 98.5 10t93.5 29l-14 66q-34 -11 -76 -21t-90 -10q-57 0 -85.5 20t-28.5 54q0 15 5 28t17.5 23.5t32.5 16.5t50 6h86v69h-79q-40 0 -67 16.5t-27 48.5q0 28 23.5 49.5t82.5 21.5q41 0 71.5 -6.5t63.5 -20.5l19 69q-30 14 -71.5 21.5t-90.5 7.5
q-38 0 -72.5 -8.5t-60.5 -26t-41 -42.5t-15 -58q0 -38 20.5 -62.5t68.5 -40.5q-56 -13 -81.5 -49t-25.5 -77q0 -36 15 -61.5t41 -41.5t61 -23.5t76 -7.5zM201 543h76l70 152h-110z" />
    <glyph glyph-name="etatonos" unicode="&#x3ae;" horiz-adv-x="557" 
d="M88 0h90v271q0 29 10 55t27 45.5t41 30.5t52 11q19 0 36.5 -5t30 -18t20 -34t7.5 -53v-481h90v501q0 46 -11 77.5t-32 51t-51 28t-67 8.5q-50 0 -93.5 -27.5t-76.5 -89.5q-2 17 -8 34.5t-14.5 33.5t-19.5 29t-24 20l-57 -52q30 -33 40 -73.5t10 -102.5v-260zM213 543h76
l70 152h-110z" />
    <glyph glyph-name="iotatonos" unicode="&#x3af;" horiz-adv-x="284" 
d="M65 110q0 -58 25.5 -89t87.5 -31q50 0 83 10q-1 17 -1 32q-1 12 -1 23.5v13.5q-27 -6 -55 -6q-30 0 -39.5 13.5t-9.5 43.5v358h-90v-368zM73 543h76l70 152h-110z" />
    <glyph glyph-name="upsilondieresistonos" unicode="&#x3b0;" horiz-adv-x="521" 
d="M73 194q0 -59 14.5 -98t40.5 -62.5t62 -33.5t79 -10q109 0 158 70t49 191q0 38 -5.5 100t-31.5 137l-87 -24q21 -59 28 -117t7 -112q0 -81 -26 -124.5t-91 -43.5q-50 0 -79.5 29.5t-29.5 104.5v61q0 43 -2 77t-5.5 60.5t-10 48t-15.5 40.5l-88 -24q9 -20 15.5 -41.5
t10 -48t5.5 -58.5t2 -74v-48zM138 551q23 0 36.5 14t13.5 34t-13.5 34.5t-36.5 14.5q-22 0 -35 -14.5t-13 -34.5t13 -34t35 -14zM210 543h54l59 162h-86zM373 551q23 0 36 14t13 34t-13 34.5t-36 14.5q-22 0 -35.5 -14.5t-13.5 -34.5t13.5 -34t35.5 -14z" />
    <glyph glyph-name="alpha" unicode="&#x3b1;" horiz-adv-x="579" 
d="M234 -10q22 0 43 5.5t41 19t38 36t34 56.5q11 -64 40.5 -89t80.5 -25q13 0 26.5 2.5t25.5 4.5q0 2 -0.5 12t-1 22t-1 22t-0.5 12q-18 -3 -28 -3q-39 0 -54.5 31.5t-15.5 97.5q0 38 4.5 76t12 73.5t17 66.5t20.5 55l-83 23q-8 -15 -17.5 -45.5t-16.5 -67.5q-20 57 -60 85
t-97 28q-43 0 -80 -16.5t-64.5 -48.5t-43 -80t-15.5 -111q0 -62 15 -107.5t41.5 -75.5t62 -44.5t76.5 -14.5zM250 63q-54 0 -87 44t-33 129q0 90 35 134.5t88 44.5q33 0 56.5 -13.5t39 -37t23 -54t7.5 -63.5q0 -28 -7 -60.5t-22.5 -60t-40 -45.5t-59.5 -18z" />
    <glyph glyph-name="beta" unicode="&#x3b2;" horiz-adv-x="552" 
d="M73 -178h90v235q27 -35 61.5 -51t79.5 -16q57 0 96 20.5t63.5 51.5t35 66t10.5 65q0 64 -31 110t-105 69q18 11 34 25t29 32t20.5 40.5t7.5 51.5q0 24 -8 51t-28.5 50t-56 38.5t-90.5 15.5q-33 0 -70 -11t-67.5 -38t-50.5 -74t-20 -119v-612zM289 63q-60 0 -93 34t-33 83
v261q0 87 34 124.5t85 37.5q48 0 75 -26.5t27 -73.5q0 -48 -29.5 -77.5t-77.5 -29.5h-33v-68h38q68 0 100.5 -39.5t32.5 -96.5q0 -24 -7.5 -47t-22.5 -41.5t-39 -29.5t-57 -11z" />
    <glyph glyph-name="gamma" unicode="&#x3b3;" horiz-adv-x="517" 
d="M235 -167h90v172l181 473h-89l-135 -390l-111 316q-8 22 -16 37.5t-19.5 25.5t-26.5 14t-36 4q-16 0 -30.5 -2.5t-27.5 -5.5v-13t1 -23q0 -14 1 -32q8 2 14 3t11 1q20 0 30 -14t24 -47l139 -348v-171z" />
    <glyph glyph-name="delta" unicode="&#x3b4;" horiz-adv-x="511" 
d="M255 63q-33 0 -57 13t-39 34t-22.5 49t-7.5 58q0 43 12.5 75t32 54.5t43 35.5t44.5 18q63 -35 91 -80.5t28 -107.5q0 -37 -10.5 -65t-28 -46.5t-40 -28t-46.5 -9.5zM248 -10q57 0 98.5 19t68.5 51t40.5 74t13.5 87q0 37 -9.5 69t-30.5 62t-54 59t-79 59
q-27 18 -43.5 30.5t-25.5 22t-12 17.5t-3 16q0 19 16 34t58 15q38 0 68 -9t61 -23l18 73q-23 12 -64.5 21t-85.5 9q-40 0 -70.5 -9.5t-51 -26t-31 -38.5t-10.5 -47q0 -14 3 -27t12.5 -27t26.5 -29t45 -32q-32 -11 -62.5 -31t-53.5 -48.5t-37 -66.5t-14 -86
q0 -62 19.5 -103.5t50 -67t67.5 -36.5t71 -11z" />
    <glyph glyph-name="epsilon" unicode="&#x3b5;" horiz-adv-x="448" 
d="M227 -10q49 0 98.5 10t93.5 29l-14 66q-34 -11 -76 -21t-90 -10q-57 0 -85.5 20t-28.5 54q0 15 5 28t17.5 23.5t32.5 16.5t50 6h86v69h-79q-40 0 -67 16.5t-27 48.5q0 28 23.5 49.5t82.5 21.5q41 0 71.5 -6.5t63.5 -20.5l19 69q-30 14 -71.5 21.5t-90.5 7.5
q-38 0 -72.5 -8.5t-60.5 -26t-41 -42.5t-15 -58q0 -38 20.5 -62.5t68.5 -40.5q-56 -13 -81.5 -49t-25.5 -77q0 -36 15 -61.5t41 -41.5t61 -23.5t76 -7.5z" />
    <glyph glyph-name="zeta" unicode="&#x3b6;" horiz-adv-x="405" 
d="M269 -159q56 36 79.5 75.5t23.5 65.5q0 19 -5.5 33t-19 26t-35.5 23t-55 25q-60 25 -92.5 61t-32.5 98q0 48 19.5 95t54 91.5t81.5 86.5t102 81v64h-312v-74h205q-70 -51 -116.5 -100.5t-74 -95.5t-38.5 -88t-11 -78q0 -34 8.5 -64t29 -57t56 -51.5t89.5 -46.5
q33 -14 48.5 -23t15.5 -27q0 -13 -12.5 -30t-45.5 -48z" />
    <glyph glyph-name="eta" unicode="&#x3b7;" horiz-adv-x="557" 
d="M88 0h90v271q0 29 10 55t27 45.5t41 30.5t52 11q19 0 36.5 -5t30 -18t20 -34t7.5 -53v-481h90v501q0 46 -11 77.5t-32 51t-51 28t-67 8.5q-50 0 -93.5 -27.5t-76.5 -89.5q-2 17 -8 34.5t-14.5 33.5t-19.5 29t-24 20l-57 -52q30 -33 40 -73.5t10 -102.5v-260z" />
    <glyph glyph-name="theta" unicode="&#x3b8;" horiz-adv-x="515" 
d="M258 -10q46 0 85 17.5t68 57t45.5 104t16.5 157.5q0 97 -15.5 163.5t-44 108t-68 60t-87.5 18.5q-51 0 -91.5 -20t-68 -62.5t-42 -108.5t-14.5 -159q0 -95 17 -159.5t46.5 -103.5t68.5 -56t84 -17zM258 63q-39 0 -63 20t-38.5 53.5t-20 76t-6.5 87.5h254q-1 -50 -7 -93.5
t-20.5 -75.5t-38 -50t-60.5 -18zM131 367q2 67 11.5 112t25 72.5t38.5 39t52 11.5q28 0 49.5 -12t37.5 -39.5t25.5 -72.5t13.5 -111h-253z" />
    <glyph glyph-name="iota" unicode="&#x3b9;" horiz-adv-x="284" 
d="M65 110q0 -58 25.5 -89t87.5 -31q50 0 83 10q-1 17 -1 32q-1 12 -1 23.5v13.5q-27 -6 -55 -6q-30 0 -39.5 13.5t-9.5 43.5v358h-90v-368z" />
    <glyph glyph-name="kappa" unicode="&#x3ba;" horiz-adv-x="530" 
d="M73 0h90v90l90 119l154 -209h99l-207 270l61 77q15 20 27.5 31.5t23.5 18t21 8.5t22 2q9 0 18 -0.5t20 -2.5q0 19 1 35q1 14 1.5 26.5t0.5 15.5q-9 2 -18.5 3t-24.5 1q-24 0 -43 -5.5t-35 -16.5t-31 -27t-31 -38l-149 -200v280h-90v-478z" />
    <glyph glyph-name="lambda" unicode="&#x3bb;" horiz-adv-x="524" 
d="M15 0h91l145 355l99 -274q15 -42 38 -66t72 -24q10 0 26 1t30 6q-1 18 -1 33q-1 13 -1 23.5v12.5q-14 -3 -33 -3q-18 0 -29 9.5t-21 36.5l-172 464q-21 57 -50 79.5t-75 22.5q-9 0 -25.5 -2.5t-34.5 -7.5v-13.5t1 -24.5q0 -15 1 -33q20 7 42 7q27 0 40.5 -14.5
t26.5 -49.5l33 -92z" />
    <glyph glyph-name="uni03BC" unicode="&#x3bc;" horiz-adv-x="584" 
d="M73 -178h89v226q20 -37 47 -47.5t53 -10.5q40 0 77 27t59 75q10 -51 34 -75t69 -24q19 0 33.5 2t26.5 4q-1 18 -1 33q-1 13 -1 23.5v12.5q-7 -1 -15.5 -2t-11.5 -1q-35 0 -46.5 25.5t-11.5 63.5v324h-90v-253q0 -35 -9.5 -64t-26 -49.5t-38.5 -32t-48 -11.5q-27 0 -46 9
t-31 24.5t-17.5 35t-5.5 40.5v301h-89v-656z" />
    <glyph glyph-name="nu" unicode="&#x3bd;" horiz-adv-x="473" 
d="M190 0h95l89 197q20 45 34 81.5t22.5 68t12.5 60t4 57.5v14h-88v-25q0 -42 -11 -97t-43 -129l-62 -145l-137 396h-97z" />
    <glyph glyph-name="xi" unicode="&#x3be;" horiz-adv-x="415" 
d="M275 -159q30 19 50 39.5t31.5 38.5t16.5 33.5t5 26.5q0 17 -4 30.5t-15.5 25.5t-31 22.5t-49.5 22.5q-41 16 -68 29t-43 26t-22 28.5t-6 36.5q0 60 43.5 94.5t112.5 34.5h63v71h-65q-58 0 -92.5 20t-34.5 65q0 30 15.5 51t41 34t59 20.5t70.5 10.5l43 4v61h-335v-74h129
q-56 -13 -85 -46.5t-29 -75.5q0 -45 29 -73t77 -42q-63 -23 -101 -63.5t-38 -107.5q0 -33 11 -57t34.5 -43.5t59.5 -37t87 -38.5q19 -8 31 -13.5t19 -10.5t9 -10.5t2 -12.5q0 -13 -11 -29.5t-46 -49.5z" />
    <glyph glyph-name="omicron" unicode="&#x3bf;" horiz-adv-x="515" 
d="M475 239q0 53 -13.5 98.5t-40.5 79t-68 52.5t-95 19t-95 -19t-68.5 -52.5t-41 -79t-13.5 -98.5t13.5 -98.5t41 -79t68.5 -52.5t95 -19t95 19t68 52.5t40.5 79t13.5 98.5zM389 239q0 -84 -31.5 -133t-99.5 -49t-100 49.5t-32 132.5t32 132.5t100 49.5t99.5 -49t31.5 -133z
" />
    <glyph glyph-name="pi" unicode="&#x3c0;" horiz-adv-x="635" 
d="M211 0v409h186v-282q0 -63 28 -99.5t91 -36.5q25 0 47 4.5t35 10.5l-6 63q-13 -5 -27.5 -7t-27.5 -2q-34 0 -45 17.5t-11 51.5v280h115v69h-571v-69h102v-409h84z" />
    <glyph glyph-name="rho" unicode="&#x3c1;" horiz-adv-x="530" 
d="M52 -178h90v241q28 -40 62.5 -56.5t79.5 -16.5q55 0 94.5 20.5t64.5 55t36.5 80.5t11.5 97q0 39 -10 82t-35 79.5t-67 60t-106 23.5q-41 0 -81 -13t-71 -43.5t-50 -81t-19 -125.5v-403zM142 232q0 98 34.5 140.5t94.5 42.5q34 0 58.5 -13t40.5 -36.5t23 -55.5t7 -69
q0 -32 -6 -64t-21 -57.5t-40 -41t-63 -15.5q-56 0 -92 31.5t-36 81.5v56z" />
    <glyph glyph-name="uni03C2" unicode="&#x3c2;" horiz-adv-x="427" 
d="M250 -159q52 34 77 72.5t25 70.5q0 18 -5 31t-15.5 25t-28 23.5t-42.5 25.5q-36 19 -62 37t-42.5 38.5t-24.5 44t-8 55.5q0 29 8.5 56.5t26 48.5t44.5 33.5t63 12.5q32 0 57 -7t54 -21l23 74q-23 12 -57 19.5t-75 7.5q-57 0 -100.5 -18.5t-72.5 -49t-44 -71.5t-15 -86
t11 -79t32.5 -61t53 -49.5t71.5 -44.5q22 -12 35 -21.5t19.5 -17t8.5 -14.5t2 -13q0 -17 -11 -36.5t-44 -46.5z" />
    <glyph glyph-name="sigma" unicode="&#x3c3;" horiz-adv-x="548" 
d="M255 -10q57 0 98.5 19.5t67.5 53t38.5 77t12.5 91.5q0 20 -3 42t-11.5 44t-23 43t-37.5 41h121v77h-241q-60 0 -104.5 -19t-74.5 -51.5t-44.5 -76.5t-14.5 -93q0 -57 15 -103t43 -78t68 -49.5t90 -17.5zM257 63q-68 0 -98 48t-30 128q0 73 34.5 118.5t105.5 45.5
q14 0 25.5 -0.5t25.5 -2.5q32 -24 48.5 -68.5t16.5 -95.5q0 -38 -7.5 -69.5t-23 -54.5t-40 -36t-57.5 -13z" />
    <glyph glyph-name="tau" unicode="&#x3c4;" horiz-adv-x="454" 
d="M290 -10q33 0 64.5 5t47.5 10q-1 18 -1 32q-1 12 -1 23v13q-14 -4 -35.5 -7t-40.5 -3q-20 0 -33.5 3.5t-21 12.5t-10.5 24t-3 38v41t0.5 70t0.5 80v73h172v73h-409v-73h151v-30.5v-55t-0.5 -67t-0.5 -66v-51v-23.5q0 -60 25.5 -91t94.5 -31z" />
    <glyph glyph-name="upsilon" unicode="&#x3c5;" horiz-adv-x="521" 
d="M73 194q0 -59 14.5 -98t40.5 -62.5t62 -33.5t79 -10q109 0 158 70t49 191q0 38 -5.5 100t-31.5 137l-87 -24q21 -59 28 -117t7 -112q0 -81 -26 -124.5t-91 -43.5q-50 0 -79.5 29.5t-29.5 104.5v61q0 43 -2 77t-5.5 60.5t-10 48t-15.5 40.5l-88 -24q9 -20 15.5 -41.5
t10 -48t5.5 -58.5t2 -74v-48z" />
    <glyph glyph-name="phi" unicode="&#x3c6;" horiz-adv-x="665" 
d="M289 -178h86v162q64 4 111.5 26t78.5 56t46 78t15 92q0 54 -17.5 99.5t-50 79t-79 53t-104.5 22.5v112h-86v-112q-60 -3 -106.5 -24t-78.5 -55t-48.5 -79.5t-16.5 -97.5q0 -51 15.5 -95t47 -77.5t78 -54t109.5 -23.5v-162zM289 54q-80 6 -122 53t-42 131q0 37 10 69.5
t30.5 57t51 39t72.5 16.5v-366zM375 54v366q45 -2 76 -18t51 -41.5t29 -57.5t9 -65q0 -31 -9 -62.5t-28.5 -58t-51 -43.5t-76.5 -20z" />
    <glyph glyph-name="chi" unicode="&#x3c7;" horiz-adv-x="523" 
d="M28 -178h90l147 264l102 -191q25 -47 50.5 -65t65.5 -18q8 0 26 2t32 6q-1 18 -2 33q-1 13 -1 23.5v12.5q-7 -2 -16 -3t-20 -1q-20 0 -36 13t-36 48l-114 210l188 322h-94l-130 -255l-99 190q-22 42 -44 57t-59 15q-11 0 -26 -1.5t-30 -6.5v-14t1 -23q0 -14 1 -31
q16 4 28 4q9 0 17 -3t16.5 -11t17.5 -22t21 -36l104 -192z" />
    <glyph glyph-name="psi" unicode="&#x3c8;" horiz-adv-x="691" 
d="M310 -178h86v166q53 3 98.5 19.5t79.5 48t53 79.5t19 113q0 67 -9 123.5t-26 116.5l-89 -24q15 -46 24.5 -101t9.5 -123q0 -91 -43.5 -135t-116.5 -49v546h-86v-546q-30 3 -57 13t-47.5 29.5t-33 50.5t-12.5 76v42q0 45 -2 77t-5.5 57t-9.5 45.5t-15 41.5l-88 -24
q7 -19 13 -38t10 -41t6 -49t2 -61v-51q0 -61 17 -104t48.5 -71t75.5 -42.5t98 -17.5v-167z" />
    <glyph glyph-name="omega" unicode="&#x3c9;" horiz-adv-x="683" 
d="M300 169q0 -51 -22 -77t-55 -26q-40 0 -65 34.5t-25 108.5q0 73 25 134t61 106l-72 39q-20 -24 -39 -54.5t-33.5 -66.5t-23.5 -77.5t-9 -86.5q0 -60 14 -101t37.5 -66t53 -35.5t60.5 -10.5q21 0 40 4.5t36.5 15.5t31.5 31t25 50q9 -29 24 -48t33 -31t38 -17t40 -5
q32 0 62 11.5t53 36.5t37 64.5t14 95.5q0 46 -9 88.5t-23.5 79.5t-33 68t-38.5 54l-71 -40q16 -23 31 -49t27 -56t19 -64t7 -73q0 -43 -8 -70.5t-21 -43t-28.5 -21t-30.5 -5.5q-14 0 -28 4.5t-25.5 16.5t-18.5 32t-7 50v127h-83v-127z" />
    <glyph glyph-name="iotadieresis" unicode="&#x3ca;" horiz-adv-x="284" 
d="M65 110q0 -58 25.5 -89t87.5 -31q50 0 83 10q-1 17 -1 32q-1 12 -1 23.5v13.5q-27 -6 -55 -6q-30 0 -39.5 13.5t-9.5 43.5v358h-90v-368zM156 612q0 -22 14.5 -37t38.5 -15t38 15t14 37t-14 36.5t-38 14.5t-38.5 -14.5t-14.5 -36.5zM-27 612q0 -22 14.5 -37t37.5 -15
q25 0 39 15t14 37t-14 36.5t-39 14.5q-23 0 -37.5 -14.5t-14.5 -36.5z" />
    <glyph glyph-name="upsilondieresis" unicode="&#x3cb;" horiz-adv-x="521" 
d="M73 194q0 -59 14.5 -98t40.5 -62.5t62 -33.5t79 -10q109 0 158 70t49 191q0 38 -5.5 100t-31.5 137l-87 -24q21 -59 28 -117t7 -112q0 -81 -26 -124.5t-91 -43.5q-50 0 -79.5 29.5t-29.5 104.5v61q0 43 -2 77t-5.5 60.5t-10 48t-15.5 40.5l-88 -24q9 -20 15.5 -41.5
t10 -48t5.5 -58.5t2 -74v-48zM290 612q0 -22 14.5 -37t38.5 -15t38 15t14 37t-14 36.5t-38 14.5t-38.5 -14.5t-14.5 -36.5zM107 612q0 -22 14.5 -37t37.5 -15q25 0 39 15t14 37t-14 36.5t-39 14.5q-23 0 -37.5 -14.5t-14.5 -36.5z" />
    <glyph glyph-name="omicrontonos" unicode="&#x3cc;" horiz-adv-x="515" 
d="M475 239q0 53 -13.5 98.5t-40.5 79t-68 52.5t-95 19t-95 -19t-68.5 -52.5t-41 -79t-13.5 -98.5t13.5 -98.5t41 -79t68.5 -52.5t95 -19t95 19t68 52.5t40.5 79t13.5 98.5zM389 239q0 -84 -31.5 -133t-99.5 -49t-100 49.5t-32 132.5t32 132.5t100 49.5t99.5 -49t31.5 -133z
M219 543h76l70 152h-110z" />
    <glyph glyph-name="upsilontonos" unicode="&#x3cd;" horiz-adv-x="521" 
d="M73 194q0 -59 14.5 -98t40.5 -62.5t62 -33.5t79 -10q109 0 158 70t49 191q0 38 -5.5 100t-31.5 137l-87 -24q21 -59 28 -117t7 -112q0 -81 -26 -124.5t-91 -43.5q-50 0 -79.5 29.5t-29.5 104.5v61q0 43 -2 77t-5.5 60.5t-10 48t-15.5 40.5l-88 -24q9 -20 15.5 -41.5
t10 -48t5.5 -58.5t2 -74v-48zM214 543h76l70 152h-110z" />
    <glyph glyph-name="omegatonos" unicode="&#x3ce;" horiz-adv-x="683" 
d="M300 169q0 -51 -22 -77t-55 -26q-40 0 -65 34.5t-25 108.5q0 73 25 134t61 106l-72 39q-20 -24 -39 -54.5t-33.5 -66.5t-23.5 -77.5t-9 -86.5q0 -60 14 -101t37.5 -66t53 -35.5t60.5 -10.5q21 0 40 4.5t36.5 15.5t31.5 31t25 50q9 -29 24 -48t33 -31t38 -17t40 -5
q32 0 62 11.5t53 36.5t37 64.5t14 95.5q0 46 -9 88.5t-23.5 79.5t-33 68t-38.5 54l-71 -40q16 -23 31 -49t27 -56t19 -64t7 -73q0 -43 -8 -70.5t-21 -43t-28.5 -21t-30.5 -5.5q-14 0 -28 4.5t-25.5 16.5t-18.5 32t-7 50v127h-83v-127zM300 543h76l70 152h-110z" />
    <glyph glyph-name="uni0400" unicode="&#x400;" horiz-adv-x="556" 
d="M78 0h430v76h-342v227h319v76h-319v211h341v76h-429v-666zM355 730l-83 132h-113l115 -132h81z" />
    <glyph glyph-name="afii10023" unicode="&#x401;" horiz-adv-x="556" 
d="M78 0h430v76h-342v227h319v76h-319v211h341v76h-429v-666zM344 794q0 -23 14 -37t38 -14q25 0 39 14t14 37t-14 37t-39 14q-24 0 -38 -14t-14 -37zM149 794q0 -23 14 -37t38 -14q25 0 39 14t14 37t-14 37t-39 14q-24 0 -38 -14t-14 -37z" />
    <glyph glyph-name="afii10051" unicode="&#x402;" horiz-adv-x="783" 
d="M527 -11q-62 0 -115 23l18 71q41 -19 85 -19q34 0 59.5 12.5t42 34.5t25 52.5t8.5 65.5q0 75 -41.5 118t-118.5 43q-36 0 -69.5 -11t-60 -32.5t-42 -52.5t-15.5 -71v-223h-88v590h-194v76h476v-76h-194v-231q32 51 86 80.5t126 29.5q56 0 98 -18.5t69.5 -50t41.5 -74.5
t14 -92q0 -51 -13 -95.5t-39 -77.5t-65.5 -52.5t-93.5 -19.5z" />
    <glyph glyph-name="afii10052" unicode="&#x403;" horiz-adv-x="530" 
d="M78 0h88v590h343v76h-431v-666zM431 862h-113l-83 -132h82z" />
    <glyph glyph-name="afii10053" unicode="&#x404;" horiz-adv-x="593" 
d="M374 -12q56 0 103.5 10t77.5 24l-14 71q-32 -12 -72.5 -20t-78.5 -8q-116 0 -183 63t-74 178h340v76h-338q12 104 78 161.5t177 57.5q38 0 78.5 -8t72.5 -20l14 71q-30 14 -77.5 24t-103.5 10q-77 0 -138 -24.5t-104 -69.5t-66 -108.5t-23 -142.5t23 -142.5t66 -108.5
t104 -69.5t138 -24.5z" />
    <glyph glyph-name="afii10054" unicode="&#x405;" horiz-adv-x="558" 
d="M523 178q0 46 -18 78t-49 54.5t-72 38t-86 28.5q-43 12 -74.5 22.5t-52 23.5t-30.5 31.5t-10 46.5q0 59 40.5 82t114.5 23q53 0 103.5 -12.5t92.5 -30.5l17 71q-46 21 -98 32.5t-116 11.5q-113 0 -176.5 -43.5t-63.5 -138.5q0 -78 54.5 -122t164.5 -71q87 -22 130 -50.5
t43 -83.5q0 -56 -42.5 -82t-113.5 -26q-54 0 -109.5 13.5t-104.5 33.5l-20 -71q52 -21 113 -35t121 -14q113 0 177.5 50t64.5 140z" />
    <glyph glyph-name="afii10055" unicode="&#x406;" 
d="M83 0h88v666h-88v-666z" />
    <glyph glyph-name="afii10056" unicode="&#x407;" 
d="M83 666h88v-666h-88v666zM197 743q-25 0 -39 14t-14 37t14 37t39 14q24 0 38 -14t14 -37t-14 -37t-38 -14zM58 743q-24 0 -38.5 14t-14.5 37t14.5 37t38.5 14q25 0 39 -14t14 -37t-14 -37t-39 -14z" />
    <glyph glyph-name="afii10057" unicode="&#x408;" horiz-adv-x="373" 
d="M14 7q23 -8 54 -12.5t58 -4.5q87 0 128.5 48t41.5 129v499h-88v-500q0 -48 -21.5 -75t-76.5 -27q-20 0 -42.5 3.5t-42.5 8.5z" />
    <glyph glyph-name="afii10058" unicode="&#x409;" horiz-adv-x="989" 
d="M84 -10q-20 0 -41 3t-40 9l12 71q24 -9 51 -9q35 0 57.5 21t35 66.5t17.5 117t5 172.5v225h408v-270h160q55 0 95 -15.5t66 -42.5t38.5 -63t12.5 -76q0 -41 -14 -77t-41 -63t-66.5 -43t-90.5 -16h-248v590h-232v-142q0 -122 -8 -208.5t-29 -142t-57 -81.5t-91 -26z
M739 72q63 0 98.5 35t35.5 92t-35 91t-98 34h-151v-252h150z" />
    <glyph glyph-name="afii10059" unicode="&#x40a;" horiz-adv-x="962" 
d="M78 666h88v-271h307v271h88v-271h161q55 0 95 -15.5t66 -42.5t38.5 -63t12.5 -76q0 -41 -14 -77t-41 -63t-66.5 -42.5t-90.5 -15.5h-249v321h-307v-321h-88v666zM712 72q63 0 98.5 34t35.5 91t-35.5 90.5t-98.5 33.5h-151v-249h151z" />
    <glyph glyph-name="afii10060" unicode="&#x40b;" horiz-adv-x="793" 
d="M215 590h-194v76h476v-76h-194v-231q32 51 89 80.5t129 29.5q54 0 92.5 -16.5t63 -45.5t36.5 -69.5t12 -89.5v-248h-88v228q0 78 -35 120t-107 42q-36 0 -70.5 -11t-61.5 -32.5t-43.5 -52.5t-16.5 -71v-223h-88v590z" />
    <glyph glyph-name="afii10061" unicode="&#x40c;" horiz-adv-x="591" 
d="M78 0h88v324l295 -324h114l-317 342l313 324h-114l-291 -306v306h-88v-666zM444 862h-113l-83 -132h82z" />
    <glyph glyph-name="uni040D" unicode="&#x40d;" horiz-adv-x="693" 
d="M78 0h87l365 523v-523h85v666h-87l-365 -523v523h-85v-666zM397 730l-83 132h-113l115 -132h81z" />
    <glyph glyph-name="afii10062" unicode="&#x40e;" horiz-adv-x="594" 
d="M272 209l-267 457h100l211 -373l176 373h92l-325 -666h-100zM383 849q0 -29 -18.5 -46t-56.5 -17q-37 0 -56 16.5t-19 46.5h-68q0 -57 39.5 -87t103.5 -30t104 30t40 87h-69z" />
    <glyph glyph-name="afii10145" unicode="&#x40f;" horiz-adv-x="692" 
d="M305 0h-227v666h88v-590h360v590h88v-666h-226v-151h-83v151z" />
    <glyph glyph-name="afii10017" unicode="&#x410;" horiz-adv-x="625" 
d="M17 0h89l61 175h291l62 -175h89l-248 666h-97zM313 596l120 -347h-240z" />
    <glyph glyph-name="afii10018" unicode="&#x411;" horiz-adv-x="607" 
d="M78 666h461v-76h-373v-200h190q55 0 95 -15t66 -41.5t38.5 -62t12.5 -75.5q0 -41 -14 -76.5t-41 -62t-66.5 -42t-90.5 -15.5h-278v666zM346 72q63 0 98.5 33.5t35.5 90.5t-35.5 89.5t-98.5 32.5h-180v-246h180z" />
    <glyph glyph-name="afii10019" unicode="&#x412;" horiz-adv-x="604" 
d="M78 0h275q48 0 86.5 13t66.5 36.5t43 57t15 74.5q0 68 -40 108t-104 51q62 21 92.5 64.5t30.5 100.5q0 74 -48 117.5t-140 43.5h-277v-666zM164 371v225h171q60 0 91 -28t31 -76q0 -25 -8.5 -47t-25 -38.5t-41 -26t-55.5 -9.5h-163zM164 70v231h170q72 0 107.5 -30.5
t35.5 -82.5t-32.5 -85t-101.5 -33h-179z" />
    <glyph glyph-name="afii10020" unicode="&#x413;" horiz-adv-x="530" 
d="M78 0h88v590h343v76h-431v-666z" />
    <glyph glyph-name="afii10021" unicode="&#x414;" horiz-adv-x="689" 
d="M3 76h16q37 0 66 19.5t49 63t30.5 113t10.5 169.5v225h405v-590h77v-227h-83v151h-488v-151h-83v227zM492 76v514h-229v-139q0 -147 -23 -239t-73 -136h325z" />
    <glyph glyph-name="afii10022" unicode="&#x415;" horiz-adv-x="556" 
d="M78 0h430v76h-342v227h319v76h-319v211h341v76h-429v-666z" />
    <glyph glyph-name="afii10024" unicode="&#x416;" horiz-adv-x="895" 
d="M273 342l-253 324h110l217 -287h56v287h89v-287h56l217 287h110l-252 -324l256 -342h-110l-218 301h-59v-301h-89v301h-59l-218 -301h-110z" />
    <glyph glyph-name="afii10025" unicode="&#x417;" horiz-adv-x="553" 
d="M235 -12q-115 0 -207 40l16 73q41 -17 86.5 -27.5t94.5 -10.5q42 0 78.5 7t63.5 23t43 41t16 60q0 56 -45 84t-116 28h-153v72h145q74 0 112 30.5t38 82.5q0 28 -13 49.5t-36 35t-54 20.5t-68 7q-42 0 -89 -12t-83 -29l-15 70q39 20 92 33t113 13q50 0 93.5 -11t76 -32.5
t51 -54.5t18.5 -77q0 -57 -31 -97.5t-95 -60.5q65 -14 105.5 -53t40.5 -105q0 -54 -24 -91.5t-63 -61.5t-89 -35t-102 -11z" />
    <glyph glyph-name="afii10026" unicode="&#x418;" horiz-adv-x="693" 
d="M78 0h87l365 523v-523h85v666h-87l-365 -523v523h-85v-666z" />
    <glyph glyph-name="afii10027" unicode="&#x419;" horiz-adv-x="693" 
d="M78 0h87l365 523v-523h85v666h-87l-365 -523v523h-85v-666zM429 849q0 -29 -18.5 -46t-56.5 -17q-37 0 -56 16.5t-19 46.5h-68q0 -57 39.5 -87t103.5 -30t104 30t40 87h-69z" />
    <glyph glyph-name="afii10028" unicode="&#x41a;" horiz-adv-x="591" 
d="M78 0h88v324l295 -324h114l-317 342l313 324h-114l-291 -306v306h-88v-666z" />
    <glyph glyph-name="afii10029" unicode="&#x41b;" horiz-adv-x="682" 
d="M84 -10q-20 0 -41 3t-40 9l12 71q24 -9 51 -9q35 0 57.5 21t35 66.5t17.5 117t5 172.5v225h423v-666h-88v590h-247v-142q0 -122 -8 -208.5t-29 -142t-57 -81.5t-91 -26z" />
    <glyph glyph-name="afii10030" unicode="&#x41c;" horiz-adv-x="800" 
d="M722 666h-87l-235 -503l-235 503h-87v-666h83v500l194 -416h90l194 416v-500h83v666z" />
    <glyph glyph-name="afii10031" unicode="&#x41d;" horiz-adv-x="671" 
d="M78 0h88v301h339v-301h88v666h-88v-287h-339v287h-88v-666z" />
    <glyph glyph-name="afii10032" unicode="&#x41e;" horiz-adv-x="692" 
d="M43 333q0 -69 18.5 -132t56 -110t94.5 -75t134 -28t134 28t94.5 75t56 110t18.5 132t-18.5 132t-56 110t-94.5 75t-134 28t-134 -28t-94.5 -75t-56 -110t-18.5 -132zM346 61q-56 0 -96.5 20t-66.5 56t-39 86t-13 110t13 110t39 86t66.5 56t96.5 20q55 0 96 -20t67 -56
t39 -86t13 -110t-13 -110t-39 -86t-67 -56t-96 -20z" />
    <glyph glyph-name="afii10033" unicode="&#x41f;" horiz-adv-x="679" 
d="M78 666h523v-666h-89v590h-346v-590h-88v666z" />
    <glyph glyph-name="afii10034" unicode="&#x420;" horiz-adv-x="586" 
d="M78 0h88v264h180q51 0 90.5 16t66.5 43.5t41 64t14 77.5q0 42 -14 78.5t-41 63.5t-66.5 43t-90.5 16h-268v-666zM166 336v258h170q63 0 98 -34.5t35 -94.5t-35 -94.5t-98 -34.5h-170z" />
    <glyph glyph-name="afii10035" unicode="&#x421;" horiz-adv-x="593" 
d="M131 333q0 128 68 198t191 70q45 0 82 -8t69 -20l14 71q-29 14 -77 24t-104 10q-77 0 -138 -24.5t-104 -69.5t-66 -108.5t-23 -142.5t23 -142.5t66 -108.5t104 -69.5t138 -24.5q56 0 104 10t77 24l-14 71q-32 -12 -69 -20t-82 -8q-123 0 -191 70t-68 198z" />
    <glyph glyph-name="afii10036" unicode="&#x422;" horiz-adv-x="532" 
d="M511 590v76h-490v-76h201v-590h88v590h201z" />
    <glyph glyph-name="afii10037" unicode="&#x423;" horiz-adv-x="594" 
d="M272 209l-267 457h100l211 -373l176 373h92l-325 -666h-100z" />
    <glyph glyph-name="afii10038" unicode="&#x424;" horiz-adv-x="760" 
d="M336 95q-65 4 -119.5 21.5t-93.5 47.5t-61 73.5t-22 100.5t21.5 100.5t60.5 74t93.5 47.5t120.5 21v85h88v-85q66 -4 120.5 -21t93.5 -47.5t60.5 -74t21.5 -100.5t-22 -100.5t-61 -74t-93.5 -47.5t-119.5 -21v-95h-88v95zM424 169q42 3 80.5 14t67 31.5t45.5 51t17 72.5
t-17 72.5t-45.5 51t-67 31.5t-80.5 14v-338zM336 507q-42 -3 -80 -14t-66.5 -31.5t-45.5 -51t-17 -72.5t17 -72.5t45.5 -51t66.5 -31.5t80 -14v338z" />
    <glyph glyph-name="afii10039" unicode="&#x425;" horiz-adv-x="588" 
d="M559 666h-96l-169 -259l-169 259h-96l218 -328l-224 -338h95l176 268l176 -268h95l-224 338z" />
    <glyph glyph-name="afii10040" unicode="&#x426;" horiz-adv-x="687" 
d="M572 0h-494v666h88v-590h324v590h88v-590h77v-227h-83v151z" />
    <glyph glyph-name="afii10041" unicode="&#x427;" horiz-adv-x="655" 
d="M489 0h88v666h-88v-207q0 -40 -16.5 -71t-43.5 -52.5t-61.5 -32.5t-70.5 -11q-72 0 -106.5 43.5t-34.5 124.5v206h-88v-226q0 -50 11.5 -92t36.5 -72t63 -46.5t92 -16.5q72 0 129 29.5t89 80.5v-323z" />
    <glyph glyph-name="afii10042" unicode="&#x428;" horiz-adv-x="910" 
d="M78 666h88v-590h245v590h88v-590h245v590h88v-666h-754v666z" />
    <glyph glyph-name="afii10043" unicode="&#x429;" horiz-adv-x="942" 
d="M827 0h-749v666h88v-590h245v590h88v-590h245v590h88v-590h78v-227h-83v151z" />
    <glyph glyph-name="afii10044" unicode="&#x42a;" horiz-adv-x="740" 
d="M258 590h-237v76h325v-270h155q55 0 94.5 -15.5t65.5 -42.5t38.5 -63t12.5 -76q0 -41 -14 -77t-40.5 -63t-66 -43t-90.5 -16h-243v590zM491 72q63 0 98 35t35 92t-35 91t-98 34h-145v-252h145z" />
    <glyph glyph-name="afii10045" unicode="&#x42b;" horiz-adv-x="812" 
d="M646 666h88v-666h-88v666zM316 72q63 0 98.5 35t35.5 92t-35 91t-98 34h-151v-252h150zM78 666h88v-270h161q55 0 94.5 -15.5t65.5 -42.5t38.5 -63t12.5 -76q0 -41 -14 -77t-41 -63t-66 -43t-90 -16h-249v666z" />
    <glyph glyph-name="afii10046" unicode="&#x42c;" horiz-adv-x="593" 
d="M343 72q63 0 98.5 35t35.5 92t-35 91t-98 34h-178v-252h177zM78 666h88v-270h188q55 0 94.5 -15.5t65.5 -42.5t38.5 -63t12.5 -76q0 -41 -14 -77t-41 -63t-66 -43t-90 -16h-276v666z" />
    <glyph glyph-name="afii10047" unicode="&#x42d;" horiz-adv-x="593" 
d="M220 -12q-55 0 -102 9.5t-80 23.5l14 72q32 -12 72.5 -20t78.5 -8q116 0 183.5 63t74.5 178h-341v76h339q-11 104 -75 161.5t-181 57.5q-38 0 -78.5 -8t-72.5 -20l-14 71q31 14 79.5 24t104.5 10q79 0 140 -24.5t103 -69.5t63.5 -108.5t21.5 -142.5t-23 -142.5
t-65.5 -108.5t-104 -69.5t-137.5 -24.5z" />
    <glyph glyph-name="afii10048" unicode="&#x42e;" horiz-adv-x="886" 
d="M582 -12q-63 0 -110 24t-79.5 66.5t-50.5 99.5t-21 123h-155v-301h-88v666h88v-287h156q5 64 23 118.5t50.5 94.5t79 63t107.5 23q66 0 115 -27t81.5 -73.5t48.5 -109.5t16 -135t-16 -135t-48.5 -109.5t-81.5 -73.5t-115 -27zM582 61q43 0 75.5 20t54.5 56t32.5 86
t10.5 110t-10.5 110t-32.5 86t-54.5 56t-75.5 20q-44 0 -76.5 -20t-54 -56t-32.5 -86t-11 -110t11 -110t32.5 -86t54 -56t76.5 -20z" />
    <glyph glyph-name="afii10049" unicode="&#x42f;" horiz-adv-x="635" 
d="M216 280q-37 8 -65.5 26t-48 43t-29.5 56t-10 64q0 43 13.5 79t40.5 62t66.5 41t92.5 15h281v-666h-88v271h-159l-175 -271h-109zM469 342v252h-182q-65 0 -100 -32.5t-35 -92.5q0 -58 35.5 -92.5t99.5 -34.5h182z" />
    <glyph glyph-name="afii10065" unicode="&#x430;" horiz-adv-x="512" 
d="M446 0v329q0 81 -47.5 120t-141.5 39q-95 0 -176 -38l15 -68q35 16 72 24.5t78 8.5q58 0 86 -22t28 -70v-44h-144q-37 0 -68 -9t-53 -27t-34.5 -46t-12.5 -66q0 -65 39 -103t110 -38q57 0 99.5 23.5t67.5 67.5v-81h82zM360 187q0 -28 -10.5 -53t-29 -43.5t-43.5 -29
t-55 -10.5q-44 0 -67.5 20t-23.5 61q0 85 97 85h132v-30z" />
    <glyph glyph-name="afii10066" unicode="&#x431;" horiz-adv-x="515" 
d="M258 -10q-58 0 -99 22t-67 59t-38 83.5t-12 96.5q0 103 26 175.5t76.5 122t124 79.5t168.5 48l15 -68q-63 -13 -117.5 -31t-97.5 -47t-72 -73t-41 -108q20 42 61.5 67t95.5 25q50 0 87 -17.5t61 -48.5t35.5 -72t11.5 -88q0 -44 -14.5 -84.5t-42.5 -72t-68.5 -50
t-92.5 -18.5zM258 57q32 0 57 12t41.5 33.5t25 50.5t8.5 62q0 69 -31 114t-95 45q-32 0 -57.5 -12.5t-43 -33.5t-26.5 -49.5t-9 -60.5t8 -61t24.5 -51.5t40.5 -35.5t57 -13z" />
    <glyph glyph-name="afii10067" unicode="&#x432;" horiz-adv-x="494" 
d="M270 270q42 0 65 23t23 55t-21.5 49t-60.5 17h-120v-144h114zM282 64q46 0 68.5 20.5t22.5 54.5t-25.5 53t-72.5 19h-119v-147h126zM73 478h219q75 0 112.5 -31t37.5 -84q0 -87 -95 -119q52 -9 81.5 -36.5t29.5 -78.5q0 -59 -45 -94t-123 -35h-217v478z" />
    <glyph glyph-name="afii10068" unicode="&#x433;" horiz-adv-x="424" 
d="M73 478h334v-69h-248v-409h-86v478z" />
    <glyph glyph-name="afii10069" unicode="&#x434;" horiz-adv-x="548" 
d="M3 69h11q26 0 47 12.5t35.5 41.5t22 76.5t7.5 116.5v162h331v-409h65v-220h-81v151h-357v-151h-81v220zM371 69v340h-159v-85q0 -99 -17 -161t-50 -94h226z" />
    <glyph glyph-name="afii10070" unicode="&#x435;" horiz-adv-x="487" 
d="M451 209v53q0 49 -10.5 90.5t-33.5 71.5t-59 47t-88 17q-55 0 -96.5 -18.5t-69 -51.5t-41 -78.5t-13.5 -100.5t14 -100.5t42.5 -78.5t72.5 -51.5t104 -18.5q51 0 95 10t77 27l-14 60q-32 -14 -68.5 -23.5t-77.5 -9.5q-83 0 -118.5 41t-39.5 114h324zM259 427
q30 0 51 -10.5t34 -29.5t19 -45.5t6 -57.5v-12h-242q5 78 37 116.5t95 38.5z" />
    <glyph glyph-name="afii10072" unicode="&#x436;" horiz-adv-x="711" 
d="M207 245l-185 233h99l156 -200h35v200h86v-200h36l157 200h99l-185 -233l188 -245h-99l-157 209h-39v-209h-86v209h-38l-156 -209h-100z" />
    <glyph glyph-name="afii10073" unicode="&#x437;" horiz-adv-x="432" 
d="M179 -10q-46 0 -85 7t-74 21l16 66q29 -11 64 -19.5t73 -8.5q27 0 52 4t44 13.5t30.5 25.5t11.5 41q0 38 -31.5 56t-82.5 18h-112v61h104q53 0 80.5 19.5t27.5 55.5q0 38 -33 55t-88 17q-31 0 -64.5 -8.5t-60.5 -20.5l-14 63q31 13 69.5 22.5t86.5 9.5q41 0 75.5 -8
t59 -23.5t38.5 -39.5t14 -56q0 -42 -25 -71.5t-71 -42.5q54 -10 83 -37.5t29 -75.5q0 -38 -17.5 -65.5t-47 -45t-69 -25.5t-83.5 -8z" />
    <glyph glyph-name="afii10074" unicode="&#x438;" horiz-adv-x="565" 
d="M73 478h82v-356l253 356h84v-478h-82v357l-253 -357h-84v478z" />
    <glyph glyph-name="afii10075" unicode="&#x439;" horiz-adv-x="565" 
d="M425 668h-66q0 -32 -17.5 -51.5t-54.5 -19.5t-54.5 19.5t-17.5 51.5h-66q0 -60 39 -92.5t99 -32.5t99 32.5t39 92.5zM73 478h82v-356l253 356h84v-478h-82v357l-253 -357h-84v478z" />
    <glyph glyph-name="afii10076" unicode="&#x43a;" horiz-adv-x="488" 
d="M73 478h86v-218l206 218h102l-224 -232l227 -246h-103l-208 231v-231h-86v478z" />
    <glyph glyph-name="afii10077" unicode="&#x43b;" horiz-adv-x="541" 
d="M67 -7q-15 0 -31.5 2t-30.5 7l9 70q9 -3 20 -4.5t20 -1.5q25 0 40 13.5t23.5 43t11.5 77t3 116.5v162h336v-478h-86v409h-164v-88q0 -87 -6.5 -149.5t-23.5 -102t-46.5 -58t-74.5 -18.5z" />
    <glyph glyph-name="afii10078" unicode="&#x43c;" horiz-adv-x="648" 
d="M73 478h94l157 -337l157 337h94v-478h-82v343l-130 -281h-78l-130 281v-343h-82v478z" />
    <glyph glyph-name="afii10079" unicode="&#x43d;" horiz-adv-x="550" 
d="M73 478h86v-200h232v200h86v-478h-86v209h-232v-209h-86v478z" />
    <glyph glyph-name="afii10080" unicode="&#x43e;" horiz-adv-x="515" 
d="M475 239q0 53 -13.5 98.5t-40.5 79t-68 52.5t-95 19t-95 -19t-68.5 -52.5t-41 -79t-13.5 -98.5t13.5 -98.5t41 -79t68.5 -52.5t95 -19t95 19t68 52.5t40.5 79t13.5 98.5zM389 239q0 -84 -31.5 -133t-99.5 -49t-100 49.5t-32 132.5t32 132.5t100 49.5t99.5 -49t31.5 -133z
" />
    <glyph glyph-name="afii10081" unicode="&#x43f;" horiz-adv-x="557" 
d="M73 478h411v-478h-86v409h-239v-409h-86v478z" />
    <glyph glyph-name="afii10082" unicode="&#x440;" horiz-adv-x="546" 
d="M317 -10q50 0 86 19.5t59 53t34 79t11 97.5t-11 97.5t-34 79t-59 53t-85 19.5q-59 0 -99.5 -27.5t-62.5 -74.5v92h-83v-656h86v269q22 -46 61 -73.5t97 -27.5zM295 59q-35 0 -60.5 14.5t-42 39t-25 57t-8.5 69.5t8.5 69.5t25 57t42 39t60.5 14.5q34 0 58 -13.5t39 -37.5
t22 -57t7 -72t-7 -72t-22 -57t-39 -37.5t-58 -13.5z" />
    <glyph glyph-name="afii10083" unicode="&#x441;" horiz-adv-x="439" 
d="M407 458q-25 14 -62.5 22t-77.5 8q-112 0 -170 -66t-58 -183t58 -183t170 -66q40 0 77.5 7.5t62.5 21.5l-14 65q-23 -11 -52 -17.5t-61 -6.5q-43 0 -72.5 13t-48 36.5t-26.5 56.5t-8 73t8 73t26.5 56.5t48 36.5t72.5 13q32 0 61 -6.5t52 -17.5z" />
    <glyph glyph-name="afii10084" unicode="&#x442;" horiz-adv-x="422" 
d="M168 409h-151v69h388v-69h-151v-409h-86v409z" />
    <glyph glyph-name="afii10085" unicode="&#x443;" horiz-adv-x="429" 
d="M216 90l-123 388h-89l170 -480l-59 -176h86l224 656h-89z" />
    <glyph glyph-name="afii10086" unicode="&#x444;" horiz-adv-x="733" 
d="M508 59q28 0 47 13.5t31 37.5t17 57t5 72t-5.5 72t-18 57t-32 37.5t-46.5 13.5q-26 0 -45.5 -14.5t-32.5 -39t-19.5 -57t-6.5 -69.5t6.5 -69.5t19.5 -57t33 -39t47 -14.5zM324 69q-20 -35 -49.5 -57t-75.5 -22q-44 0 -74 20t-49.5 54t-28 79t-8.5 96q0 50 9 95.5
t28.5 79.5t50 54t72.5 20q47 0 75.5 -21t48.5 -59v258h86v-258q20 36 49.5 58t76.5 22q43 0 73.5 -20t49.5 -54t27.5 -79.5t8.5 -95.5q0 -51 -9 -96t-28.5 -79t-49.5 -54t-73 -20q-47 0 -75.5 21t-48.5 59v-248h-86v247zM227 59q26 0 45.5 14.5t32.5 39t19.5 57t6.5 69.5
t-6.5 69.5t-19 57t-32.5 39t-47 14.5q-28 0 -47.5 -13.5t-31.5 -37.5t-17 -57t-5 -72t5.5 -72t18 -57t32 -37.5t46.5 -13.5z" />
    <glyph glyph-name="afii10087" unicode="&#x445;" horiz-adv-x="453" 
d="M424 478h-90l-108 -169l-107 169h-90l154 -233l-163 -245h91l115 181l116 -181h91l-164 245z" />
    <glyph glyph-name="afii10088" unicode="&#x446;" horiz-adv-x="560" 
d="M453 0h-380v478h86v-409h224v409h86v-409h65v-220h-81v151z" />
    <glyph glyph-name="afii10089" unicode="&#x447;" horiz-adv-x="536" 
d="M377 231q-26 -39 -68 -61.5t-97 -22.5q-79 0 -117 44.5t-38 116.5v170h86v-144q0 -55 24.5 -84t75.5 -29q25 0 49.5 7.5t43 22.5t30 36t11.5 48v143h86v-478h-86v231z" />
    <glyph glyph-name="afii10090" unicode="&#x448;" horiz-adv-x="735" 
d="M73 478h86v-409h165v409h86v-409h166v409h86v-478h-589v478z" />
    <glyph glyph-name="afii10091" unicode="&#x449;" horiz-adv-x="753" 
d="M646 0h-573v478h86v-409h165v409h86v-409h166v409h86v-409h65v-220h-81v151z" />
    <glyph glyph-name="afii10092" unicode="&#x44a;" horiz-adv-x="584" 
d="M377 66q43 0 66.5 21.5t23.5 60.5q0 38 -23 60t-67 22h-100v-164h100zM191 409h-174v69h260v-185h112q42 0 73 -11.5t51.5 -31t30 -46.5t9.5 -57q0 -32 -11 -58.5t-32 -46.5t-51.5 -31t-69.5 -11h-198v409z" />
    <glyph glyph-name="afii10093" unicode="&#x44b;" horiz-adv-x="671" 
d="M512 478h86v-478h-86v478zM257 66q44 0 67.5 21.5t23.5 60.5q0 38 -23 60t-67 22h-99v-164h98zM73 478h86v-185h111q42 0 73 -11.5t51.5 -31t30 -46.5t9.5 -57q0 -32 -11 -58.5t-32 -46.5t-51.5 -31t-69.5 -11h-197v478z" />
    <glyph glyph-name="afii10094" unicode="&#x44c;" horiz-adv-x="489" 
d="M281 66q44 0 67.5 21.5t23.5 60.5q0 38 -23 60t-67 22h-123v-164h122zM73 478h86v-185h135q42 0 73 -11.5t51 -31t30 -46.5t10 -57q0 -32 -11.5 -58.5t-32.5 -46.5t-51.5 -31t-68.5 -11h-221v478z" />
    <glyph glyph-name="afii10095" unicode="&#x44d;" horiz-adv-x="449" 
d="M179 -10q-41 0 -80 7.5t-63 21.5l14 65q23 -11 53 -17.5t63 -6.5q77 0 113.5 41.5t41.5 110.5h-228v65h227q-7 64 -42.5 102.5t-111.5 38.5q-33 0 -63 -6.5t-53 -17.5l-14 64q24 14 63 22t80 8q115 0 172.5 -66t57.5 -183t-59 -183t-171 -66z" />
    <glyph glyph-name="afii10096" unicode="&#x44e;" horiz-adv-x="711" 
d="M467 -10q-48 0 -84 17t-60.5 46.5t-38.5 69.5t-17 86h-108v-209h-86v478h86v-200h108q4 45 18 83t39 66.5t60.5 44.5t82.5 16q52 0 90 -19.5t63.5 -53.5t38 -79t12.5 -97t-12.5 -97.5t-38 -79t-63.5 -53t-90 -19.5zM465 57q30 0 52.5 14t37.5 38t22.5 57.5t7.5 72.5
t-7.5 72t-22.5 57.5t-37.5 38.5t-52.5 14q-31 0 -54 -14t-38 -38.5t-22 -57.5t-7 -72t7 -72.5t22 -57.5t38 -38t54 -14z" />
    <glyph glyph-name="afii10097" unicode="&#x44f;" horiz-adv-x="513" 
d="M161 197q-54 14 -82 51t-28 85q0 63 44 104t128 41h217v-478h-86v190h-107l-126 -190h-97zM354 249v163h-124q-42 0 -67.5 -20t-25.5 -60t25.5 -61.5t67.5 -21.5h124z" />
    <glyph glyph-name="uni0450" unicode="&#x450;" horiz-adv-x="487" 
d="M451 209v53q0 49 -10.5 90.5t-33.5 71.5t-59 47t-88 17q-55 0 -96.5 -18.5t-69 -51.5t-41 -78.5t-13.5 -100.5t14 -100.5t42.5 -78.5t72.5 -51.5t104 -18.5q51 0 95 10t77 27l-14 60q-32 -14 -68.5 -23.5t-77.5 -9.5q-83 0 -118.5 41t-39.5 114h324zM259 427
q30 0 51 -10.5t34 -29.5t19 -45.5t6 -57.5v-12h-242q5 78 37 116.5t95 38.5zM212 543h81l-62 152h-107z" />
    <glyph glyph-name="afii10071" unicode="&#x451;" horiz-adv-x="487" 
d="M451 209v53q0 49 -10.5 90.5t-33.5 71.5t-59 47t-88 17q-55 0 -96.5 -18.5t-69 -51.5t-41 -78.5t-13.5 -100.5t14 -100.5t42.5 -78.5t72.5 -51.5t104 -18.5q51 0 95 10t77 27l-14 60q-32 -14 -68.5 -23.5t-77.5 -9.5q-83 0 -118.5 41t-39.5 114h324zM259 427
q30 0 51 -10.5t34 -29.5t19 -45.5t6 -57.5v-12h-242q5 78 37 116.5t95 38.5zM294 612q0 -22 14.5 -37t38.5 -15t38 15t14 37t-14 36.5t-38 14.5t-38.5 -14.5t-14.5 -36.5zM111 612q0 -22 14.5 -37t37.5 -15q25 0 39 15t14 37t-14 36.5t-39 14.5q-23 0 -37.5 -14.5
t-14.5 -36.5z" />
    <glyph glyph-name="afii10099" unicode="&#x452;" horiz-adv-x="559" 
d="M365 -188q-17 0 -35 2.5t-32 7.5l6 68q11 -3 22 -4t22 -1q30 0 41.5 15t11.5 44v368q0 49 -23.5 75.5t-72.5 26.5q-57 0 -94.5 -41.5t-37.5 -116.5v-256h-86v542h-63v55h63v69h86v-69h112v-55h-112v-160q20 48 60 77t100 29q81 0 117.5 -43t36.5 -120v-390
q0 -59 -29.5 -91t-92.5 -32z" />
    <glyph glyph-name="afii10100" unicode="&#x453;" horiz-adv-x="424" 
d="M188 543h81l88 152h-108zM73 478h334v-69h-248v-409h-86v478z" />
    <glyph glyph-name="afii10101" unicode="&#x454;" horiz-adv-x="440" 
d="M268 -10q40 0 77.5 7.5t62.5 21.5l-14 65q-23 -11 -52 -17.5t-61 -6.5q-77 0 -112.5 41.5t-40.5 110.5h223v65h-222q7 64 42.5 102.5t109.5 38.5q32 0 61 -6.5t52 -17.5l14 64q-25 14 -62.5 22t-77.5 8q-112 0 -170 -66t-58 -183t58 -183t170 -66z" />
    <glyph glyph-name="afii10102" unicode="&#x455;" horiz-adv-x="426" 
d="M393 138q0 31 -12 53t-33 38.5t-50 28t-63 21.5q-30 9 -51 16t-35 15.5t-20.5 20t-6.5 29.5q0 35 25 49t71 14q40 0 77 -9t67 -21l16 62q-32 14 -72 23.5t-90 9.5q-85 0 -131.5 -33t-46.5 -105q0 -56 39.5 -89t131.5 -58q55 -15 77.5 -31t22.5 -47q0 -70 -96 -70
q-39 0 -77.5 9.5t-76.5 24.5l-19 -63q42 -17 87 -26.5t87 -9.5q83 0 131 38.5t48 109.5z" />
    <glyph glyph-name="afii10103" unicode="&#x456;" horiz-adv-x="232" 
d="M58 607q0 -23 15.5 -40.5t42.5 -17.5q26 0 41.5 17.5t15.5 40.5t-15.5 40.5t-41.5 17.5q-27 0 -42.5 -17.5t-15.5 -40.5zM159 0v478h-86v-478h86z" />
    <glyph glyph-name="afii10104" unicode="&#x457;" horiz-adv-x="232" 
d="M73 478h86v-478h-86v478zM47 551q-26 0 -39 16.5t-13 39.5t13 39.5t39 16.5t39 -16.5t13 -39.5t-13 -39.5t-39 -16.5zM185 551q-26 0 -39.5 16.5t-13.5 39.5t13.5 39.5t39.5 16.5q25 0 38.5 -16.5t13.5 -39.5t-13.5 -39.5t-38.5 -16.5z" />
    <glyph glyph-name="afii10105" unicode="&#x458;" horiz-adv-x="231" 
d="M58 607q0 -23 15.5 -40.5t42.5 -17.5q26 0 41.5 17.5t15.5 40.5t-15.5 40.5t-41.5 17.5q-27 0 -42.5 -17.5t-15.5 -40.5zM20 -115q-11 0 -22 1t-22 4l-6 -68q14 -5 32.5 -7.5t35.5 -2.5q63 0 92 32t29 91v543h-86v-534q0 -29 -11.5 -44t-41.5 -15z" />
    <glyph glyph-name="afii10106" unicode="&#x459;" horiz-adv-x="766" 
d="M66 -7q-15 0 -31 2t-30 7l9 70q9 -3 19.5 -4.5t19.5 -1.5q25 0 40.5 13.5t24 43t11.5 77t3 116.5v162h326v-185h114q42 0 72.5 -11.5t51 -31t30 -46.5t9.5 -57q0 -32 -11 -58.5t-32 -46.5t-51.5 -31t-68.5 -11h-200v409h-154v-88q0 -87 -6.5 -149.5t-24 -102t-47 -58
t-74.5 -18.5zM559 66q43 0 66.5 21.5t23.5 60.5q0 38 -23 60t-67 22h-101v-164h101z" />
    <glyph glyph-name="afii10107" unicode="&#x45a;" horiz-adv-x="772" 
d="M73 478h86v-188h218v188h86v-188h114q42 0 73 -11.5t51 -31t30 -45.5t10 -56q0 -64 -43 -105t-121 -41h-200v223h-218v-223h-86v478zM564 66q44 0 67.5 20.5t23.5 58.5t-23 58t-67 20h-102v-157h101z" />
    <glyph glyph-name="afii10108" unicode="&#x45b;" horiz-adv-x="554" 
d="M24 542h63v-542h86v256q0 75 37.5 116.5t94.5 41.5q49 0 72.5 -26.5t23.5 -75.5v-312h86v325q0 77 -36.5 120t-117.5 43q-60 0 -100 -29t-60 -77v160h112v55h-112v69h-86v-69h-63v-55z" />
    <glyph glyph-name="afii10109" unicode="&#x45c;" horiz-adv-x="488" 
d="M205 543h81l88 152h-108zM73 478h86v-218l206 218h102l-224 -232l227 -246h-103l-208 231v-231h-86v478z" />
    <glyph glyph-name="uni045D" unicode="&#x45d;" horiz-adv-x="565" 
d="M252 543h81l-62 152h-107zM73 478h82v-356l253 356h84v-478h-82v357l-253 -357h-84v478z" />
    <glyph glyph-name="afii10110" unicode="&#x45e;" horiz-adv-x="429" 
d="M216 90l-123 388h-89l170 -480l-59 -176h86l224 656h-89zM357 668h-66q0 -32 -17.5 -51.5t-54.5 -19.5t-54.5 19.5t-17.5 51.5h-66q0 -60 39 -92.5t99 -32.5t99 32.5t39 92.5z" />
    <glyph glyph-name="afii10193" unicode="&#x45f;" horiz-adv-x="567" 
d="M243 0h-170v478h86v-409h249v409h86v-478h-170v-151h-81v151z" />
    <glyph glyph-name="afii10146" unicode="&#x462;" horiz-adv-x="620" 
d="M105 501h-75v56h75v109h88v-109h191v-56h-191v-108h187q55 0 95 -15.5t66 -42t38.5 -62.5t12.5 -76q0 -41 -14 -76.5t-41 -62.5t-66.5 -42.5t-90.5 -15.5h-275v501zM370 72q63 0 98.5 34t35.5 91t-35 90.5t-99 33.5h-177v-249h177z" />
    <glyph glyph-name="afii10194" unicode="&#x463;" horiz-adv-x="497" 
d="M81 423h-63v55h63v188h86v-188h150v-55h-150v-130h135q42 0 73 -11.5t51 -31t30 -46.5t10 -57q0 -32 -11.5 -58.5t-32.5 -46.5t-51.5 -31t-68.5 -11h-221v423zM289 66q44 0 67.5 21.5t23.5 60.5q0 38 -23 60t-67 22h-123v-164h122z" />
    <glyph glyph-name="afii10147" unicode="&#x472;" horiz-adv-x="692" 
d="M43 333q0 69 18.5 132t56 110t94.5 75t134 28t134 -28t94.5 -75t56 -110t18.5 -132t-18.5 -132t-56 -110t-94.5 -75t-134 -28t-134 28t-94.5 75t-56 110t-18.5 132zM346 61q52 0 90.5 17.5t65 49.5t41 76t17.5 98h-428q3 -54 17.5 -98t41 -76t65 -49.5t90.5 -17.5z
M346 605q-50 0 -88 -16.5t-64.5 -46.5t-41.5 -72t-19 -93h426q-5 51 -20 93t-41 72t-64 46.5t-88 16.5z" />
    <glyph glyph-name="afii10195" unicode="&#x473;" horiz-adv-x="515" 
d="M475 239q0 -53 -13.5 -98.5t-40.5 -79t-68 -52.5t-95 -19t-95 19t-68.5 52.5t-41 79t-13.5 98.5t13.5 98.5t41 79t68.5 52.5t95 19t95 -19t68 -52.5t40.5 -79t13.5 -98.5zM258 57q62 0 93.5 41t36.5 113h-262q5 -72 37 -113t95 -41zM258 421q-61 0 -92.5 -39t-38.5 -106
h260q-6 67 -37.5 106t-91.5 39z" />
    <glyph glyph-name="afii10148" unicode="&#x474;" horiz-adv-x="673" 
d="M13 666h92l171 -567l143 422q12 34 25.5 63t32 50t45 32.5t63.5 11.5q27 0 49 -5t44 -13l-11 -70q-18 7 -32.5 10.5t-31.5 3.5q-24 0 -40 -8t-28 -22t-20.5 -33t-15.5 -40l-175 -501h-99z" />
    <glyph glyph-name="afii10196" unicode="&#x475;" horiz-adv-x="510" 
d="M4 478h91l117 -391l99 286q9 25 19.5 46.5t25.5 36.5t36 23.5t51 8.5q22 0 39 -4t34 -10l-10 -68q-12 5 -22.5 7t-22.5 2q-33 0 -48.5 -18t-25.5 -46l-128 -351h-97z" />
    <glyph glyph-name="afii10050" unicode="&#x490;" horiz-adv-x="538" 
d="M78 666h356v151h83v-227h-351v-590h-88v666z" />
    <glyph glyph-name="afii10098" unicode="&#x491;" horiz-adv-x="436" 
d="M73 478h266v151h80v-220h-260v-409h-86v478z" />
    <glyph glyph-name="Wgrave" unicode="&#x1e80;" horiz-adv-x="855" 
d="M462 730l-83 132h-113l115 -132h81zM477 666h-98l-150 -534l-134 534h-87l180 -666h82l158 582l157 -582h83l179 666h-86l-135 -534z" />
    <glyph glyph-name="wgrave" unicode="&#x1e81;" horiz-adv-x="695" 
d="M394 478h-93l-110 -381l-101 381h-83l140 -478h85l116 398l115 -398h85l141 478h-84l-100 -381zM300 543h81l-62 152h-107z" />
    <glyph glyph-name="Wacute" unicode="&#x1e82;" horiz-adv-x="855" 
d="M587 862h-113l-83 -132h82zM477 666h-98l-150 -534l-134 534h-87l180 -666h82l158 582l157 -582h83l179 666h-86l-135 -534z" />
    <glyph glyph-name="wacute" unicode="&#x1e83;" horiz-adv-x="695" 
d="M312 543h81l88 152h-108zM394 478h-93l-110 -381l-101 381h-83l140 -478h85l116 398l115 -398h85l141 478h-84l-100 -381z" />
    <glyph glyph-name="Wdieresis" unicode="&#x1e84;" horiz-adv-x="855" 
d="M477 666h-98l-150 -534l-134 534h-87l180 -666h82l158 582l157 -582h83l179 666h-86l-135 -534zM473 794q0 -23 14 -37t38 -14q25 0 39 14t14 37t-14 37t-39 14q-24 0 -38 -14t-14 -37zM278 794q0 -23 14 -37t38 -14q25 0 39 14t14 37t-14 37t-39 14q-24 0 -38 -14
t-14 -37z" />
    <glyph glyph-name="wdieresis" unicode="&#x1e85;" horiz-adv-x="695" 
d="M386 612q0 -22 14.5 -37t38.5 -15t38 15t14 37t-14 36.5t-38 14.5t-38.5 -14.5t-14.5 -36.5zM203 612q0 -22 14.5 -37t37.5 -15q25 0 39 15t14 37t-14 36.5t-39 14.5q-23 0 -37.5 -14.5t-14.5 -36.5zM394 478h-93l-110 -381l-101 381h-83l140 -478h85l116 398l115 -398
h85l141 478h-84l-100 -381z" />
    <glyph glyph-name="Ygrave" unicode="&#x1ef2;" horiz-adv-x="547" 
d="M537 666h-92l-171 -319l-171 319h-93l220 -397v-269h88v269zM325 730l-83 132h-113l115 -132h81z" />
    <glyph glyph-name="ygrave" unicode="&#x1ef3;" horiz-adv-x="429" 
d="M216 90l-123 388h-89l170 -480l-59 -176h86l224 656h-89zM183 543h81l-62 152h-107z" />
    <glyph glyph-name="endash" unicode="&#x2013;" horiz-adv-x="560" 
d="M500 251v73h-440v-73h440z" />
    <glyph glyph-name="emdash" unicode="&#x2014;" horiz-adv-x="781" 
d="M721 251v73h-661v-73h661z" />
    <glyph glyph-name="quoteleft" unicode="&#x2018;" horiz-adv-x="218" 
d="M28 428h104l61 238h-70z" />
    <glyph glyph-name="quoteright" unicode="&#x2019;" horiz-adv-x="215" 
d="M25 428h70l95 238h-104z" />
    <glyph glyph-name="quotesinglbase" unicode="&#x201a;" horiz-adv-x="251" 
d="M193 112h-104l-60 -237h69z" />
    <glyph glyph-name="quotedblleft" unicode="&#x201c;" horiz-adv-x="426" 
d="M238 428h105l60 238h-69zM30 428h104l61 238h-70z" />
    <glyph glyph-name="quotedblright" unicode="&#x201d;" horiz-adv-x="426" 
d="M234 428h69l96 238h-105zM25 428h70l95 238h-104z" />
    <glyph glyph-name="quotedblbase" unicode="&#x201e;" horiz-adv-x="460" 
d="M402 112h-104l-61 -237h70zM193 112h-104l-60 -237h69z" />
    <glyph glyph-name="dagger" unicode="&#x2020;" horiz-adv-x="419" 
d="M253 666h-87v-55l19 -102l-81 18h-56v-72h56l81 18l-19 -102l22 -295h43l22 295l-20 102l82 -18h56v72h-56l-82 -18l20 102v55z" />
    <glyph glyph-name="daggerdbl" unicode="&#x2021;" horiz-adv-x="419" 
d="M166 666v-55l19 -102l-81 18h-56v-72h56l81 18l-19 -102v-76l19 -102l-81 18h-56v-72h56l81 18l-19 -102v-55h87v55l-20 102l82 -18h56v72h-56l-82 -18l20 102v76l-20 102l82 -18h56v72h-56l-82 -18l20 102v55h-87z" />
    <glyph glyph-name="bullet" unicode="&#x2022;" horiz-adv-x="355" 
d="M305 351q0 26 -9.5 49t-26 40t-40.5 26.5t-52 9.5t-51.5 -9.5t-40 -26.5t-26 -40t-9.5 -49t9.5 -49t26 -40t40 -26.5t51.5 -9.5t52 9.5t40.5 26.5t26 40t9.5 49z" />
    <glyph glyph-name="ellipsis" unicode="&#x2026;" horiz-adv-x="762" 
d="M68 52q0 -26 16 -42.5t43 -16.5t43 16.5t16 42.5t-16 42t-43 16t-43 -16t-16 -42zM322 52q0 -26 16 -42.5t43 -16.5t43 16.5t16 42.5t-16 42t-43 16t-43 -16t-16 -42zM576 52q0 -26 16 -42.5t43 -16.5t43 16.5t16 42.5t-16 42t-43 16t-43 -16t-16 -42z" />
    <glyph glyph-name="perthousand" unicode="&#x2030;" horiz-adv-x="1194" 
d="M199 320q40 0 69.5 14t49 38.5t29 57t9.5 68.5t-9.5 68.5t-29 57t-49 38.5t-69.5 14q-39 0 -68.5 -14t-49 -38.5t-29 -57t-9.5 -68.5t9.5 -68.5t29 -57t49 -38.5t68.5 -14zM211 0h75l326 666h-76zM199 375q-45 0 -66.5 33t-21.5 90t21.5 90t66.5 33t67 -33t22 -90
t-22 -90t-67 -33zM999 -10q40 0 69.5 14t49 38.5t29 57t9.5 68.5t-9.5 68.5t-29 57t-49 38.5t-69.5 14t-69 -14t-48.5 -38.5t-29 -57t-9.5 -68.5t9.5 -68.5t29 -57t48.5 -38.5t69 -14zM622 -10q40 0 69.5 14t49 38.5t29 57t9.5 68.5t-9.5 68.5t-29 57t-49 38.5t-69.5 14
t-69.5 -14t-49 -38.5t-29 -57t-9.5 -68.5t9.5 -68.5t29 -57t49 -38.5t69.5 -14zM999 45q-45 0 -66.5 33t-21.5 90t21.5 90t66.5 33t67 -33t22 -90t-22 -90t-67 -33zM622 45q-45 0 -66.5 33t-21.5 90t21.5 90t66.5 33t67 -33t22 -90t-22 -90t-67 -33z" />
    <glyph glyph-name="guilsinglleft" unicode="&#x2039;" horiz-adv-x="338" 
d="M293 447h-98l-165 -204l165 -205h98l-164 205z" />
    <glyph glyph-name="guilsinglright" unicode="&#x203a;" horiz-adv-x="338" 
d="M143 447h-98l164 -204l-164 -205h98l165 205z" />
    <glyph glyph-name="fraction" unicode="&#x2044;" horiz-adv-x="418" 
d="M416 666h-69l-346 -666h70z" />
    <glyph glyph-name="Euro" unicode="&#x20ac;" horiz-adv-x="583" 
d="M38 392h81q-1 -14 -1.5 -29t-0.5 -30q0 -16 0.5 -30.5t1.5 -28.5h-81v-64h91q22 -102 85 -161t176 -59q46 0 86 8.5t67 22.5l-13 63q-25 -10 -59 -17.5t-70 -7.5q-82 0 -126 39t-61 112h240v64h-249q-1 14 -1.5 28.5t-0.5 30.5t0.5 30.5t1.5 28.5h249v64h-240
q17 73 61 112t126 39q36 0 70 -7.5t59 -17.5l13 63q-27 14 -67 22.5t-86 8.5q-113 0 -176 -59.5t-85 -160.5h-91v-64z" />
    <glyph glyph-name="afii61352" unicode="&#x2116;" horiz-adv-x="1025" 
d="M78 0h85v529l365 -529h87v666h-85v-529l-365 529h-87v-666zM977 512q0 36 -9 66t-27.5 51.5t-45.5 34t-63 12.5t-63 -12.5t-45.5 -34t-27.5 -51.5t-9 -66t9 -66t27 -51.5t45.5 -34t63.5 -12.5t63.5 12.5t45.5 34t27 51.5t9 66zM915 512q0 -54 -20 -84.5t-63 -30.5
t-63 30.5t-20 84.5q0 53 20 83.5t63 30.5t63 -30.5t20 -83.5zM698 240h268v52h-268v-52z" />
    <glyph glyph-name="trademark" unicode="&#x2122;" horiz-adv-x="694" 
d="M444 405h56l75 169v-220h50v312h-58l-95 -214l-95 214h-58v-312h50v220zM28 666v-46h90v-266h54v266h90v46h-234z" />
    <glyph glyph-name="Omega" unicode="&#x2126;" horiz-adv-x="729" 
d="M655 369q0 71 -22 128t-61.5 97.5t-95.5 62t-125 21.5q-68 0 -124 -21.5t-96 -62t-61.5 -97.5t-21.5 -128q0 -99 39 -171.5t101 -127.5h-125v-70h219v70q-72 58 -110 129t-38 165q0 115 55.5 179.5t161.5 64.5t162 -64.5t56 -179.5q0 -94 -38 -165t-110 -129v-70h219v70
h-125q31 28 56.5 59.5t44 68t29 79t10.5 92.5z" />
    <glyph glyph-name="estimated" unicode="&#x212e;" horiz-adv-x="809" 
d="M762 321v23q0 70 -29 130.5t-77.5 105.5t-113.5 70.5t-137 25.5t-137 -25t-114 -69.5t-77.5 -105.5t-28.5 -133q0 -75 27 -140t74.5 -112t113 -74t142.5 -27q94 0 169.5 33t145.5 98l-24 25q-67 -65 -136 -94t-154 -29q-66 0 -119.5 19.5t-96.5 57.5v221h572zM405 643
q62 0 115.5 -21.5t99.5 -57.5v-211h-430v211q42 37 97 58t118 21z" />
    <glyph glyph-name="partialdiff" unicode="&#x2202;" horiz-adv-x="534" 
d="M248 421q-45 0 -83 -15t-66.5 -42.5t-44.5 -68t-16 -91.5q0 -47 15.5 -86t43 -67.5t65.5 -44.5t83 -16q65 0 111.5 28.5t76.5 76t44 109.5t14 129t-14.5 129.5t-46 109.5t-83 75.5t-124.5 28.5q-42 0 -82 -8.5t-67 -24.5l19 -65q54 28 118 28q57 0 95.5 -22t62.5 -61
t34.5 -92t10.5 -116q-18 46 -61 76t-105 30zM119 203q0 77 38 113t104 36q30 0 54.5 -10.5t42 -29t27 -43.5t9.5 -53q0 -31 -9.5 -60t-27.5 -51t-45 -35t-62 -13q-61 0 -96 38.5t-35 107.5z" />
    <glyph glyph-name="Delta" unicode="&#x2206;" horiz-adv-x="658" 
d="M369 666h-80l-264 -666h608zM522 69h-385l192 508z" />
    <glyph glyph-name="product" unicode="&#x220f;" horiz-adv-x="796" 
d="M252 597h293v-775h86v775h130v69h-726v-69h131v-775h86v775z" />
    <glyph glyph-name="summation" unicode="&#x2211;" horiz-adv-x="549" 
d="M390 244l-247 353h376v69h-469v-69l247 -353l-247 -353v-69h469v69h-376z" />
    <glyph glyph-name="minus" unicode="&#x2212;" horiz-adv-x="559" 
d="M58 287h444v72h-444v-72z" />
    <glyph glyph-name="radical" unicode="&#x221a;" horiz-adv-x="649" 
d="M53 206l109 42l143 -348h97l199 766h-84l-168 -682l-140 357l-181 -69z" />
    <glyph glyph-name="infinity" unicode="&#x221e;" horiz-adv-x="871" 
d="M436 271q41 -48 93.5 -80.5t116.5 -32.5q40 0 72.5 11.5t56 33.5t36.5 52t13 68q0 37 -13 67.5t-36.5 52.5t-56 33.5t-72.5 11.5q-64 0 -116.5 -32.5t-93.5 -80.5q-41 48 -94 80.5t-116 32.5q-40 0 -73 -11.5t-56 -33.5t-36 -52.5t-13 -67.5q0 -38 13 -68t36 -52
t56 -33.5t73 -11.5q63 0 116 32.5t94 80.5zM478 323q30 42 70 69.5t89 27.5q45 0 76 -23.5t31 -73.5t-31 -73.5t-76 -23.5q-49 0 -89 27.5t-70 69.5zM394 323q-31 -42 -70.5 -69.5t-88.5 -27.5q-46 0 -76.5 23.5t-30.5 73.5t30.5 73.5t76.5 23.5q49 0 88.5 -27.5t70.5 -69.5
z" />
    <glyph glyph-name="integral" unicode="&#x222b;" horiz-adv-x="352" 
d="M207 531q0 42 15 59.5t50 17.5q14 0 27 -2t21 -4l7 63q-30 11 -72 11q-66 0 -100 -33.5t-34 -109.5v-575q0 -36 -13.5 -57t-51.5 -21q-11 0 -22.5 1.5t-20.5 4.5l-8 -63q13 -5 32.5 -8t39.5 -3q66 0 98 39.5t32 105.5v574z" />
    <glyph glyph-name="approxequal" unicode="&#x2248;" horiz-adv-x="557" 
d="M384 154q38 0 70 18t55 41l-34 49q-22 -18 -42 -29t-47 -11q-24 0 -43 8.5l-46 21.5q-30 15 -53.5 24t-53.5 9q-45 0 -77 -19t-60 -46l36 -48q25 20 46.5 32.5t50.5 12.5q22 0 42 -8t46 -21q29 -14 55.5 -24t54.5 -10zM384 361q38 0 70 18t55 41l-34 49q-22 -18 -42 -29
t-47 -11q-24 0 -43 8.5l-46 21.5q-30 15 -53.5 24t-53.5 9q-45 0 -77 -19t-60 -46l36 -48q25 20 46.5 32.5t50.5 12.5q22 0 42 -8t46 -21q29 -14 55.5 -24t54.5 -10z" />
    <glyph glyph-name="notequal" unicode="&#x2260;" horiz-adv-x="549" 
d="M53 395h220l-76 -144h-144v-72h108l-52 -101h79l52 101h256v72h-220l76 144h144v72h-108l53 101h-79l-53 -101h-256v-72z" />
    <glyph glyph-name="lessequal" unicode="&#x2264;" horiz-adv-x="550" 
d="M497 145v76l-352 129l352 129v77l-444 -170v-71zM497 0v68h-444v-68h444z" />
    <glyph glyph-name="greaterequal" unicode="&#x2265;" horiz-adv-x="550" 
d="M496 315v71l-443 170v-77l352 -129l-352 -129v-76zM497 68h-444v-68h444v68z" />
    <glyph glyph-name="lozenge" unicode="&#x25ca;" horiz-adv-x="564" 
d="M327 666h-89l-203 -333l203 -333h89l202 333zM124 333l158 265l158 -265l-158 -265z" />
    <glyph glyph-name="apple" unicode="&#xf8ff;" horiz-adv-x="355" 
d="M305 351q0 26 -9.5 49t-26 40t-40.5 26.5t-52 9.5t-51.5 -9.5t-40 -26.5t-26 -40t-9.5 -49t9.5 -49t26 -40t40 -26.5t51.5 -9.5t52 9.5t40.5 26.5t26 40t9.5 49z" />
    <glyph glyph-name="acute.case" horiz-adv-x="362" 
d="M279 862h-113l-83 -132h82z" />
    <glyph glyph-name="breve.case" horiz-adv-x="452" 
d="M301 849q0 -29 -18.5 -46t-56.5 -17q-37 0 -56 16.5t-19 46.5h-68q0 -57 39.5 -87t103.5 -30t104 30t40 87h-69z" />
    <glyph glyph-name="caron.case" horiz-adv-x="476" 
d="M394 862h-83l-73 -86l-72 86h-83l113 -132h83z" />
    <glyph glyph-name="circumflex.case" horiz-adv-x="476" 
d="M279 862h-83l-113 -132h83l72 85l73 -85h83z" />
    <glyph glyph-name="dieresis.case" horiz-adv-x="466" 
d="M278 794q0 -23 14 -37t38 -14q25 0 39 14t14 37t-14 37t-39 14q-24 0 -38 -14t-14 -37zM83 794q0 -23 14 -37t38 -14q25 0 39 14t14 37t-14 37t-39 14q-24 0 -38 -14t-14 -37z" />
    <glyph glyph-name="dotaccent.case" horiz-adv-x="281" 
d="M83 801q0 -23 15.5 -40.5t41.5 -17.5q27 0 42.5 17.5t15.5 40.5q0 24 -15.5 41t-42.5 17q-26 0 -41.5 -17t-15.5 -41z" />
    <glyph glyph-name="grave.case" horiz-adv-x="362" 
d="M279 730l-83 132h-113l115 -132h81z" />
    <glyph glyph-name="hungarumlaut.case" horiz-adv-x="512" 
d="M430 862h-99l-61 -132h78zM231 862h-93l-55 -132h75z" />
    <glyph glyph-name="macron.case" horiz-adv-x="478" 
d="M396 756v68h-313v-68h313z" />
    <glyph glyph-name="ring.case" horiz-adv-x="351" 
d="M268 812q0 35 -23 59t-70 24t-69.5 -24t-22.5 -59q0 -34 22.5 -58t69.5 -24t70 24t23 58zM126 812q0 23 13 35.5t36 12.5q49 0 49 -48q0 -47 -49 -47q-23 0 -36 12t-13 35z" />
    <glyph glyph-name="tilde.case" horiz-adv-x="503" 
d="M364 849q-6 -17 -15 -31.5t-30 -14.5q-13 0 -29 7l-34 15t-37 15t-37 7q-41 0 -63 -23.5t-36 -67.5l58 -21q8 20 17 33.5t29 13.5q15 0 32.5 -7t36.5 -15.5t38 -15.5t36 -7q19 0 33 7t24.5 19.5t18.5 29t15 35.5z" />
    <glyph glyph-name="Alphatonos.d" horiz-adv-x="625" 
d="M17 0h89l61 175h291l62 -175h89l-248 666h-97zM313 596l120 -347h-240z" />
    <glyph glyph-name="Epsilontonos.d" horiz-adv-x="556" 
d="M78 0h430v76h-342v227h319v76h-319v211h341v76h-429v-666z" />
    <glyph glyph-name="Etatonos.d" horiz-adv-x="671" 
d="M78 0h88v301h339v-301h88v666h-88v-287h-339v287h-88v-666z" />
    <glyph glyph-name="Iotatonos.d" 
d="M83 0h88v666h-88v-666z" />
    <glyph glyph-name="Omicrontonos.d" horiz-adv-x="692" 
d="M43 333q0 -69 18.5 -132t56 -110t94.5 -75t134 -28t134 28t94.5 75t56 110t18.5 132t-18.5 132t-56 110t-94.5 75t-134 28t-134 -28t-94.5 -75t-56 -110t-18.5 -132zM346 61q-56 0 -96.5 20t-66.5 56t-39 86t-13 110t13 110t39 86t66.5 56t96.5 20q55 0 96 -20t67 -56
t39 -86t13 -110t-13 -110t-39 -86t-67 -56t-96 -20z" />
    <glyph glyph-name="Upsilontonos.d" horiz-adv-x="547" 
d="M537 666h-92l-171 -319l-171 319h-93l220 -397v-269h88v269z" />
    <glyph glyph-name="Omegatonos.d" horiz-adv-x="729" 
d="M655 369q0 71 -22 128t-61.5 97.5t-95.5 62t-125 21.5q-68 0 -124 -21.5t-96 -62t-61.5 -97.5t-21.5 -128q0 -99 39 -171.5t101 -127.5h-125v-70h219v70q-72 58 -110 129t-38 165q0 115 55.5 179.5t161.5 64.5t162 -64.5t56 -179.5q0 -94 -38 -165t-110 -129v-70h219v70
h-125q31 28 56.5 59.5t44 68t29 79t10.5 92.5z" />
    <glyph glyph-name="quotedbl" unicode="&#x22;" horiz-adv-x="405" 
d="M270 404h66l9 154v108h-84v-108zM69 404h66l9 154v108h-84v-108z" />
    <glyph glyph-name="exclam" unicode="!" horiz-adv-x="249" 
d="M100 178h48l22 235v253h-91v-253zM65 52q0 -26 16 -42.5t43 -16.5t43 16.5t16 42.5t-16 42t-43 16t-43 -16t-16 -42z" />
    </font>
</defs>
</svg>
