<?xml version="1.0" encoding="UTF-8"?>
<svg width="174px" height="37px" viewBox="0 0 174 37" version="1.1" xmlns="http://www.w3.org/2000/svg" xmlns:xlink="http://www.w3.org/1999/xlink">
    <!-- Generator: Sketch 61.2 (89653) - https://sketch.com -->
    <title>reuters_connect_logo</title>
    <desc>Created with Sketch.</desc>
    <g id="Reuters" stroke="none" stroke-width="1" fill="none" fill-rule="evenodd">
        <g id="Reuters---Advanced-Filters-Date-Picker" transform="translate(-22.000000, -22.000000)" fill-rule="nonzero">
            <g id="TR-Navigation-Bar">
                <g id="reuters_connect_logo" transform="translate(22.000000, 21.340580)">
                    <path d="M62.1653747,25.2028986 C62.1653747,25.3550725 62.0904393,25.4311594 61.9405685,25.4311594 L59.6175711,25.4311594 C59.3927649,25.4311594 59.3178295,25.2028986 59.2428941,25.0507246 L56.5452196,20.4094203 L56.0956072,20.4094203 C55.5710594,20.4094203 54.0723514,20.3333333 53.622739,20.3333333 L53.622739,25.0507246 C53.622739,25.2789855 53.4728682,25.4311594 53.248062,25.4311594 L51.374677,25.4311594 C51.1498708,25.4311594 51,25.2789855 51,25.0507246 L51,12.4963768 C51,12.115942 51.2248062,11.9637681 51.5994832,11.8876812 C52.5736434,11.7355072 54.6718346,11.6594203 56.0956072,11.6594203 C59.0180879,11.6594203 61.6408269,12.7246377 61.6408269,15.9963768 L61.6408269,16.1485507 C61.6408269,18.2028986 60.6666667,19.2681159 59.0930233,19.8768116 L62.0155039,24.9746377 C62.1653747,25.1268116 62.1653747,25.2028986 62.1653747,25.2028986 Z M59.0930233,15.9963768 C59.0930233,14.5507246 57.9689922,13.942029 56.0956072,13.942029 C55.7209302,13.942029 53.997416,14.0181159 53.622739,14.0181159 L53.622739,18.1268116 C53.9224806,18.1268116 55.7209302,18.2028986 56.0956072,18.2028986 C58.0439276,18.2028986 59.0930233,17.8224638 59.0930233,16.1485507 L59.0930233,15.9963768 Z M67.1860465,19.4963768 L73.1808786,19.4963768 C73.4056848,19.4963768 73.5555556,19.3442029 73.5555556,19.115942 L73.5555556,17.7463768 C73.5555556,17.5181159 73.4056848,17.365942 73.1808786,17.365942 L67.1860465,17.365942 L67.1860465,15.615942 C67.1860465,14.0181159 67.2609819,13.942029 68.6847545,13.942029 L73.4806202,13.942029 C73.7054264,13.942029 73.8552972,13.7898551 73.8552972,13.5615942 L73.8552972,12.3442029 C73.8552972,12.0398551 73.7803618,11.9637681 73.4806202,11.9637681 C72.881137,11.8876812 71.6821705,11.7355072 69.4341085,11.7355072 C66.2868217,11.7355072 64.6382429,11.7355072 64.6382429,15.615942 L64.6382429,21.7028986 C64.6382429,25.6594203 66.2868217,25.5834377 69.4341085,25.5834377 C71.6821705,25.5834377 72.881137,25.4311594 73.4806202,25.2789855 C73.7803618,25.2789855 73.8552972,25.1268116 73.8552972,24.8985507 L73.8552972,23.6811594 C73.8552972,23.4528986 73.7054264,23.3007246 73.4806202,23.3007246 L68.6847545,23.3007246 C67.2609819,23.3007246 67.1860465,23.2246377 67.1860465,21.6268116 L67.1860465,19.4963768 Z M87.8682171,20.1811594 L87.8682171,12.192029 C87.8682171,11.9637681 87.7183463,11.8115942 87.4935401,11.8115942 L85.620155,11.8115942 C85.3953488,11.8115942 85.245478,11.9637681 85.245478,12.192029 L85.245478,20.1811594 C85.245478,22.3876812 84.2713178,23.3768116 82.248062,23.3768116 C80.2248062,23.3768116 79.250646,22.3115942 79.250646,20.1811594 L79.250646,12.192029 C79.250646,11.9637681 79.1007752,11.8115942 78.875969,11.8115942 L77.002584,11.8115942 C76.7777778,11.8115942 76.627907,11.9637681 76.627907,12.192029 L76.627907,20.1811594 C76.627907,24.2898551 79.250646,25.5833333 82.248062,25.5833333 C85.245478,25.5833333 87.8682171,24.2898551 87.8682171,20.1811594 Z M100.607235,13.7137681 L100.607235,12.192029 C100.607235,11.9637681 100.457364,11.8115942 100.232558,11.8115942 L90.1162791,11.8115942 C89.8914729,11.8115942 89.7416021,11.9637681 89.7416021,12.192029 L89.7416021,13.7137681 C89.7416021,13.942029 89.8914729,14.0181159 90.1162791,14.0181159 L93.8630491,14.0181159 L93.8630491,24.9746377 C93.8630491,25.2028986 94.0129199,25.3550725 94.2377261,25.3550725 L96.1111111,25.3550725 C96.3359173,25.3550725 96.4857881,25.2028986 96.4857881,24.9746377 L96.4857881,14.0942029 L100.232558,14.0942029 C100.457364,14.0942029 100.607235,13.942029 100.607235,13.7137681 Z M126.085271,25.2028986 C126.085271,25.3550725 126.010336,25.4311594 125.860465,25.4311594 L123.537468,25.4311594 C123.312661,25.4311594 123.237726,25.2028986 123.162791,25.0507246 L120.465116,20.4094203 L120.015504,20.4094203 C119.490956,20.4094203 117.992248,20.3333333 117.542636,20.3333333 L117.542636,25.0507246 C117.542636,25.2789855 117.392765,25.4311594 117.167959,25.4311594 L115.294574,25.4311594 C115.069767,25.4311594 114.919897,25.2789855 114.919897,25.0507246 L114.919897,12.4963768 C114.919897,12.115942 115.144703,11.9637681 115.51938,11.8876812 C116.49354,11.7355072 118.591731,11.6594203 119.940568,11.6594203 C122.863049,11.6594203 125.485788,12.7246377 125.485788,15.9963768 L125.485788,16.1485507 C125.485788,18.2028986 124.511628,19.2681159 122.937984,19.8768116 L125.860465,24.9746377 C126.085271,25.1268116 126.085271,25.2028986 126.085271,25.2028986 Z M123.01292,15.9963768 C123.01292,14.5507246 121.888889,13.942029 120.015504,13.942029 C119.640827,13.942029 117.917313,14.0181159 117.542636,14.0181159 L117.542636,18.1268116 C117.842377,18.1268116 119.640827,18.2028986 120.015504,18.2028986 C121.963824,18.2028986 123.01292,17.8224638 123.01292,16.1485507 L123.01292,15.9963768 Z M138,21.6268116 C138,19.8007246 136.950904,18.8115942 135.377261,18.2028986 C134.103359,17.6702899 133.054264,17.2898551 132.155039,16.9094203 C131.330749,16.6050725 130.581395,15.9963768 130.581395,15.3876812 C130.581395,14.5507246 131.630491,14.0181159 133.054264,14.0181159 C134.702842,14.0181159 135.976744,14.2463768 137.250646,14.3985507 C137.250646,14.3985507 137.250646,14.3985507 137.250646,14.3985507 C137.475452,14.3985507 137.550388,14.2463768 137.550388,14.0181159 L137.550388,12.5724638 C137.550388,12.4202899 137.400517,12.2681159 137.175711,12.192029 C136.501292,12.0398551 134.927649,11.6594203 133.129199,11.6594203 C129.607235,11.6594203 127.958656,13.1811594 127.958656,15.3115942 C127.958656,16.6811594 128.55814,17.9746377 130.206718,18.6594203 C131.855297,19.3442029 135.22739,20.1050725 135.22739,21.5507246 C135.22739,22.692029 134.702842,23.3007246 133.054264,23.3007246 C131.330749,23.3007246 129.5323,23.0724638 128.782946,22.9202899 C128.782946,22.9202899 128.782946,22.9202899 128.70801,22.9202899 C128.55814,22.9202899 128.333333,23.0724638 128.333333,23.3007246 L128.333333,24.7463768 C128.333333,24.9746377 128.483204,25.1268116 128.70801,25.1268116 C129.607235,25.3550725 131.330749,25.6594203 132.979328,25.6594203 C136.801034,25.5833333 138,23.5289855 138,21.6268116 Z M105.178295,19.4963768 L111.173127,19.4963768 C111.397933,19.4963768 111.547804,19.3442029 111.547804,19.115942 L111.547804,17.7463768 C111.547804,17.5181159 111.397933,17.365942 111.173127,17.365942 L105.178295,17.365942 L105.178295,15.615942 C105.178295,14.0181159 105.25323,13.942029 106.677003,13.942029 L111.472868,13.942029 C111.697674,13.942029 111.847545,13.7898551 111.847545,13.5615942 L111.847545,12.3442029 C111.847545,12.0398551 111.77261,11.9637681 111.472868,11.9637681 C110.873385,11.8876812 109.674419,11.7355072 107.426357,11.7355072 C104.27907,11.7355072 102.630491,11.7355072 102.630491,15.615942 L102.630491,21.7028986 C102.630491,25.6594203 104.27907,25.5834377 107.426357,25.5834377 C109.674419,25.5834377 110.873385,25.4311594 111.472868,25.2789855 C111.77261,25.2789855 111.847545,25.1268116 111.847545,24.8985507 L111.847545,23.6811594 C111.847545,23.4528986 111.697674,23.3007246 111.472868,23.3007246 L106.677003,23.3007246 C105.25323,23.3007246 105.178295,23.2246377 105.178295,21.6268116 L105.178295,19.4963768 Z" id="Shape" fill="#FFFFFF"></path>
                    <path d="M41,19.1594203 C41,17.9754203 40.0255941,17.0134203 38.8263254,17.0134203 C37.6270567,17.0134203 36.6526508,17.9754203 36.6526508,19.1594203 C36.6526508,20.3434203 37.6270567,21.3054203 38.8263254,21.3054203 C40.0255941,21.3054203 41,20.3434203 41,19.1594203 Z M39.8007313,12.8694203 C39.5009141,11.9074203 38.3765996,11.3894203 37.4021938,11.6854203 C36.4277879,11.9814203 35.9031079,13.0174203 36.202925,14.0534203 C36.5027422,15.0154203 37.6270567,15.5334203 38.6014625,15.2374203 C39.5758684,14.8674203 40.1005484,13.8314203 39.8007313,12.8694203 Z M36.952468,7.98542029 C36.4277879,7.24542029 35.4533821,7.09742029 34.7038391,7.61542029 C33.9542962,8.13342029 33.8043876,9.09542029 34.3290676,9.76142029 C34.8537477,10.5014203 35.8281536,10.6494203 36.5776965,10.1314203 C37.2522852,9.68742029 37.4021938,8.72542029 36.952468,7.98542029 Z M32.904936,4.28542029 C32.3053016,3.76742029 31.4808044,3.91542029 30.9561243,4.43342029 C30.5063985,5.02542029 30.5813528,5.83942029 31.1060329,6.35742029 C31.7056673,6.80142029 32.5301645,6.72742029 33.0548446,6.20942029 C33.5795247,5.61742029 33.5045704,4.80342029 32.904936,4.28542029 Z M28.5575868,2.06542029 C28.0329068,1.84342029 27.3583181,2.06542029 27.0585009,2.58342029 C26.833638,3.10142029 27.0585009,3.76742029 27.583181,4.06342029 C28.1078611,4.35942029 28.7824497,4.06342029 29.0822669,3.54542029 C29.3820841,2.95342029 29.1572212,2.28742029 28.5575868,2.06542029 Z M24.3601463,0.95542029 C23.8354662,0.80742029 23.3107861,1.17742029 23.2358318,1.69542029 C23.1608775,2.21342029 23.4606947,2.73142029 23.9853748,2.80542029 C24.5100548,2.95342029 25.0347349,2.58342029 25.1096892,2.06542029 C25.2595978,1.54742029 24.8848263,1.02942029 24.3601463,0.95542029 Z M20.5374771,0.65942029 C20.0877514,0.65942029 19.7129799,1.02942029 19.7129799,1.47342029 C19.7129799,1.91742029 20.0877514,2.28742029 20.5374771,2.28742029 C20.9872029,2.28742029 21.3619744,1.91742029 21.3619744,1.47342029 C21.3619744,1.02942029 20.9872029,0.65942029 20.5374771,0.65942029 Z M4.34734918,19.1594203 C4.34734918,17.9754203 3.37294333,17.0134203 2.17367459,17.0134203 C0.97440585,17.0134203 0,17.9754203 0,19.1594203 C0,20.3434203 0.97440585,21.3054203 2.17367459,21.3054203 C3.37294333,21.3054203 4.34734918,20.3434203 4.34734918,19.1594203 Z M4.87202925,24.2654203 C4.57221207,23.3034203 3.44789762,22.7854203 2.47349177,23.0814203 C1.49908592,23.3774203 0.97440585,24.4874203 1.27422303,25.4494203 C1.57404022,26.4114203 2.62340037,26.9294203 3.67276051,26.6334203 C4.64716636,26.3374203 5.17184644,25.3014203 4.87202925,24.2654203 Z M6.74588665,28.5574203 C6.22120658,27.8174203 5.24680073,27.6694203 4.49725777,28.1874203 C3.74771481,28.7054203 3.59780622,29.6674203 4.04753199,30.4074203 C4.57221207,31.1474203 5.54661792,31.2954203 6.29616088,30.7774203 C7.04570384,30.1854203 7.27056673,29.2234203 6.74588665,28.5574203 Z M9.89396709,31.9614203 C9.29433272,31.4434203 8.46983547,31.5914203 7.94515539,32.1094203 C7.42047532,32.7014203 7.57038391,33.5154203 8.09506399,34.0334203 C8.69469835,34.5514203 9.51919561,34.4034203 10.0438757,33.8854203 C10.5685558,33.2934203 10.4186472,32.4054203 9.89396709,31.9614203 Z M13.416819,34.2554203 C12.8921389,33.9594203 12.2175503,34.2554203 11.9177331,34.7734203 C11.6928702,35.3654203 11.9177331,35.9574203 12.4424132,36.2534203 C12.9670932,36.4754203 13.6416819,36.2534203 13.9414991,35.7354203 C14.2413163,35.1434203 14.0164534,34.4774203 13.416819,34.2554203 Z M17.0895795,35.5134203 C16.5648995,35.4394203 16.0402194,35.7354203 15.9652651,36.2534203 C15.8903108,36.7714203 16.190128,37.2894203 16.714808,37.3634203 C17.2394881,37.4374203 17.7641682,37.1414203 17.8391225,36.6234203 C17.9140768,36.1054203 17.6142596,35.5874203 17.0895795,35.5134203 Z M20.5374771,36.0314203 C20.0877514,36.0314203 19.7129799,36.4014203 19.7129799,36.8454203 C19.7129799,37.2894203 20.0877514,37.6594203 20.5374771,37.6594203 C20.9872029,37.6594203 21.3619744,37.2894203 21.3619744,36.8454203 C21.3619744,36.4014203 20.9872029,36.0314203 20.5374771,36.0314203 Z M2.47349177,15.1634203 C3.44789762,15.4594203 4.49725777,14.9414203 4.87202925,13.9794203 C5.17184644,13.0174203 4.64716636,11.9814203 3.67276051,11.6114203 C2.69835466,11.3154203 1.64899452,11.8334203 1.27422303,12.7954203 C0.97440585,13.8314203 1.49908592,14.8674203 2.47349177,15.1634203 Z M4.57221207,10.2054203 C5.32175503,10.7234203 6.29616088,10.5014203 6.82084095,9.83542029 C7.34552102,9.09542029 7.12065814,8.13342029 6.37111517,7.61542029 C5.62157221,7.09742029 4.64716636,7.31942029 4.12248629,7.98542029 C3.59780622,8.72542029 3.8226691,9.68742029 4.57221207,10.2054203 Z M7.94515539,6.20942029 C8.39488117,6.80142029 9.29433272,6.87542029 9.89396709,6.35742029 C10.4936015,5.91342029 10.5685558,5.02542029 10.0438757,4.43342029 C9.59414991,3.84142029 8.69469835,3.76742029 8.09506399,4.28542029 C7.49542962,4.80342029 7.42047532,5.61742029 7.94515539,6.20942029 Z M11.9177331,3.54542029 C12.142596,4.06342029 12.8171846,4.35942029 13.416819,4.06342029 C13.9414991,3.84142029 14.2413163,3.17542029 13.9414991,2.58342029 C13.6416819,2.06542029 13.0420475,1.76942029 12.4424132,2.06542029 C11.9177331,2.36142029 11.6928702,2.95342029 11.9177331,3.54542029 Z M15.8903108,2.06542029 C15.9652651,2.58342029 16.4899452,2.87942029 17.0146252,2.80542029 C17.5393053,2.73142029 17.8391225,2.21342029 17.7641682,1.69542029 C17.6892139,1.17742029 17.1645338,0.88142029 16.6398537,0.95542029 C16.1151737,1.02942029 15.8153565,1.54742029 15.8903108,2.06542029 Z M37.4021938,26.6334203 C38.3765996,26.9294203 39.4259598,26.4114203 39.8007313,25.4494203 C40.1005484,24.4874203 39.5758684,23.4514203 38.6014625,23.0814203 C37.6270567,22.7854203 36.5776965,23.3034203 36.202925,24.2654203 C35.9031079,25.3014203 36.4277879,26.3374203 37.4021938,26.6334203 Z M34.7038391,30.7034203 C35.4533821,31.2214203 36.4277879,30.9994203 36.952468,30.3334203 C37.4771481,29.5934203 37.2522852,28.6314203 36.5776965,28.1134203 C35.8281536,27.5954203 34.8537477,27.8174203 34.3290676,28.4834203 C33.8043876,29.2234203 33.9542962,30.2594203 34.7038391,30.7034203 Z M31.0310786,33.8114203 C31.4808044,34.4034203 32.3802559,34.4774203 32.9798903,33.9594203 C33.5795247,33.5154203 33.654479,32.6274203 33.1297989,32.0354203 C32.6800731,31.4434203 31.7806216,31.3694203 31.1809872,31.8874203 C30.5813528,32.4054203 30.5063985,33.2194203 31.0310786,33.8114203 Z M27.0585009,35.7354203 C27.2833638,36.3274203 27.9579525,36.5494203 28.5575868,36.2534203 C29.1572212,35.9574203 29.3820841,35.3654203 29.0822669,34.7734203 C28.7824497,34.2554203 28.1828154,33.9594203 27.583181,34.2554203 C27.0585009,34.5514203 26.833638,35.1434203 27.0585009,35.7354203 Z M23.2358318,36.6234203 C23.3107861,37.1414203 23.8354662,37.4374203 24.3601463,37.3634203 C24.8848263,37.2894203 25.1846435,36.7714203 25.1096892,36.2534203 C25.0347349,35.7354203 24.5100548,35.4394203 23.9853748,35.5134203 C23.4606947,35.5874203 23.1608775,36.1054203 23.2358318,36.6234203 Z M34.2541133,11.7594203 C33.8043876,10.9454203 32.8299817,10.6494203 32.0054845,11.0934203 C31.1809872,11.5374203 30.88117,12.4994203 31.3308958,13.3134203 C31.7806216,14.1274203 32.7550274,14.4234203 33.5795247,13.9794203 C34.4040219,13.5354203 34.7038391,12.5734203 34.2541133,11.7594203 Z M31.1809872,7.91142029 C30.5813528,7.31942029 29.606947,7.39342029 29.0073126,7.98542029 C28.4076782,8.57742029 28.4826325,9.53942029 29.0822669,10.1314203 C29.6819013,10.7234203 30.6563071,10.6494203 31.2559415,10.0574203 C31.7806216,9.46542029 31.7806216,8.50342029 31.1809872,7.91142029 Z M27.2833638,5.61742029 C26.6837294,5.32142029 25.8592322,5.54342029 25.559415,6.20942029 C25.2595978,6.80142029 25.4844607,7.61542029 26.1590494,7.91142029 C26.833638,8.20742029 27.583181,7.98542029 27.8829982,7.31942029 C28.2577697,6.72742029 27.9579525,5.91342029 27.2833638,5.61742029 Z M23.3857404,4.65542029 C22.786106,4.50742029 22.1864717,4.95142029 22.1115174,5.54342029 C21.9616088,6.13542029 22.4113346,6.72742029 23.0109689,6.80142029 C23.6106033,6.94942029 24.2102377,6.50542029 24.285192,5.91342029 C24.3601463,5.32142029 23.9853748,4.80342029 23.3857404,4.65542029 Z M19.5630713,4.80342029 C19.1133455,4.80342029 18.738574,5.24742029 18.738574,5.69142029 C18.738574,6.13542029 19.1882998,6.50542029 19.6380256,6.50542029 C20.0877514,6.50542029 20.4625229,6.06142029 20.4625229,5.61742029 C20.4625229,5.09942029 20.0877514,4.80342029 19.5630713,4.80342029 Z M16.4149909,5.54342029 C16.0402194,5.61742029 15.8153565,6.06142029 15.9652651,6.43142029 C16.1151737,6.80142029 16.4899452,7.02342029 16.8647166,6.94942029 C17.2394881,6.80142029 17.464351,6.43142029 17.3893967,6.06142029 C17.1645338,5.69142029 16.7897623,5.46942029 16.4149909,5.54342029 Z M13.7166362,6.72742029 C13.416819,6.87542029 13.2669104,7.24542029 13.4917733,7.54142029 C13.6416819,7.83742029 14.0164534,7.98542029 14.3162706,7.76342029 C14.6160878,7.61542029 14.7659963,7.24542029 14.5411335,6.94942029 C14.3912249,6.72742029 14.0164534,6.57942029 13.7166362,6.72742029 Z M9.6691042,25.0054203 C9.21937843,24.1914203 8.24497258,23.8954203 7.42047532,24.3394203 C6.59597806,24.7834203 6.29616088,25.7454203 6.74588665,26.5594203 C7.19561243,27.3734203 8.17001828,27.6694203 8.99451554,27.2254203 C9.8190128,26.7814203 10.11883,25.7454203 9.6691042,25.0054203 Z M11.9926874,28.1874203 C11.393053,27.5954203 10.4186472,27.6694203 9.8190128,28.2614203 C9.21937843,28.8534203 9.29433272,29.8154203 9.89396709,30.4074203 C10.4936015,30.9994203 11.4680073,30.9254203 12.0676417,30.3334203 C12.6672761,29.6674203 12.5923218,28.7794203 11.9926874,28.1874203 Z M14.7659963,30.3334203 C14.0914077,30.0374203 13.3418647,30.2594203 13.0420475,30.9254203 C12.7422303,31.5914203 12.9670932,32.3314203 13.6416819,32.6274203 C14.3162706,32.9234203 15.0658135,32.7014203 15.440585,32.0354203 C15.6654479,31.4434203 15.440585,30.6294203 14.7659963,30.3334203 Z M18.1389397,31.5174203 C17.5393053,31.3694203 16.9396709,31.8134203 16.8647166,32.4054203 C16.714808,32.9974203 17.1645338,33.5894203 17.7641682,33.6634203 C18.3638026,33.8114203 18.9634369,33.3674203 19.0383912,32.7754203 C19.1133455,32.1834203 18.6636197,31.5914203 18.1389397,31.5174203 Z M21.3619744,31.8134203 C20.9122486,31.8134203 20.5374771,32.2574203 20.5374771,32.7014203 C20.6124314,33.1454203 20.9872029,33.5154203 21.4369287,33.5154203 C21.8866545,33.5154203 22.261426,33.0714203 22.261426,32.6274203 C22.261426,32.1834203 21.8117002,31.8134203 21.3619744,31.8134203 Z M24.285192,31.3694203 C23.9104205,31.5174203 23.6855576,31.8874203 23.7605119,32.2574203 C23.9104205,32.6274203 24.285192,32.8494203 24.6599634,32.7754203 C25.0347349,32.6274203 25.2595978,32.2574203 25.1846435,31.8874203 C25.0347349,31.5174203 24.6599634,31.2954203 24.285192,31.3694203 Z M26.7586837,30.4814203 C26.4588665,30.6294203 26.3839122,30.9994203 26.5338208,31.2954203 C26.6837294,31.5914203 27.0585009,31.7394203 27.3583181,31.5174203 C27.6581353,31.3694203 27.8080439,30.9994203 27.583181,30.7034203 C27.4332724,30.4074203 27.0585009,30.3334203 26.7586837,30.4814203 Z M6.89579525,22.8594203 C7.64533821,22.7114203 8.09506399,22.0454203 7.94515539,21.3794203 C7.7952468,20.7134203 7.12065814,20.1954203 6.44606947,20.3434203 C5.7714808,20.4914203 5.24680073,21.1574203 5.39670932,21.8234203 C5.54661792,22.5634203 6.22120658,23.0074203 6.89579525,22.8594203 Z M6.52102377,18.7894203 C7.12065814,18.8634203 7.64533821,18.4194203 7.7202925,17.8274203 C7.7952468,17.2354203 7.34552102,16.7174203 6.74588665,16.6434203 C6.14625229,16.5694203 5.62157221,17.0134203 5.54661792,17.6054203 C5.47166362,18.1974203 5.9213894,18.7154203 6.52102377,18.7894203 Z M7.27056673,15.0154203 C7.7952468,15.2374203 8.39488117,14.9414203 8.61974406,14.4234203 C8.84460695,13.9054203 8.54478976,13.3134203 8.02010969,13.1654203 C7.49542962,12.9434203 6.89579525,13.1654203 6.67093236,13.6834203 C6.52102377,14.2014203 6.82084095,14.7934203 7.27056673,15.0154203 Z M8.99451554,11.7594203 C9.36928702,12.0554203 9.89396709,11.9814203 10.1937843,11.6114203 C10.4936015,11.2414203 10.4186472,10.7234203 10.0438757,10.4274203 C9.6691042,10.1314203 9.14442413,10.2054203 8.84460695,10.5754203 C8.54478976,10.9454203 8.61974406,11.4634203 8.99451554,11.7594203 Z M11.0932358,9.39142029 C11.393053,9.68742029 11.8427788,9.76142029 12.142596,9.46542029 C12.4424132,9.16942029 12.5173675,8.72542029 12.2175503,8.42942029 C11.9177331,8.13342029 11.4680073,8.05942029 11.1681901,8.35542029 C10.8683729,8.57742029 10.8683729,9.09542029 11.0932358,9.39142029 Z M34.5539305,17.9754203 C35.2285192,17.8274203 35.7531993,17.1614203 35.6032907,16.4954203 C35.4533821,15.8294203 34.7787934,15.3114203 34.1042048,15.4594203 C33.4296161,15.6074203 32.904936,16.2734203 33.0548446,16.9394203 C33.2047532,17.6054203 33.8793419,18.1234203 34.5539305,17.9754203 Z M34.3290676,21.6754203 C34.928702,21.7494203 35.4533821,21.3054203 35.5283364,20.7134203 C35.6032907,20.1214203 35.1535649,19.6034203 34.5539305,19.5294203 C33.9542962,19.4554203 33.4296161,19.8994203 33.3546618,20.4914203 C33.2797075,21.0834203 33.7294333,21.6014203 34.3290676,21.6754203 Z M32.9798903,25.1534203 C33.5045704,25.3754203 34.1042048,25.0794203 34.2541133,24.6354203 C34.4789762,24.1174203 34.2541133,23.5254203 33.7294333,23.3774203 C33.2047532,23.1554203 32.6051188,23.3774203 32.4552102,23.8954203 C32.2303473,24.4134203 32.4552102,25.0054203 32.9798903,25.1534203 Z M31.0310786,27.8914203 C31.4058501,28.1874203 31.9305302,28.1134203 32.2303473,27.7434203 C32.5301645,27.3734203 32.4552102,26.8554203 32.0804388,26.5594203 C31.7056673,26.2634203 31.1809872,26.3374203 30.88117,26.7074203 C30.5813528,27.0774203 30.6563071,27.5954203 31.0310786,27.8914203 Z M28.7824497,29.8894203 C29.0822669,30.1854203 29.5319927,30.2594203 29.8318099,29.9634203 C30.1316271,29.7414203 30.2065814,29.2234203 29.9067642,28.9274203 C29.6819013,28.6314203 29.1572212,28.6314203 28.857404,28.8534203 C28.5575868,29.1494203 28.5575868,29.5934203 28.7824497,29.8894203 Z M28.6325411,11.1674203 C28.0329068,10.5754203 27.0585009,10.5754203 26.4588665,11.1674203 C25.8592322,11.7594203 25.8592322,12.7214203 26.4588665,13.3134203 C27.0585009,13.9054203 28.0329068,13.9054203 28.6325411,13.3134203 C29.2321755,12.7214203 29.2321755,11.7594203 28.6325411,11.1674203 Z M24.7349177,8.79942029 C24.0603291,8.50342029 23.2358318,8.87342029 22.9360146,9.53942029 C22.6361974,10.2054203 23.0109689,11.0934203 23.6855576,11.3154203 C24.4351005,11.6114203 25.1846435,11.2414203 25.4844607,10.5754203 C25.7842779,9.90942029 25.4844607,9.09542029 24.7349177,8.79942029 Z M20.5374771,8.28142029 C19.8628885,8.28142029 19.3382084,8.79942029 19.3382084,9.53942029 C19.3382084,10.2054203 19.8628885,10.7234203 20.5374771,10.7234203 C21.2120658,10.7234203 21.7367459,10.2054203 21.7367459,9.53942029 C21.7367459,8.87342029 21.2120658,8.35542029 20.5374771,8.28142029 Z M16.4899452,9.53942029 C16.0402194,9.76142029 15.8153565,10.2794203 15.9652651,10.7234203 C16.190128,11.1674203 16.714808,11.3894203 17.1645338,11.2414203 C17.6142596,11.0194203 17.8391225,10.5014203 17.6142596,10.0574203 C17.464351,9.53942029 16.9396709,9.39142029 16.4899452,9.53942029 Z M14.5411335,25.0054203 C13.9414991,24.4134203 12.9670932,24.4134203 12.3674589,25.0054203 C11.7678245,25.5974203 11.7678245,26.5594203 12.3674589,27.1514203 C12.9670932,27.7434203 13.9414991,27.7434203 14.5411335,27.1514203 C15.1407678,26.5594203 15.1407678,25.5974203 14.5411335,25.0054203 Z M17.3144424,27.0034203 C16.5648995,26.7074203 15.8153565,27.0774203 15.5155393,27.7434203 C15.2157221,28.4094203 15.5904936,29.2234203 16.3400366,29.5194203 C17.0146252,29.8154203 17.8391225,29.5194203 18.1389397,28.7794203 C18.3638026,28.0394203 18.0639854,27.2994203 17.3144424,27.0034203 Z M20.4625229,27.5954203 C19.7879342,27.5954203 19.2632541,28.1134203 19.2632541,28.7794203 C19.2632541,29.4454203 19.8628885,29.9634203 20.4625229,30.0374203 C21.1371115,30.0374203 21.6617916,29.5194203 21.7367459,28.8534203 C21.7367459,28.1874203 21.1371115,27.5954203 20.4625229,27.5954203 Z M23.8354662,27.1514203 C23.3857404,27.2994203 23.1608775,27.8174203 23.3107861,28.3354203 C23.535649,28.7794203 24.0603291,29.0014203 24.5100548,28.8534203 C24.9597806,28.6314203 25.1846435,28.1134203 24.9597806,27.6694203 C24.809872,27.1514203 24.285192,26.9294203 23.8354662,27.1514203 Z M11.6928702,23.8954203 C12.3674589,23.6734203 12.6672761,22.9334203 12.4424132,22.1934203 C12.2175503,21.5274203 11.4680073,21.2314203 10.7934186,21.4534203 C10.11883,21.6754203 9.8190128,22.4154203 10.0438757,23.0814203 C10.3436929,23.8214203 11.0182815,24.1914203 11.6928702,23.8954203 Z M10.7184644,19.9734203 C11.2431444,19.9734203 11.6928702,19.5294203 11.7678245,19.0114203 C11.7678245,18.4934203 11.3180987,18.0494203 10.7934186,17.9754203 C10.1937843,17.9754203 9.7440585,18.4194203 9.7440585,18.9374203 C9.7440585,19.5294203 10.1937843,19.9734203 10.7184644,19.9734203 Z M11.3180987,16.2734203 C11.7678245,16.4214203 12.2175503,16.2734203 12.4424132,15.8294203 C12.5923218,15.3854203 12.4424132,14.9414203 11.9926874,14.7194203 C11.5429616,14.5714203 11.0182815,14.7194203 10.8683729,15.1634203 C10.6435101,15.6074203 10.8683729,16.1254203 11.3180987,16.2734203 Z M30.2065814,16.7914203 C30.88117,16.5694203 31.1809872,15.8294203 30.9561243,15.1634203 C30.7312614,14.4974203 29.9817185,14.2014203 29.3071298,14.4234203 C28.6325411,14.7194203 28.2577697,15.4594203 28.5575868,16.0514203 C28.7824497,16.7174203 29.5319927,17.0874203 30.2065814,16.7914203 Z M30.2815356,20.3434203 C30.8062157,20.3434203 31.3308958,19.8994203 31.3308958,19.3814203 C31.3308958,18.8634203 30.88117,18.3454203 30.3564899,18.3454203 C29.8318099,18.3454203 29.3071298,18.7894203 29.3071298,19.3074203 C29.2321755,19.8254203 29.6819013,20.3434203 30.2815356,20.3434203 Z M29.0822669,23.5994203 C29.5319927,23.7474203 29.9817185,23.5994203 30.2065814,23.1554203 C30.3564899,22.7114203 30.2065814,22.2674203 29.7568556,22.0454203 C29.3071298,21.8234203 28.857404,22.0454203 28.7074954,22.4894203 C28.4076782,22.9334203 28.6325411,23.4514203 29.0822669,23.5994203 Z M13.1170018,13.0174203 C13.416819,13.3134203 14.0164534,13.3874203 14.3162706,13.0174203 C14.6160878,12.7214203 14.6160878,12.2034203 14.3162706,11.8334203 C14.0164534,11.5374203 13.4917733,11.5374203 13.1170018,11.8334203 C12.8171846,12.2034203 12.8171846,12.7214203 13.1170018,13.0174203 Z M26.6837294,26.4854203 C27.0585009,26.7814203 27.583181,26.8554203 27.8829982,26.4854203 C28.1828154,26.1894203 28.2577697,25.6714203 27.8829982,25.3754203 C27.583181,25.0054203 26.9835466,25.0054203 26.6837294,25.3754203 C26.3839122,25.6714203 26.3839122,26.1894203 26.6837294,26.4854203 Z M18.9634369,12.1294203 C18.2888483,12.2774203 17.9140768,12.9434203 17.9890311,13.5354203 C18.1389397,14.2014203 18.8135283,14.5714203 19.488117,14.4234203 C20.1627057,14.2754203 20.5374771,13.6834203 20.3875686,13.0174203 C20.23766,12.4254203 19.5630713,11.9814203 18.9634369,12.1294203 Z M15.440585,14.1274203 C14.9908592,14.5714203 14.9908592,15.3114203 15.440585,15.7554203 C15.8903108,16.1994203 16.6398537,16.1994203 17.0895795,15.7554203 C17.5393053,15.3114203 17.5393053,14.5714203 17.0895795,14.1274203 C16.5648995,13.6834203 15.8903108,13.6834203 15.440585,14.1274203 Z M14.0164534,17.4574203 C13.8665448,17.9014203 14.166362,18.2714203 14.5411335,18.4194203 C14.9159049,18.4934203 15.3656307,18.2714203 15.440585,17.9014203 C15.5904936,17.4574203 15.2906764,17.0874203 14.9159049,16.9394203 C14.5411335,16.8654203 14.0914077,17.0874203 14.0164534,17.4574203 Z M21.5868373,23.8954203 C20.9872029,24.0434203 20.5374771,24.7094203 20.6873857,25.3014203 C20.8372943,25.9674203 21.511883,26.3374203 22.1115174,26.1894203 C22.786106,26.0414203 23.1608775,25.3754203 23.0109689,24.7834203 C22.9360146,24.1914203 22.261426,23.8214203 21.5868373,23.8954203 Z M24.0603291,22.6374203 C23.6106033,23.0814203 23.6106033,23.8214203 24.0603291,24.2654203 C24.5100548,24.7094203 25.2595978,24.7094203 25.6343693,24.2654203 C26.0840951,23.8214203 26.0840951,23.0814203 25.6343693,22.6374203 C25.1846435,22.2674203 24.5100548,22.2674203 24.0603291,22.6374203 Z M25.6343693,20.5654203 C25.559415,21.0094203 25.7842779,21.3794203 26.1590494,21.5274203 C26.6087751,21.6754203 26.9835466,21.3794203 27.1334552,21.0094203 C27.2084095,20.5654203 26.9835466,20.1954203 26.6087751,20.0474203 C26.1590494,19.8994203 25.7093236,20.1214203 25.6343693,20.5654203 Z M23.6855576,13.9054203 C23.9104205,13.3874203 23.6106033,12.7214203 23.0859232,12.5734203 C22.4862888,12.3514203 21.9616088,12.6474203 21.6617916,13.1654203 C21.4369287,13.6834203 21.7367459,14.2754203 22.261426,14.4974203 C22.8610603,14.7194203 23.4606947,14.4974203 23.6855576,13.9054203 Z M19.4131627,25.2274203 C19.6380256,24.7094203 19.3382084,24.0434203 18.8135283,23.8954203 C18.213894,23.6734203 17.6892139,23.9694203 17.3893967,24.4874203 C17.1645338,25.0054203 17.464351,25.5974203 17.9890311,25.8194203 C18.5886654,26.0414203 19.1882998,25.8194203 19.4131627,25.2274203 Z M25.7093236,16.1254203 C26.0840951,15.8294203 26.0840951,15.3854203 25.8592322,15.0154203 C25.559415,14.7194203 25.1096892,14.6454203 24.7349177,14.8674203 C24.4351005,15.0894203 24.3601463,15.6074203 24.5850091,15.9774203 C24.8848263,16.3474203 25.4095064,16.4214203 25.7093236,16.1254203 Z M16.2650823,23.4514203 C16.6398537,23.1554203 16.6398537,22.7114203 16.4149909,22.3414203 C16.1151737,22.0454203 15.6654479,21.9714203 15.2906764,22.1934203 C14.9908592,22.4154203 14.9159049,22.9334203 15.1407678,23.3034203 C15.440585,23.6734203 15.9652651,23.7474203 16.2650823,23.4514203 Z M26.4588665,18.5674203 C26.7586837,18.4934203 26.9835466,18.1974203 26.9085923,17.9014203 C26.833638,17.6054203 26.5338208,17.3834203 26.2340037,17.4574203 C25.9341865,17.5314203 25.7093236,17.8274203 25.7842779,18.1234203 C25.8592322,18.4194203 26.1590494,18.6414203 26.4588665,18.5674203 Z M14.9159049,20.9354203 C15.2157221,20.8614203 15.440585,20.5654203 15.3656307,20.2694203 C15.2906764,19.9734203 14.9908592,19.7514203 14.691042,19.8254203 C14.3912249,19.8994203 14.166362,20.1954203 14.2413163,20.4914203 C14.3162706,20.7874203 14.6160878,21.0094203 14.9159049,20.9354203 Z" id="Shape" fill="#FF8000"></path>
                    <path d="M154.864,22.6594203 C157.216,22.6594203 158.788,21.0394203 158.788,18.6634203 C158.788,16.2874203 157.216,14.6674203 154.864,14.6674203 L151.864,14.6674203 L151.864,22.6594203 L154.864,22.6594203 Z M154.792,21.3754203 L153.364,21.3754203 L153.364,15.9514203 L154.792,15.9514203 C156.172,15.9514203 157.288,16.8394203 157.288,18.6634203 C157.288,20.4874203 156.172,21.3754203 154.792,21.3754203 Z M166.088,22.6594203 L166.088,21.3634203 L162.212,21.3634203 L162.212,19.2034203 L165.836,19.2034203 L165.836,17.9074203 L162.212,17.9074203 L162.212,15.9634203 L166.088,15.9634203 L166.088,14.6674203 L160.712,14.6674203 L160.712,22.6594203 L166.088,22.6594203 Z M171.396,22.6594203 L171.396,15.9634203 L173.7,15.9634203 L173.7,14.6674203 L167.604,14.6674203 L167.604,15.9634203 L169.896,15.9634203 L169.896,22.6594203 L171.396,22.6594203 Z" id="DET" fill="#FFFFFF"></path>
                    <rect id="Rectangle" fill="#FFFFFF" x="144" y="10.6594203" width="1" height="16"></rect>
                </g>
            </g>
        </g>
    </g>
</svg>